{
customParameters = (
{
name = glyphOrder;
value = (
    ".notdef",
    uni0000,
    uni000D,
    space,
    exclam,
    quotedbl,
    numbersign,
    dollar,
    percent,
    ampersand,
    quotesingle,
    parenleft,
    parenright,
    asterisk,
    plus,
    comma,
    hyphen,
    period,
    slash,
    zero,
    one,
    two,
    three,
    four,
    five,
    six,
    seven,
    eight,
    nine,
    colon,
    semicolon,
    less,
    equal,
    greater,
    question,
    at,
    A,
    B,
    C,
    D,
    E,
    F,
    G,
    H,
    I,
    J,
    K,
    L,
    M,
    N,
    O,
    P,
    Q,
    R,
    S,
    T,
    U,
    V,
    W,
    X,
    Y,
    Z,
    bracketleft,
    backslash,
    bracketright,
    asciicircum,
    underscore,
    grave,
    a,
    b,
    c,
    d,
    e,
    f,
    g,
    h,
    i,
    j,
    k,
    l,
    m,
    n,
    o,
    p,
    q,
    r,
    s,
    t,
    u,
    v,
    w,
    x,
    y,
    z,
    braceleft,
    bar,
    braceright,
    asciitilde,
    ordfeminine,
    uni00B2,
    uni00B3,
    uni00B9,
    ordmasculine,
    Agrave,
    Acircumflex,
    Atilde,
    Egrave,
    Ecircumflex,
    Igrave,
    Icircumflex,
    Ntilde,
    Ograve,
    Ocircumflex,
    Otilde,
    Ugrave,
    Ucircumflex,
    agrave,
    acircumflex,
    atilde,
    egrave,
    ecircumflex,
    igrave,
    icircumflex,
    ntilde,
    ograve,
    ocircumflex,
    otilde,
    ugrave,
    ucircumflex,
    OE,
    oe,
    circumflex,
    tilde,
    endash,
    emdash,
    quoteleft,
    quoteright,
    quotedblleft,
    quotedblright,
    ellipsis,
    guilsinglleft,
    guilsinglright,
    trademark,
    uniE000,
    uniFB01,
    uniFB02,
    uniFB03,
    uniFB04
);}
);
date = "2012-07-03 13:53:23 +0000";
familyName = "Foundation Icons General";
fontMaster = (
{
ascender = 1706;
capHeight = 1470;
customParameters = (
{
name = TypoAscender;
value = 1706;
},
{
name = TypoDescender;
value = "-342";
},
{
name = postscriptUnderlinePosition;
value = "-153";

glyphs = (
{
glyphname = exclam;
lastChange = "2012-07-03 13:53:28 +0000";
layers = (
{
layerId = "1730482B-7E8C-4DF6-A2D5-70B9989D176C";
name = Regular;
paths = (
{
closed = 1;
nodes = (
"114 -284 OFFCURVE",
"120 -263 OFFCURVE",
"139 -252 CURVE",
"140 -251 OFFCURVE",
"154 -243 OFFCURVE",
"180 -230 CURVE SMOOTH",
"232 -204 OFFCURVE",
"345 -169 OFFCURVE",
"530 -139 CURVE SMOOTH",
"622 -124 OFFCURVE",
"736 -114 OFFCURVE",
"872 -109 CURVE",
"872 -2 LINE",
"395 -2 LINE SMOOTH",
"348 -2 OFFCURVE",
"313 33 OFFCURVE",
"313 80 CURVE SMOOTH",
"313 846 LINE SMOOTH",
"313 890 OFFCURVE",
"348 926 OFFCURVE",
"395 926 CURVE SMOOTH",
"475 926 LINE",
"475 829 LINE",
"580 829 LINE",
"580 1475 LINE SMOOTH",
"580 1483 OFFCURVE",
"588 1495 OFFCURVE",
"604 1511 CURVE SMOOTH",
"619 1526 OFFCURVE",
"644 1541 OFFCURVE",
"678 1556 CURVE",
"678 1253 LINE SMOOTH",
"678 1245 OFFCURVE",
"690 1208 OFFCURVE",
"723 1208 CURVE SMOOTH",
"756 1208 OFFCURVE",
"768 1245 OFFCURVE",
"768 1253 CURVE SMOOTH",
"768 1589 LINE",
"801 1597 OFFCURVE",
"837 1607 OFFCURVE",
"881 1612 CURVE",
"881 1253 LINE SMOOTH",
"881 1245 OFFCURVE",
"891 1208 OFFCURVE",
"924 1208 CURVE SMOOTH",
"957 1208 OFFCURVE",
"969 1245 OFFCURVE",
"969 1253 CURVE SMOOTH",
"969 1620 LINE",
"978 1620 OFFCURVE",
"988 1620 OFFCURVE",
"999 1621 CURVE SMOOTH",
"1009 1622 OFFCURVE",
"1019 1622 OFFCURVE",
"1030 1622 CURVE SMOOTH",
"1038 1622 OFFCURVE",
"1047 1622 OFFCURVE",
"1056 1621 CURVE SMOOTH",
"1065 1620 OFFCURVE",
"1073 1620 OFFCURVE",
"1081 1620 CURVE",
"1081 1253 LINE SMOOTH",
"1081 1245 OFFCURVE",
"1092 1208 OFFCURVE",
"1124 1208 CURVE SMOOTH",
"1157 1208 OFFCURVE",
"1169 1245 OFFCURVE",
"1169 1253 CURVE SMOOTH",
"1169 1612 LINE",
"1213 1607 OFFCURVE",
"1249 1599 OFFCURVE",
"1282 1591 CURVE",
"1282 1253 LINE SMOOTH",
"1282 1245 OFFCURVE",
"1292 1208 OFFCURVE",
"1325 1208 CURVE SMOOTH",
"1358 1208 OFFCURVE",
"1370 1245 OFFCURVE",
"1370 1253 CURVE SMOOTH",
"1370 1559 LINE",
"1404 1542 OFFCURVE",
"1428 1526 OFFCURVE",
"1443 1511 CURVE",
"1457 1495 OFFCURVE",
"1464 1483 OFFCURVE",
"1464 1475 CURVE SMOOTH",
"1464 829 LINE",
"1571 829 LINE",
"1571 926 LINE",
"1651 926 LINE SMOOTH",
"1698 926 OFFCURVE",
"1731 890 OFFCURVE",
"1731 846 CURVE SMOOTH",
"1731 80 LINE SMOOTH",
"1731 33 OFFCURVE",
"1698 -2 OFFCURVE",
"1651 -2 CURVE SMOOTH",
"1174 -2 LINE",
"1174 -109 LINE",
"1453 -117 OFFCURVE",
"1636 -152 OFFCURVE",
"1752 -184 CURVE SMOOTH",
"1810 -201 OFFCURVE",
"1852 -216 OFFCURVE",
"1878 -229 CURVE SMOOTH",
"1930 -257 OFFCURVE",
"1954 -258 OFFCURVE",
"1939 -305 CURVE SMOOTH",
"1932 -328 OFFCURVE",
"1917 -340 OFFCURVE",
"1894 -340 CURVE SMOOTH",
"166 -340 LINE SMOOTH",
"141 -340 OFFCURVE",
"126 -328 OFFCURVE",
"119 -305 CURVE"
);
},
{
closed = 1;
nodes = (
"475 160 LINE",
"1571 160 LINE",
"1571 680 LINE",
"1464 680 LINE",
"1464 375 LINE SMOOTH",
"1464 367 OFFCURVE",
"1457 356 OFFCURVE",
"1442 341 CURVE SMOOTH",
"1412 312 OFFCURVE",
"1347 279 OFFCURVE",
"1236 258 CURVE SMOOTH",
"1181 247 OFFCURVE",
"1113 242 OFFCURVE",
"1032 242 CURVE SMOOTH",
"871 242 OFFCURVE",
"757 267 OFFCURVE",
"685 297 CURVE SMOOTH",
"649 312 OFFCURVE",
"623 326 OFFCURVE",
"606 341 CURVE SMOOTH",
"589 355 OFFCURVE",
"580 366 OFFCURVE",
"580 375 CURVE SMOOTH",
"580 680 LINE",
"475 680 LINE"
);
}
);
width = 2048;
}
);
unicode = 0021;
},
{
glyphname = quotedbl;
lastChange = "2012-07-03 13:53:28 +0000";
layers = (
{
layerId = "1730482B-7E8C-4DF6-A2D5-70B9989D176C";
name = Regular;
paths = (
{
closed = 1;
nodes = (
"143 484 OFFCURVE",
"133 507 OFFCURVE",
"133 533 CURVE SMOOTH",
"133 558 OFFCURVE",
"143 581 OFFCURVE",
"162 600 CURVE SMOOTH",
"991 1430 LINE SMOOTH",
"1251 1687 OFFCURVE",
"1526 1700 OFFCURVE",
"1761 1468 CURVE SMOOTH",
"1852 1377 OFFCURVE",
"1896 1290 OFFCURVE",
"1915 1210 CURVE SMOOTH",
"1934 1129 OFFCURVE",
"1925 1054 OFFCURVE",
"1909 997 CURVE SMOOTH",
"1880 896 OFFCURVE",
"1817 797 OFFCURVE",
"1720 700 CURVE SMOOTH",
"821 -199 LINE SMOOTH",
"738 -282 OFFCURVE",
"652 -330 OFFCURVE",
"565 -342 CURVE SMOOTH",
"558 -343 OFFCURVE",
"551 -344 OFFCURVE",
"544 -344 CURVE SMOOTH",
"522 -344 LINE SMOOTH",
"451 -344 OFFCURVE",
"361 -322 OFFCURVE",
"270 -229 CURVE SMOOTH",
"210 -169 OFFCURVE",
"179 -111 OFFCURVE",
"161 -58 CURVE SMOOTH",
"143 -5 OFFCURVE",
"140 41 OFFCURVE",
"145 80 CURVE SMOOTH",
"154 167 OFFCURVE",
"199 251 OFFCURVE",
"279 332 CURVE SMOOTH",
"1036 1090 LINE SMOOTH",
"1143 1197 OFFCURVE",
"1230 1229 OFFCURVE",
"1300 1228 CURVE SMOOTH",
"1370 1227 OFFCURVE",
"1422 1192 OFFCURVE",
"1454 1159 CURVE SMOOTH",
"1495 1118 OFFCURVE",
"1526 1067 OFFCURVE",
"1525 997 CURVE SMOOTH",
"1524 927 OFFCURVE",
"1485 844 OFFCURVE",
"1384 743 CURVE SMOOTH",
"686 45 LINE",
"551 182 LINE",
"1247 879 LINE SMOOTH",
"1274 906 OFFCURVE",
"1294 929 OFFCURVE",
"1306 946 CURVE",
"1317 963 OFFCURVE",
"1325 977 OFFCURVE",
"1328 988 CURVE",
"1335 1010 OFFCURVE",
"1324 1019 OFFCURVE",
"1319 1024 CURVE",
"1316 1025 OFFCURVE",
"1312 1028 OFFCURVE",
"1307 1031 CURVE",
"1301 1034 OFFCURVE",
"1293 1035 OFFCURVE",
"1282 1032 CURVE SMOOTH",
"1271 1029 OFFCURVE",
"1257 1022 OFFCURVE",
"1239 1011 CURVE",
"1221 999 OFFCURVE",
"1199 980 OFFCURVE",
"1174 954 CURVE SMOOTH",
"416 197 LINE SMOOTH",
"383 164 OFFCURVE",
"341 112 OFFCURVE",
"336 57 CURVE SMOOTH",
"331 10 OFFCURVE",
"354 -40 OFFCURVE",
"406 -94 CURVE SMOOTH",
"440 -127 OFFCURVE",
"469 -145 OFFCURVE",
"492 -148 CURVE",
"515 -152 OFFCURVE",
"530 -153 OFFCURVE",
"539 -152 CURVE",
"586 -145 OFFCURVE",
"635 -115 OFFCURVE",
"686 -61 CURVE SMOOTH",
"1585 838 LINE SMOOTH",
"1733 983 OFFCURVE",
"1809 1145 OFFCURVE",
"1626 1333 CURVE SMOOTH",
"1577 1382 OFFCURVE",
"1512 1432 OFFCURVE",
"1430 1440 CURVE SMOOTH",
"1348 1448 OFFCURVE",
"1249 1414 OFFCURVE",
"1128 1294 CURVE SMOOTH",
"299 465 LINE SMOOTH",
"280 446 OFFCURVE",
"257 436 OFFCURVE",
"230 436 CURVE SMOOTH",
"203 436 OFFCURVE",
"181 446 OFFCURVE",
"162 465 CURVE SMOOTH"
);
}
);
width = 2048;
}
);
unicode = 0022;
},
{
glyphname = numbersign;
lastChange = "2012-07-03 13:53:28 +0000";
layers = (
{
layerId = "1730482B-7E8C-4DF6-A2D5-70B9989D176C";
name = Regular;
paths = (
{
closed = 1;
nodes = (
"31 1542 LINE SMOOTH",
"31 1597 OFFCURVE",
"72 1638 OFFCURVE",
"127 1638 CURVE SMOOTH",
"1726 1638 LINE SMOOTH",
"1781 1638 OFFCURVE",
"1823 1597 OFFCURVE",
"1823 1542 CURVE SMOOTH",
"1823 1495 LINE",
"1960 1495 LINE SMOOTH",
"1993 1495 OFFCURVE",
"2019 1468 OFFCURVE",
"2019 1436 CURVE SMOOTH",
"2019 1257 LINE SMOOTH",
"2019 1224 OFFCURVE",
"1993 1198 OFFCURVE",
"1960 1198 CURVE SMOOTH",
"1823 1198 LINE",
"1823 1028 LINE",
"1960 1028 LINE SMOOTH",
"1993 1028 OFFCURVE",
"2019 1001 OFFCURVE",
"2019 969 CURVE SMOOTH",
"2019 791 LINE SMOOTH",
"2019 758 OFFCURVE",
"1993 731 OFFCURVE",
"1960 731 CURVE SMOOTH",
"1823 731 LINE",
"1823 561 LINE",
"1960 561 LINE SMOOTH",
"1993 561 OFFCURVE",
"2019 534 OFFCURVE",
"2019 502 CURVE SMOOTH",
"2019 324 LINE SMOOTH",
"2019 291 OFFCURVE",
"1993 264 OFFCURVE",
"1960 264 CURVE SMOOTH",
"1823 264 LINE",
"1823 94 LINE",
"1960 94 LINE SMOOTH",
"1993 94 OFFCURVE",
"2019 68 OFFCURVE",
"2019 33 CURVE SMOOTH",
"2019 -143 LINE SMOOTH",
"2019 -176 OFFCURVE",
"1993 -203 OFFCURVE",
"1960 -203 CURVE SMOOTH",
"1823 -203 LINE",
"1823 -254 LINE SMOOTH",
"1823 -306 OFFCURVE",
"1781 -348 OFFCURVE",
"1726 -348 CURVE SMOOTH",
"127 -348 LINE SMOOTH",
"72 -348 OFFCURVE",
"31 -306 OFFCURVE",
"31 -254 CURVE SMOOTH"
);
},
{
closed = 1;
nodes = (
"455 236 LINE SMOOTH",
"455 200 OFFCURVE",
"477 172 OFFCURVE",
"508 172 CURVE SMOOTH",
"1341 172 LINE SMOOTH",
"1372 172 OFFCURVE",
"1397 200 OFFCURVE",
"1397 236 CURVE SMOOTH",
"1397 494 LINE SMOOTH",
"1397 520 OFFCURVE",
"1385 539 OFFCURVE",
"1362 551 CURVE SMOOTH",
"1040 705 LINE",
"1113 752 OFFCURVE",
"1165 845 OFFCURVE",
"1165 952 CURVE SMOOTH",
"1165 1028 OFFCURVE",
"1139 1099 OFFCURVE",
"1096 1150 CURVE SMOOTH",
"1052 1201 OFFCURVE",
"991 1233 OFFCURVE",
"926 1233 CURVE SMOOTH",
"861 1233 OFFCURVE",
"799 1201 OFFCURVE",
"756 1150 CURVE SMOOTH",
"712 1099 OFFCURVE",
"684 1029 OFFCURVE",
"684 952 CURVE SMOOTH",
"684 843 OFFCURVE",
"736 749 OFFCURVE",
"815 702 CURVE",
"489 551 LINE",
"468 543 OFFCURVE",
"455 518 OFFCURVE",
"455 494 CURVE SMOOTH"
);
}
);
width = 2048;
}
);
unicode = 0023;
},
{
glyphname = dollar;
lastChange = "2012-07-03 13:53:28 +0000";
layers = (
{
layerId = "1730482B-7E8C-4DF6-A2D5-70B9989D176C";
name = Regular;
paths = (
{
closed = 1;
nodes = (
"57 910 OFFCURVE",
"165 1152 OFFCURVE",
"341 1328 CURVE SMOOTH",
"517 1504 OFFCURVE",
"756 1612 OFFCURVE",
"1024 1612 CURVE SMOOTH",
"1289 1612 OFFCURVE",
"1531 1504 OFFCURVE",
"1707 1328 CURVE SMOOTH",
"1883 1152 OFFCURVE",
"1991 910 OFFCURVE",
"1991 645 CURVE SMOOTH",
"1991 377 OFFCURVE",
"1883 138 OFFCURVE",
"1707 -38 CURVE SMOOTH",
"1531 -214 OFFCURVE",
"1289 -322 OFFCURVE",
"1024 -322 CURVE SMOOTH",
"756 -322 OFFCURVE",
"517 -214 OFFCURVE",
"341 -38 CURVE SMOOTH",
"165 138 OFFCURVE",
"57 377 OFFCURVE",
"57 645 CURVE SMOOTH"
);
},
{
closed = 1;
nodes = (
"313 449 OFFCURVE",
"394 272 OFFCURVE",
"522 144 CURVE SMOOTH",
"650 15 OFFCURVE",
"828 -66 OFFCURVE",
"1024 -66 CURVE SMOOTH",
"1220 -66 OFFCURVE",
"1398 15 OFFCURVE",
"1526 144 CURVE SMOOTH",
"1654 272 OFFCURVE",
"1735 449 OFFCURVE",
"1735 645 CURVE SMOOTH",
"1735 841 OFFCURVE",
"1654 1019 OFFCURVE",
"1526 1147 CURVE SMOOTH",
"1398 1275 OFFCURVE",
"1220 1356 OFFCURVE",
"1024 1356 CURVE SMOOTH",
"828 1356 OFFCURVE",
"650 1275 OFFCURVE",
"522 1147 CURVE SMOOTH",
"394 1019 OFFCURVE",
"313 841 OFFCURVE",
"313 645 CURVE SMOOTH"
);
},
{
closed = 1;
nodes = (
"586 209 LINE",
"569 222 OFFCURVE",
"566 247 OFFCURVE",
"578 268 CURVE SMOOTH",
"883 774 LINE SMOOTH",
"888 782 OFFCURVE",
"894 788 OFFCURVE",
"899 791 CURVE SMOOTH",
"1403 1092 LINE SMOOTH",
"1422 1103 OFFCURVE",
"1447 1100 OFFCURVE",
"1460 1083 CURVE",
"1479 1064 OFFCURVE",
"1483 1044 OFFCURVE",
"1470 1024 CURVE",
"1169 520 LINE SMOOTH",
"1166 515 OFFCURVE",
"1161 509 OFFCURVE",
"1153 504 CURVE SMOOTH",
"645 199 LINE SMOOTH",
"638 195 OFFCURVE",
"630 193 OFFCURVE",
"621 193 CURVE SMOOTH",
"608 193 OFFCURVE",
"597 198 OFFCURVE",
"588 207 CURVE SMOOTH"
);
}
);
width = 2048;
}
);
unicode = 0024;
},
{
glyphname = percent;
lastChange = "2012-07-03 13:53:28 +0000";
layers = (
{
layerId = "1730482B-7E8C-4DF6-A2D5-70B9989D176C";
name = Regular;
paths = (
{
closed = 1;
nodes = (
"113 547 LINE",
"113 954 LINE",
"113 1380 LINE SMOOTH",
"113 1389 OFFCURVE",
"128 1406 OFFCURVE",
"158 1430 CURVE SMOOTH",
"218 1478 OFFCURVE",
"319 1533 OFFCURVE",
"445 1576 CURVE SMOOTH",
"571 1619 OFFCURVE",
"705 1631 OFFCURVE",
"834 1597 CURVE SMOOTH",
"898 1580 OFFCURVE",
"956 1545 OFFCURVE",
"1008 1493 CURVE SMOOTH",
"1112 1389 OFFCURVE",
"1227 1352 OFFCURVE",
"1339 1351 CURVE SMOOTH",
"1451 1350 OFFCURVE",
"1560 1380 OFFCURVE",
"1646 1416 CURVE SMOOTH",
"1689 1433 OFFCURVE",
"1726 1450 OFFCURVE",
"1757 1465 CURVE SMOOTH",
"1820 1495 OFFCURVE",
"1849 1504 OFFCURVE",
"1877 1493 CURVE SMOOTH",
"1905 1482 OFFCURVE",
"1921 1458 OFFCURVE",
"1929 1427 CURVE SMOOTH",
"1933 1411 OFFCURVE",
"1935 1395 OFFCURVE",
"1935 1380 CURVE SMOOTH",
"1935 637 LINE SMOOTH",
"1935 541 OFFCURVE",
"1925 514 OFFCURVE",
"1878 481 CURVE SMOOTH",
"1823 442 OFFCURVE",
"1741 393 OFFCURVE",
"1643 355 CURVE SMOOTH",
"1545 317 OFFCURVE",
"1433 289 OFFCURVE",
"1322 296 CURVE SMOOTH",
"1211 303 OFFCURVE",
"1100 342 OFFCURVE",
"1008 434 CURVE SMOOTH",
"896 546 OFFCURVE",
"776 585 OFFCURVE",
"664 588 CURVE SMOOTH",
"552 591 OFFCURVE",
"448 556 OFFCURVE",
"369 520 CURVE",
"369 -199 LINE SMOOTH",
"369 -270 OFFCURVE",
"311 -326 OFFCURVE",
"240 -326 CURVE SMOOTH",
"169 -326 OFFCURVE",
"113 -270 OFFCURVE",
"113 -199 CURVE SMOOTH"
);
}
);
width = 2048;
}
);
unicode = 0025;
},
{
glyphname = ampersand;
lastChange = "2012-07-03 13:53:28 +0000";
layers = (
{
layerId = "1730482B-7E8C-4DF6-A2D5-70B9989D176C";
name = Regular;
paths = (
{
closed = 1;
nodes = (
"57 910 OFFCURVE",
"165 1152 OFFCURVE",
"341 1328 CURVE SMOOTH",
"517 1504 OFFCURVE",
"756 1612 OFFCURVE",
"1024 1612 CURVE SMOOTH",
"1289 1612 OFFCURVE",
"1531 1504 OFFCURVE",
"1707 1328 CURVE SMOOTH",
"1883 1152 OFFCURVE",
"1991 910 OFFCURVE",
"1991 645 CURVE SMOOTH",
"1991 377 OFFCURVE",
"1883 138 OFFCURVE",
"1707 -38 CURVE SMOOTH",
"1531 -214 OFFCURVE",
"1289 -322 OFFCURVE",
"1024 -322 CURVE SMOOTH",
"756 -322 OFFCURVE",
"517 -214 OFFCURVE",
"341 -38 CURVE SMOOTH",
"165 138 OFFCURVE",
"57 377 OFFCURVE",
"57 645 CURVE SMOOTH"
);
},
{
closed = 1;
nodes = (
"313 449 OFFCURVE",
"394 272 OFFCURVE",
"522 144 CURVE SMOOTH",
"650 15 OFFCURVE",
"828 -66 OFFCURVE",
"1024 -66 CURVE SMOOTH",
"1220 -66 OFFCURVE",
"1398 15 OFFCURVE",
"1526 144 CURVE SMOOTH",
"1654 272 OFFCURVE",
"1735 449 OFFCURVE",
"1735 645 CURVE SMOOTH",
"1735 841 OFFCURVE",
"1654 1019 OFFCURVE",
"1526 1147 CURVE SMOOTH",
"1398 1275 OFFCURVE",
"1220 1356 OFFCURVE",
"1024 1356 CURVE SMOOTH",
"828 1356 OFFCURVE",
"650 1275 OFFCURVE",
"522 1147 CURVE SMOOTH",
"394 1019 OFFCURVE",
"313 841 OFFCURVE",
"313 645 CURVE SMOOTH"
);
},
{
closed = 1;
nodes = (
"662 838 OFFCURVE",
"667 851 OFFCURVE",
"676 860 CURVE SMOOTH",
"776 961 LINE SMOOTH",
"785 970 OFFCURVE",
"797 975 OFFCURVE",
"812 975 CURVE SMOOTH",
"827 975 OFFCURVE",
"839 970 OFFCURVE",
"848 961 CURVE SMOOTH",
"1024 782 LINE",
"1346 1104 LINE SMOOTH",
"1365 1123 OFFCURVE",
"1398 1125 OFFCURVE",
"1417 1104 CURVE",
"1518 1004 LINE",
"1529 995 OFFCURVE",
"1534 983 OFFCURVE",
"1534 969 CURVE SMOOTH",
"1534 955 OFFCURVE",
"1529 943 OFFCURVE",
"1518 932 CURVE SMOOTH",
"1061 475 LINE",
"1053 466 OFFCURVE",
"1041 461 OFFCURVE",
"1026 461 CURVE SMOOTH",
"1024 461 LINE SMOOTH",
"1009 461 OFFCURVE",
"996 466 OFFCURVE",
"987 475 CURVE SMOOTH",
"676 786 LINE SMOOTH",
"667 795 OFFCURVE",
"662 808 OFFCURVE",
"662 823 CURVE SMOOTH"
);
}
);
width = 2048;
}
);
unicode = 0026;
},
{
glyphname = quotesingle;
lastChange = "2012-07-03 13:53:28 +0000";
layers = (
{
layerId = "1730482B-7E8C-4DF6-A2D5-70B9989D176C";
name = Regular;
paths = (
{
closed = 1;
nodes = (
"143 484 OFFCURVE",
"133 507 OFFCURVE",
"133 533 CURVE SMOOTH",
"133 558 OFFCURVE",
"143 581 OFFCURVE",
"162 600 CURVE SMOOTH",
"991 1430 LINE SMOOTH",
"1251 1687 OFFCURVE",
"1526 1700 OFFCURVE",
"1761 1468 CURVE SMOOTH",
"1852 1377 OFFCURVE",
"1896 1290 OFFCURVE",
"1915 1210 CURVE SMOOTH",
"1934 1129 OFFCURVE",
"1925 1054 OFFCURVE",
"1909 997 CURVE SMOOTH",
"1880 896 OFFCURVE",
"1817 797 OFFCURVE",
"1720 700 CURVE SMOOTH",
"821 -199 LINE SMOOTH",
"738 -282 OFFCURVE",
"652 -330 OFFCURVE",
"565 -342 CURVE SMOOTH",
"558 -343 OFFCURVE",
"551 -344 OFFCURVE",
"544 -344 CURVE SMOOTH",
"522 -344 LINE SMOOTH",
"451 -344 OFFCURVE",
"361 -322 OFFCURVE",
"270 -229 CURVE SMOOTH",
"210 -169 OFFCURVE",
"179 -111 OFFCURVE",
"161 -58 CURVE SMOOTH",
"143 -5 OFFCURVE",
"140 41 OFFCURVE",
"145 80 CURVE SMOOTH",
"154 167 OFFCURVE",
"199 251 OFFCURVE",
"279 332 CURVE SMOOTH",
"1036 1090 LINE SMOOTH",
"1143 1197 OFFCURVE",
"1230 1229 OFFCURVE",
"1300 1228 CURVE SMOOTH",
"1370 1227 OFFCURVE",
"1422 1192 OFFCURVE",
"1454 1159 CURVE SMOOTH",
"1495 1118 OFFCURVE",
"1526 1067 OFFCURVE",
"1525 997 CURVE SMOOTH",
"1524 927 OFFCURVE",
"1485 844 OFFCURVE",
"1384 743 CURVE SMOOTH",
"686 45 LINE",
"551 182 LINE",
"1247 879 LINE SMOOTH",
"1274 906 OFFCURVE",
"1294 929 OFFCURVE",
"1306 946 CURVE",
"1317 963 OFFCURVE",
"1325 977 OFFCURVE",
"1328 988 CURVE",
"1335 1010 OFFCURVE",
"1324 1019 OFFCURVE",
"1319 1024 CURVE",
"1316 1025 OFFCURVE",
"1312 1028 OFFCURVE",
"1307 1031 CURVE",
"1301 1034 OFFCURVE",
"1293 1035 OFFCURVE",
"1282 1032 CURVE SMOOTH",
"1271 1029 OFFCURVE",
"1257 1022 OFFCURVE",
"1239 1011 CURVE",
"1221 999 OFFCURVE",
"1199 980 OFFCURVE",
"1174 954 CURVE SMOOTH",
"416 197 LINE SMOOTH",
"383 164 OFFCURVE",
"341 112 OFFCURVE",
"336 57 CURVE SMOOTH",
"331 10 OFFCURVE",
"354 -40 OFFCURVE",
"406 -94 CURVE SMOOTH",
"440 -127 OFFCURVE",
"469 -145 OFFCURVE",
"492 -148 CURVE",
"515 -152 OFFCURVE",
"530 -153 OFFCURVE",
"539 -152 CURVE",
"586 -145 OFFCURVE",
"635 -115 OFFCURVE",
"686 -61 CURVE SMOOTH",
"1585 838 LINE SMOOTH",
"1733 983 OFFCURVE",
"1809 1145 OFFCURVE",
"1626 1333 CURVE SMOOTH",
"1577 1382 OFFCURVE",
"1512 1432 OFFCURVE",
"1430 1440 CURVE SMOOTH",
"1348 1448 OFFCURVE",
"1249 1414 OFFCURVE",
"1128 1294 CURVE SMOOTH",
"299 465 LINE SMOOTH",
"280 446 OFFCURVE",
"257 436 OFFCURVE",
"230 436 CURVE SMOOTH",
"203 436 OFFCURVE",
"181 446 OFFCURVE",
"162 465 CURVE SMOOTH"
);
}
);
width = 2048;
}
);
unicode = 0027;
},
{
glyphname = parenleft;
lastChange = "2012-07-03 13:53:28 +0000";
layers = (
{
layerId = "1730482B-7E8C-4DF6-A2D5-70B9989D176C";
name = Regular;
paths = (
{
closed = 1;
nodes = (
"0 477 LINE SMOOTH",
"0 548 OFFCURVE",
"56 606 OFFCURVE",
"127 606 CURVE SMOOTH",
"582 606 LINE SMOOTH",
"639 606 OFFCURVE",
"688 571 OFFCURVE",
"705 516 CURVE SMOOTH",
"752 377 OFFCURVE",
"876 283 OFFCURVE",
"1024 283 CURVE SMOOTH",
"1172 283 OFFCURVE",
"1299 377 OFFCURVE",
"1346 516 CURVE",
"1362 571 OFFCURVE",
"1411 606 OFFCURVE",
"1466 606 CURVE SMOOTH",
"1921 606 LINE SMOOTH",
"1992 606 OFFCURVE",
"2048 548 OFFCURVE",
"2048 477 CURVE SMOOTH",
"2048 -252 LINE SMOOTH",
"2048 -323 OFFCURVE",
"1992 -379 OFFCURVE",
"1921 -379 CURVE SMOOTH",
"127 -379 LINE SMOOTH",
"56 -379 OFFCURVE",
"0 -323 OFFCURVE",
"0 -252 CURVE SMOOTH"
);
},
{
closed = 1;
nodes = (
"646 1162 OFFCURVE",
"656 1169 OFFCURVE",
"670 1169 CURVE SMOOTH",
"836 1169 LINE",
"836 1616 LINE SMOOTH",
"836 1635 OFFCURVE",
"851 1649 OFFCURVE",
"870 1649 CURVE SMOOTH",
"1178 1649 LINE SMOOTH",
"1201 1649 OFFCURVE",
"1213 1638 OFFCURVE",
"1212 1616 CURVE",
"1212 1169 LINE",
"1378 1169 LINE SMOOTH",
"1405 1169 OFFCURVE",
"1423 1137 OFFCURVE",
"1407 1114 CURVE SMOOTH",
"1053 616 LINE",
"1046 607 OFFCURVE",
"1037 602 OFFCURVE",
"1026 602 CURVE SMOOTH",
"1014 602 OFFCURVE",
"1004 607 OFFCURVE",
"997 616 CURVE",
"641 1114 LINE",
"633 1127 OFFCURVE",
"632 1138 OFFCURVE",
"639 1149 CURVE"
);
}
);
width = 2052;
}
);
unicode = 0028;
},
{
glyphname = parenright;
lastChange = "2012-07-03 13:53:28 +0000";
layers = (
{
layerId = "1730482B-7E8C-4DF6-A2D5-70B9989D176C";
name = Regular;
paths = (
{
closed = 1;
nodes = (
"2 1477 LINE SMOOTH",
"2 1548 OFFCURVE",
"59 1602 OFFCURVE",
"127 1602 CURVE SMOOTH",
"1921 1602 LINE SMOOTH",
"1989 1602 OFFCURVE",
"2046 1548 OFFCURVE",
"2046 1477 CURVE SMOOTH",
"2046 -186 LINE SMOOTH",
"2046 -257 OFFCURVE",
"1989 -311 OFFCURVE",
"1921 -311 CURVE SMOOTH",
"127 -311 LINE SMOOTH",
"59 -311 OFFCURVE",
"2 -257 OFFCURVE",
"2 -186 CURVE SMOOTH"
);
},
{
closed = 1;
nodes = (
"254 -61 LINE",
"1794 -61 LINE",
"1794 1352 LINE",
"254 1352 LINE"
);
},
{
closed = 1;
nodes = (
"422 96 LINE",
"422 436 LINE",
"762 436 LINE",
"762 96 LINE"
);
},
{
closed = 1;
nodes = (
"422 545 LINE",
"1622 545 LINE",
"1622 1171 LINE",
"422 1171 LINE"
);
},
{
closed = 1;
nodes = (
"852 96 LINE",
"852 436 LINE",
"1192 436 LINE",
"1192 96 LINE"
);
},
{
closed = 1;
nodes = (
"1282 96 LINE",
"1282 436 LINE",
"1622 436 LINE",
"1622 96 LINE"
);
}
);
width = 2048;
}
);
unicode = 0029;
},
{
glyphname = asterisk;
lastChange = "2012-07-03 13:53:28 +0000";
layers = (
{
layerId = "1730482B-7E8C-4DF6-A2D5-70B9989D176C";
name = Regular;
paths = (
{
closed = 1;
nodes = (
"29 1137 LINE SMOOTH",
"29 1208 OFFCURVE",
"87 1268 OFFCURVE",
"162 1268 CURVE SMOOTH",
"303 1268 LINE",
"424 1419 LINE",
"441 1438 OFFCURVE",
"460 1448 OFFCURVE",
"483 1448 CURVE SMOOTH",
"834 1448 LINE SMOOTH",
"865 1448 OFFCURVE",
"888 1433 OFFCURVE",
"901 1403 CURVE",
"914 1384 OFFCURVE",
"963 1325 OFFCURVE",
"1012 1268 CURVE",
"1894 1268 LINE SMOOTH",
"1965 1268 OFFCURVE",
"2025 1208 OFFCURVE",
"2025 1137 CURVE SMOOTH",
"2025 -25 LINE SMOOTH",
"2025 -98 OFFCURVE",
"1966 -158 OFFCURVE",
"1894 -158 CURVE SMOOTH",
"162 -158 LINE SMOOTH",
"89 -158 OFFCURVE",
"29 -98 OFFCURVE",
"29 -25 CURVE SMOOTH"
);
}
);
width = 2048;
}
);
unicode = 002A;
},
{
glyphname = plus;
lastChange = "2012-07-03 13:53:28 +0000";
layers = (
{
layerId = "1730482B-7E8C-4DF6-A2D5-70B9989D176C";
name = Regular;
paths = (
{
closed = 1;
nodes = (
"116 -149 OFFCURVE",
"111 -124 OFFCURVE",
"111 -97 CURVE SMOOTH",
"111 -44 OFFCURVE",
"129 6 OFFCURVE",
"170 47 CURVE SMOOTH",
"510 387 LINE",
"414 538 OFFCURVE",
"377 715 OFFCURVE",
"395 887 CURVE SMOOTH",
"413 1059 OFFCURVE",
"487 1227 OFFCURVE",
"618 1358 CURVE SMOOTH",
"771 1509 OFFCURVE",
"972 1585 OFFCURVE",
"1172 1585 CURVE SMOOTH",
"1371 1585 OFFCURVE",
"1572 1507 OFFCURVE",
"1724 1358 CURVE SMOOTH",
"1877 1205 OFFCURVE",
"1954 1004 OFFCURVE",
"1954 805 CURVE SMOOTH",
"1954 605 OFFCURVE",
"1877 405 OFFCURVE",
"1724 252 CURVE SMOOTH",
"1601 129 OFFCURVE",
"1447 55 OFFCURVE",
"1286 31 CURVE SMOOTH",
"1125 6 OFFCURVE",
"959 34 OFFCURVE",
"811 111 CURVE",
"459 -242 LINE SMOOTH",
"418 -283 OFFCURVE",
"367 -301 OFFCURVE",
"314 -301 CURVE SMOOTH",
"261 -301 OFFCURVE",
"211 -282 OFFCURVE",
"170 -242 CURVE SMOOTH",
"149 -221 OFFCURVE",
"134 -199 OFFCURVE",
"125 -174 CURVE SMOOTH"
);
},
{
closed = 1;
nodes = (
"748 914 OFFCURVE",
"737 859 OFFCURVE",
"737 804 CURVE SMOOTH",
"737 693 OFFCURVE",
"780 582 OFFCURVE",
"864 498 CURVE SMOOTH",
"948 414 OFFCURVE",
"1059 371 OFFCURVE",
"1171 371 CURVE SMOOTH",
"1283 371 OFFCURVE",
"1394 413 OFFCURVE",
"1479 498 CURVE SMOOTH",
"1563 582 OFFCURVE",
"1606 693 OFFCURVE",
"1606 804 CURVE SMOOTH",
"1606 915 OFFCURVE",
"1563 1028 OFFCURVE",
"1479 1112 CURVE SMOOTH",
"1395 1196 OFFCURVE",
"1283 1237 OFFCURVE",
"1171 1237 CURVE SMOOTH",
"1059 1237 OFFCURVE",
"949 1197 OFFCURVE",
"864 1112 CURVE SMOOTH",
"822 1070 OFFCURVE",
"790 1022 OFFCURVE",
"769 968 CURVE SMOOTH"
);
}
);
width = 2048;
}
);
unicode = 002B;
},
{
glyphname = comma;
lastChange = "2012-07-03 13:53:28 +0000";
layers = (
{
layerId = "1730482B-7E8C-4DF6-A2D5-70B9989D176C";
name = Regular;
paths = (
{
closed = 1;
nodes = (
"47 1264 LINE SMOOTH",
"47 1332 OFFCURVE",
"103 1384 OFFCURVE",
"168 1384 CURVE SMOOTH",
"1880 1384 LINE SMOOTH",
"1948 1384 OFFCURVE",
"2001 1332 OFFCURVE",
"2001 1264 CURVE SMOOTH",
"2001 27 LINE SMOOTH",
"2001 -41 OFFCURVE",
"1948 -94 OFFCURVE",
"1880 -94 CURVE SMOOTH",
"168 -94 LINE SMOOTH",
"103 -94 OFFCURVE",
"47 -41 OFFCURVE",
"47 27 CURVE SMOOTH"
);
},
{
closed = 1;
nodes = (
"287 145 LINE",
"1761 145 LINE",
"1761 1145 LINE",
"287 1145 LINE"
);
},
{
closed = 1;
nodes = (
"805 305 LINE",
"1092 471 LINE",
"1380 639 LINE",
"1092 805 LINE",
"805 971 LINE",
"805 639 LINE"
);
}
);
width = 2048;
}
);
unicode = 002C;
},
{
glyphname = hyphen;
lastChange = "2012-07-03 13:53:28 +0000";
layers = (
{
layerId = "1730482B-7E8C-4DF6-A2D5-70B9989D176C";
name = Regular;
paths = (
{
closed = 1;
nodes = (
"74 1489 LINE SMOOTH",
"74 1549 OFFCURVE",
"122 1597 OFFCURVE",
"182 1597 CURVE SMOOTH",
"1870 1597 LINE SMOOTH",
"1933 1597 OFFCURVE",
"1980 1549 OFFCURVE",
"1980 1489 CURVE SMOOTH",
"1980 -199 LINE SMOOTH",
"1980 -259 OFFCURVE",
"1933 -307 OFFCURVE",
"1870 -307 CURVE SMOOTH",
"182 -307 LINE SMOOTH",
"122 -307 OFFCURVE",
"74 -259 OFFCURVE",
"74 -199 CURVE SMOOTH"
);
},
{
closed = 1;
nodes = (
"365 588 LINE",
"365 405 OFFCURVE",
"439 241 OFFCURVE",
"559 122 CURVE SMOOTH",
"679 3 OFFCURVE",
"843 -72 OFFCURVE",
"1026 -72 CURVE SMOOTH",
"1209 -72 OFFCURVE",
"1375 3 OFFCURVE",
"1495 122 CURVE SMOOTH",
"1615 241 OFFCURVE",
"1690 405 OFFCURVE",
"1690 588 CURVE"
);
},
{
closed = 1;
nodes = (
"492 973 OFFCURVE",
"515 920 OFFCURVE",
"552 884 CURVE SMOOTH",
"589 847 OFFCURVE",
"639 823 OFFCURVE",
"696 823 CURVE SMOOTH",
"753 823 OFFCURVE",
"806 847 OFFCURVE",
"843 884 CURVE SMOOTH",
"879 920 OFFCURVE",
"903 973 OFFCURVE",
"903 1030 CURVE SMOOTH",
"903 1087 OFFCURVE",
"879 1138 OFFCURVE",
"843 1175 CURVE SMOOTH",
"806 1211 OFFCURVE",
"753 1235 OFFCURVE",
"696 1235 CURVE SMOOTH",
"581 1235 OFFCURVE",
"492 1145 OFFCURVE",
"492 1030 CURVE SMOOTH"
);
},
{
closed = 1;
nodes = (
"1133 973 OFFCURVE",
"1156 920 OFFCURVE",
"1193 884 CURVE SMOOTH",
"1230 847 OFFCURVE",
"1280 823 OFFCURVE",
"1337 823 CURVE SMOOTH",
"1394 823 OFFCURVE",
"1447 847 OFFCURVE",
"1484 884 CURVE SMOOTH",
"1520 920 OFFCURVE",
"1544 973 OFFCURVE",
"1544 1030 CURVE SMOOTH",
"1544 1087 OFFCURVE",
"1520 1138 OFFCURVE",
"1484 1175 CURVE SMOOTH",
"1447 1211 OFFCURVE",
"1394 1235 OFFCURVE",
"1337 1235 CURVE SMOOTH",
"1222 1235 OFFCURVE",
"1133 1145 OFFCURVE",
"1133 1030 CURVE SMOOTH"
);
}
);
width = 2048;
}
);
unicode = 002D;
},
{
glyphname = period;
lastChange = "2012-07-03 13:53:28 +0000";
layers = (
{
layerId = "1730482B-7E8C-4DF6-A2D5-70B9989D176C";
name = Regular;
paths = (
{
closed = 1;
nodes = (
"113 1403 LINE SMOOTH",
"113 1466 OFFCURVE",
"160 1516 OFFCURVE",
"223 1516 CURVE SMOOTH",
"1825 1516 LINE SMOOTH",
"1888 1516 OFFCURVE",
"1935 1466 OFFCURVE",
"1935 1403 CURVE SMOOTH",
"1935 -113 LINE SMOOTH",
"1935 -176 OFFCURVE",
"1888 -225 OFFCURVE",
"1825 -225 CURVE SMOOTH",
"223 -225 LINE SMOOTH",
"160 -225 OFFCURVE",
"113 -176 OFFCURVE",
"113 -113 CURVE SMOOTH"
);
},
{
closed = 1;
nodes = (
"336 340 LINE",
"1712 340 LINE",
"1712 1290 LINE",
"336 1290 LINE"
);
}
);
width = 2048;
}
);
unicode = 002E;
},
{
glyphname = slash;
lastChange = "2012-07-03 13:53:28 +0000";
layers = (
{
layerId = "1730482B-7E8C-4DF6-A2D5-70B9989D176C";
name = Regular;
paths = (
{
closed = 1;
nodes = (
"37 1270 LINE SMOOTH",
"37 1338 OFFCURVE",
"93 1393 OFFCURVE",
"158 1393 CURVE SMOOTH",
"1890 1393 LINE SMOOTH",
"1955 1393 OFFCURVE",
"2011 1338 OFFCURVE",
"2011 1270 CURVE SMOOTH",
"2011 20 LINE SMOOTH",
"2011 -48 OFFCURVE",
"1955 -102 OFFCURVE",
"1890 -102 CURVE SMOOTH",
"158 -102 LINE SMOOTH",
"93 -102 OFFCURVE",
"37 -48 OFFCURVE",
"37 20 CURVE SMOOTH"
);
},
{
closed = 1;
nodes = (
"281 141 LINE",
"1767 141 LINE",
"1767 1149 LINE",
"281 1149 LINE"
);
},
{
closed = 1;
nodes = (
"377 412 LINE SMOOTH",
"338 381 OFFCURVE",
"334 326 OFFCURVE",
"365 289 CURVE SMOOTH",
"396 250 OFFCURVE",
"450 248 OFFCURVE",
"487 279 CURVE SMOOTH",
"635 399 LINE",
"756 279 LINE SMOOTH",
"773 262 OFFCURVE",
"792 254 OFFCURVE",
"815 254 CURVE SMOOTH",
"825 254 LINE",
"852 257 OFFCURVE",
"874 270 OFFCURVE",
"889 293 CURVE SMOOTH",
"1083 596 LINE",
"1219 311 LINE",
"1232 280 OFFCURVE",
"1262 262 OFFCURVE",
"1294 262 CURVE",
"1328 259 OFFCURVE",
"1354 274 OFFCURVE",
"1372 305 CURVE SMOOTH",
"1708 893 LINE",
"1729 937 OFFCURVE",
"1716 989 OFFCURVE",
"1675 1012 CURVE SMOOTH",
"1634 1036 OFFCURVE",
"1581 1023 OFFCURVE",
"1556 979 CURVE SMOOTH",
"1305 535 LINE",
"1174 811 LINE",
"1161 842 OFFCURVE",
"1137 859 OFFCURVE",
"1102 862 CURVE SMOOTH",
"1069 865 OFFCURVE",
"1041 849 OFFCURVE",
"1022 821 CURVE SMOOTH",
"801 477 LINE",
"700 578 LINE SMOOTH",
"669 609 OFFCURVE",
"619 611 OFFCURVE",
"584 584 CURVE"
);
}
);
width = 2048;
}
);
unicode = 002F;
},
{
glyphname = zero;
lastChange = "2012-07-03 13:53:28 +0000";
layers = (
{
layerId = "1730482B-7E8C-4DF6-A2D5-70B9989D176C";
name = Regular;
paths = (
{
closed = 1;
nodes = (
"2 1477 LINE SMOOTH",
"2 1548 OFFCURVE",
"59 1602 OFFCURVE",
"127 1602 CURVE SMOOTH",
"1921 1602 LINE SMOOTH",
"1989 1602 OFFCURVE",
"2046 1548 OFFCURVE",
"2046 1477 CURVE SMOOTH",
"2046 -186 LINE SMOOTH",
"2046 -257 OFFCURVE",
"1989 -311 OFFCURVE",
"1921 -311 CURVE SMOOTH",
"127 -311 LINE SMOOTH",
"59 -311 OFFCURVE",
"2 -257 OFFCURVE",
"2 -186 CURVE SMOOTH"
);
},
{
closed = 1;
nodes = (
"254 -61 LINE",
"1794 -61 LINE",
"1794 1352 LINE",
"254 1352 LINE"
);
},
{
closed = 1;
nodes = (
"422 96 LINE",
"422 436 LINE",
"762 436 LINE",
"762 96 LINE"
);
},
{
closed = 1;
nodes = (
"422 545 LINE",
"1622 545 LINE",
"1622 1171 LINE",
"422 1171 LINE"
);
},
{
closed = 1;
nodes = (
"852 96 LINE",
"852 436 LINE",
"1192 436 LINE",
"1192 96 LINE"
);
},
{
closed = 1;
nodes = (
"1282 96 LINE",
"1282 436 LINE",
"1622 436 LINE",
"1622 96 LINE"
);
}
);
width = 2048;
}
);
unicode = 0030;
},
{
glyphname = one;
lastChange = "2012-07-03 13:53:28 +0000";
layers = (
{
layerId = "1730482B-7E8C-4DF6-A2D5-70B9989D176C";
name = Regular;
paths = (
{
closed = 1;
nodes = (
"114 -284 OFFCURVE",
"120 -263 OFFCURVE",
"139 -252 CURVE",
"140 -251 OFFCURVE",
"154 -243 OFFCURVE",
"180 -230 CURVE SMOOTH",
"232 -204 OFFCURVE",
"345 -169 OFFCURVE",
"530 -139 CURVE SMOOTH",
"622 -124 OFFCURVE",
"736 -114 OFFCURVE",
"872 -109 CURVE",
"872 -2 LINE",
"395 -2 LINE SMOOTH",
"348 -2 OFFCURVE",
"313 33 OFFCURVE",
"313 80 CURVE SMOOTH",
"313 846 LINE SMOOTH",
"313 890 OFFCURVE",
"348 926 OFFCURVE",
"395 926 CURVE SMOOTH",
"475 926 LINE",
"475 829 LINE",
"580 829 LINE",
"580 1475 LINE SMOOTH",
"580 1483 OFFCURVE",
"588 1495 OFFCURVE",
"604 1511 CURVE SMOOTH",
"619 1526 OFFCURVE",
"644 1541 OFFCURVE",
"678 1556 CURVE",
"678 1253 LINE SMOOTH",
"678 1245 OFFCURVE",
"690 1208 OFFCURVE",
"723 1208 CURVE SMOOTH",
"756 1208 OFFCURVE",
"768 1245 OFFCURVE",
"768 1253 CURVE SMOOTH",
"768 1589 LINE",
"801 1597 OFFCURVE",
"837 1607 OFFCURVE",
"881 1612 CURVE",
"881 1253 LINE SMOOTH",
"881 1245 OFFCURVE",
"891 1208 OFFCURVE",
"924 1208 CURVE SMOOTH",
"957 1208 OFFCURVE",
"969 1245 OFFCURVE",
"969 1253 CURVE SMOOTH",
"969 1620 LINE",
"978 1620 OFFCURVE",
"988 1620 OFFCURVE",
"999 1621 CURVE SMOOTH",
"1009 1622 OFFCURVE",
"1019 1622 OFFCURVE",
"1030 1622 CURVE SMOOTH",
"1038 1622 OFFCURVE",
"1047 1622 OFFCURVE",
"1056 1621 CURVE SMOOTH",
"1065 1620 OFFCURVE",
"1073 1620 OFFCURVE",
"1081 1620 CURVE",
"1081 1253 LINE SMOOTH",
"1081 1245 OFFCURVE",
"1092 1208 OFFCURVE",
"1124 1208 CURVE SMOOTH",
"1157 1208 OFFCURVE",
"1169 1245 OFFCURVE",
"1169 1253 CURVE SMOOTH",
"1169 1612 LINE",
"1213 1607 OFFCURVE",
"1249 1599 OFFCURVE",
"1282 1591 CURVE",
"1282 1253 LINE SMOOTH",
"1282 1245 OFFCURVE",
"1292 1208 OFFCURVE",
"1325 1208 CURVE SMOOTH",
"1358 1208 OFFCURVE",
"1370 1245 OFFCURVE",
"1370 1253 CURVE SMOOTH",
"1370 1559 LINE",
"1404 1542 OFFCURVE",
"1428 1526 OFFCURVE",
"1443 1511 CURVE",
"1457 1495 OFFCURVE",
"1464 1483 OFFCURVE",
"1464 1475 CURVE SMOOTH",
"1464 829 LINE",
"1571 829 LINE",
"1571 926 LINE",
"1651 926 LINE SMOOTH",
"1698 926 OFFCURVE",
"1731 890 OFFCURVE",
"1731 846 CURVE SMOOTH",
"1731 80 LINE SMOOTH",
"1731 33 OFFCURVE",
"1698 -2 OFFCURVE",
"1651 -2 CURVE SMOOTH",
"1174 -2 LINE",
"1174 -109 LINE",
"1453 -117 OFFCURVE",
"1636 -152 OFFCURVE",
"1752 -184 CURVE SMOOTH",
"1810 -201 OFFCURVE",
"1852 -216 OFFCURVE",
"1878 -229 CURVE SMOOTH",
"1930 -257 OFFCURVE",
"1954 -258 OFFCURVE",
"1939 -305 CURVE SMOOTH",
"1932 -328 OFFCURVE",
"1917 -340 OFFCURVE",
"1894 -340 CURVE SMOOTH",
"166 -340 LINE SMOOTH",
"141 -340 OFFCURVE",
"126 -328 OFFCURVE",
"119 -305 CURVE"
);
},
{
closed = 1;
nodes = (
"475 160 LINE",
"1571 160 LINE",
"1571 680 LINE",
"1464 680 LINE",
"1464 375 LINE SMOOTH",
"1464 367 OFFCURVE",
"1457 356 OFFCURVE",
"1442 341 CURVE SMOOTH",
"1412 312 OFFCURVE",
"1347 279 OFFCURVE",
"1236 258 CURVE SMOOTH",
"1181 247 OFFCURVE",
"1113 242 OFFCURVE",
"1032 242 CURVE SMOOTH",
"871 242 OFFCURVE",
"757 267 OFFCURVE",
"685 297 CURVE SMOOTH",
"649 312 OFFCURVE",
"623 326 OFFCURVE",
"606 341 CURVE SMOOTH",
"589 355 OFFCURVE",
"580 366 OFFCURVE",
"580 375 CURVE SMOOTH",
"580 680 LINE",
"475 680 LINE"
);
}
);
width = 2048;
}
);
unicode = 0031;
},
{
glyphname = two;
lastChange = "2012-07-03 13:53:28 +0000";
layers = (
{
layerId = "1730482B-7E8C-4DF6-A2D5-70B9989D176C";
name = Regular;
paths = (
{
closed = 1;
nodes = (
"12 1511 OFFCURVE",
"54 1552 OFFCURVE",
"109 1552 CURVE SMOOTH",
"391 1552 LINE",
"1479 1552 LINE",
"1927 1552 LINE SMOOTH",
"1987 1552 OFFCURVE",
"2032 1500 OFFCURVE",
"2023 1440 CURVE SMOOTH",
"1870 541 LINE SMOOTH",
"1862 494 OFFCURVE",
"1821 459 OFFCURVE",
"1776 459 CURVE SMOOTH",
"707 459 LINE SMOOTH",
"706 459 OFFCURVE",
"704 460 OFFCURVE",
"702 461 CURVE",
"530 248 LINE",
"1808 248 LINE SMOOTH",
"1863 248 OFFCURVE",
"1905 207 OFFCURVE",
"1905 152 CURVE SMOOTH",
"1905 100 OFFCURVE",
"1863 57 OFFCURVE",
"1808 57 CURVE SMOOTH",
"330 57 LINE SMOOTH",
"251 57 OFFCURVE",
"204 153 OFFCURVE",
"256 213 CURVE",
"582 618 LINE",
"322 1360 LINE",
"109 1360 LINE SMOOTH",
"54 1360 OFFCURVE",
"12 1401 OFFCURVE",
"12 1456 CURVE SMOOTH"
);
},
{
closed = 1;
nodes = (
"221 -52 OFFCURVE",
"287 14 OFFCURVE",
"367 14 CURVE SMOOTH",
"446 14 OFFCURVE",
"512 -52 OFFCURVE",
"512 -131 CURVE SMOOTH",
"512 -210 OFFCURVE",
"446 -276 OFFCURVE",
"367 -276 CURVE SMOOTH",
"288 -276 OFFCURVE",
"221 -210 OFFCURVE",
"221 -131 CURVE SMOOTH"
);
},
{
closed = 1;
nodes = (
"526 1360 LINE",
"582 1202 LINE",
"897 1202 LINE",
"879 1360 LINE"
);
},
{
closed = 1;
nodes = (
"627 1073 LINE",
"678 926 LINE",
"930 926 LINE",
"911 1073 LINE"
);
},
{
closed = 1;
nodes = (
"723 799 LINE",
"774 651 LINE",
"961 651 LINE",
"944 799 LINE"
);
},
{
closed = 1;
nodes = (
"1008 1360 LINE",
"1026 1202 LINE",
"1386 1202 LINE",
"1405 1360 LINE"
);
},
{
closed = 1;
nodes = (
"1040 1073 LINE",
"1059 926 LINE",
"1354 926 LINE",
"1372 1073 LINE"
);
},
{
closed = 1;
nodes = (
"1073 799 LINE",
"1090 651 LINE",
"1323 651 LINE",
"1339 799 LINE"
);
},
{
closed = 1;
nodes = (
"1452 651 LINE",
"1694 651 LINE",
"1718 799 LINE",
"1468 799 LINE"
);
},
{
closed = 1;
nodes = (
"1483 926 LINE",
"1741 926 LINE",
"1765 1073 LINE",
"1499 1073 LINE"
);
},
{
closed = 1;
nodes = (
"1516 1202 LINE",
"1788 1202 LINE",
"1815 1360 LINE",
"1534 1360 LINE"
);
},
{
closed = 1;
nodes = (
"1552 -52 OFFCURVE",
"1615 14 OFFCURVE",
"1698 14 CURVE SMOOTH",
"1777 14 OFFCURVE",
"1843 -52 OFFCURVE",
"1843 -131 CURVE SMOOTH",
"1843 -210 OFFCURVE",
"1777 -276 OFFCURVE",
"1698 -276 CURVE SMOOTH",
"1617 -276 OFFCURVE",
"1552 -210 OFFCURVE",
"1552 -131 CURVE SMOOTH"
);
}
);
width = 2048;
}
);
unicode = 0032;
},
{
glyphname = three;
lastChange = "2012-07-03 13:53:28 +0000";
layers = (
{
layerId = "1730482B-7E8C-4DF6-A2D5-70B9989D176C";
name = Regular;
paths = (
{
closed = 1;
nodes = (
"31 1542 LINE SMOOTH",
"31 1597 OFFCURVE",
"72 1638 OFFCURVE",
"127 1638 CURVE SMOOTH",
"1726 1638 LINE SMOOTH",
"1781 1638 OFFCURVE",
"1823 1597 OFFCURVE",
"1823 1542 CURVE SMOOTH",
"1823 1495 LINE",
"1960 1495 LINE SMOOTH",
"1993 1495 OFFCURVE",
"2019 1468 OFFCURVE",
"2019 1436 CURVE SMOOTH",
"2019 1257 LINE SMOOTH",
"2019 1224 OFFCURVE",
"1993 1198 OFFCURVE",
"1960 1198 CURVE SMOOTH",
"1823 1198 LINE",
"1823 1028 LINE",
"1960 1028 LINE SMOOTH",
"1993 1028 OFFCURVE",
"2019 1001 OFFCURVE",
"2019 969 CURVE SMOOTH",
"2019 791 LINE SMOOTH",
"2019 758 OFFCURVE",
"1993 731 OFFCURVE",
"1960 731 CURVE SMOOTH",
"1823 731 LINE",
"1823 561 LINE",
"1960 561 LINE SMOOTH",
"1993 561 OFFCURVE",
"2019 534 OFFCURVE",
"2019 502 CURVE SMOOTH",
"2019 324 LINE SMOOTH",
"2019 291 OFFCURVE",
"1993 264 OFFCURVE",
"1960 264 CURVE SMOOTH",
"1823 264 LINE",
"1823 94 LINE",
"1960 94 LINE SMOOTH",
"1993 94 OFFCURVE",
"2019 68 OFFCURVE",
"2019 33 CURVE SMOOTH",
"2019 -143 LINE SMOOTH",
"2019 -176 OFFCURVE",
"1993 -203 OFFCURVE",
"1960 -203 CURVE SMOOTH",
"1823 -203 LINE",
"1823 -254 LINE SMOOTH",
"1823 -306 OFFCURVE",
"1781 -348 OFFCURVE",
"1726 -348 CURVE SMOOTH",
"127 -348 LINE SMOOTH",
"72 -348 OFFCURVE",
"31 -306 OFFCURVE",
"31 -254 CURVE SMOOTH"
);
},
{
closed = 1;
nodes = (
"455 236 LINE SMOOTH",
"455 200 OFFCURVE",
"477 172 OFFCURVE",
"508 172 CURVE SMOOTH",
"1341 172 LINE SMOOTH",
"1372 172 OFFCURVE",
"1397 200 OFFCURVE",
"1397 236 CURVE SMOOTH",
"1397 494 LINE SMOOTH",
"1397 520 OFFCURVE",
"1385 539 OFFCURVE",
"1362 551 CURVE SMOOTH",
"1040 705 LINE",
"1113 752 OFFCURVE",
"1165 845 OFFCURVE",
"1165 952 CURVE SMOOTH",
"1165 1028 OFFCURVE",
"1139 1099 OFFCURVE",
"1096 1150 CURVE SMOOTH",
"1052 1201 OFFCURVE",
"991 1233 OFFCURVE",
"926 1233 CURVE SMOOTH",
"861 1233 OFFCURVE",
"799 1201 OFFCURVE",
"756 1150 CURVE SMOOTH",
"712 1099 OFFCURVE",
"684 1029 OFFCURVE",
"684 952 CURVE SMOOTH",
"684 843 OFFCURVE",
"736 749 OFFCURVE",
"815 702 CURVE",
"489 551 LINE",
"468 543 OFFCURVE",
"455 518 OFFCURVE",
"455 494 CURVE SMOOTH"
);
}
);
width = 2048;
}
);
unicode = 0033;
},
{
glyphname = four;
lastChange = "2012-07-03 13:53:28 +0000";
layers = (
{
layerId = "1730482B-7E8C-4DF6-A2D5-70B9989D176C";
name = Regular;
paths = (
{
closed = 1;
nodes = (
"57 910 OFFCURVE",
"165 1152 OFFCURVE",
"341 1328 CURVE SMOOTH",
"517 1504 OFFCURVE",
"756 1612 OFFCURVE",
"1024 1612 CURVE SMOOTH",
"1289 1612 OFFCURVE",
"1531 1504 OFFCURVE",
"1707 1328 CURVE SMOOTH",
"1883 1152 OFFCURVE",
"1991 910 OFFCURVE",
"1991 645 CURVE SMOOTH",
"1991 377 OFFCURVE",
"1883 138 OFFCURVE",
"1707 -38 CURVE SMOOTH",
"1531 -214 OFFCURVE",
"1289 -322 OFFCURVE",
"1024 -322 CURVE SMOOTH",
"756 -322 OFFCURVE",
"517 -214 OFFCURVE",
"341 -38 CURVE SMOOTH",
"165 138 OFFCURVE",
"57 377 OFFCURVE",
"57 645 CURVE SMOOTH"
);
},
{
closed = 1;
nodes = (
"313 449 OFFCURVE",
"394 272 OFFCURVE",
"522 144 CURVE SMOOTH",
"650 15 OFFCURVE",
"828 -66 OFFCURVE",
"1024 -66 CURVE SMOOTH",
"1220 -66 OFFCURVE",
"1398 15 OFFCURVE",
"1526 144 CURVE SMOOTH",
"1654 272 OFFCURVE",
"1735 449 OFFCURVE",
"1735 645 CURVE SMOOTH",
"1735 841 OFFCURVE",
"1654 1019 OFFCURVE",
"1526 1147 CURVE SMOOTH",
"1398 1275 OFFCURVE",
"1220 1356 OFFCURVE",
"1024 1356 CURVE SMOOTH",
"828 1356 OFFCURVE",
"650 1275 OFFCURVE",
"522 1147 CURVE SMOOTH",
"394 1019 OFFCURVE",
"313 841 OFFCURVE",
"313 645 CURVE SMOOTH"
);
},
{
closed = 1;
nodes = (
"586 209 LINE",
"569 222 OFFCURVE",
"566 247 OFFCURVE",
"578 268 CURVE SMOOTH",
"883 774 LINE SMOOTH",
"888 782 OFFCURVE",
"894 788 OFFCURVE",
"899 791 CURVE SMOOTH",
"1403 1092 LINE SMOOTH",
"1422 1103 OFFCURVE",
"1447 1100 OFFCURVE",
"1460 1083 CURVE",
"1479 1064 OFFCURVE",
"1483 1044 OFFCURVE",
"1470 1024 CURVE",
"1169 520 LINE SMOOTH",
"1166 515 OFFCURVE",
"1161 509 OFFCURVE",
"1153 504 CURVE SMOOTH",
"645 199 LINE SMOOTH",
"638 195 OFFCURVE",
"630 193 OFFCURVE",
"621 193 CURVE SMOOTH",
"608 193 OFFCURVE",
"597 198 OFFCURVE",
"588 207 CURVE SMOOTH"
);
}
);
width = 2048;
}
);
unicode = 0034;
},
{
glyphname = five;
lastChange = "2012-07-03 13:53:28 +0000";
layers = (
{
layerId = "1730482B-7E8C-4DF6-A2D5-70B9989D176C";
name = Regular;
paths = (
{
closed = 1;
nodes = (
"113 547 LINE",
"113 954 LINE",
"113 1380 LINE SMOOTH",
"113 1389 OFFCURVE",
"128 1406 OFFCURVE",
"158 1430 CURVE SMOOTH",
"218 1478 OFFCURVE",
"319 1533 OFFCURVE",
"445 1576 CURVE SMOOTH",
"571 1619 OFFCURVE",
"705 1631 OFFCURVE",
"834 1597 CURVE SMOOTH",
"898 1580 OFFCURVE",
"956 1545 OFFCURVE",
"1008 1493 CURVE SMOOTH",
"1112 1389 OFFCURVE",
"1227 1352 OFFCURVE",
"1339 1351 CURVE SMOOTH",
"1451 1350 OFFCURVE",
"1560 1380 OFFCURVE",
"1646 1416 CURVE SMOOTH",
"1689 1433 OFFCURVE",
"1726 1450 OFFCURVE",
"1757 1465 CURVE SMOOTH",
"1820 1495 OFFCURVE",
"1849 1504 OFFCURVE",
"1877 1493 CURVE SMOOTH",
"1905 1482 OFFCURVE",
"1921 1458 OFFCURVE",
"1929 1427 CURVE SMOOTH",
"1933 1411 OFFCURVE",
"1935 1395 OFFCURVE",
"1935 1380 CURVE SMOOTH",
"1935 637 LINE SMOOTH",
"1935 541 OFFCURVE",
"1925 514 OFFCURVE",
"1878 481 CURVE SMOOTH",
"1823 442 OFFCURVE",
"1741 393 OFFCURVE",
"1643 355 CURVE SMOOTH",
"1545 317 OFFCURVE",
"1433 289 OFFCURVE",
"1322 296 CURVE SMOOTH",
"1211 303 OFFCURVE",
"1100 342 OFFCURVE",
"1008 434 CURVE SMOOTH",
"896 546 OFFCURVE",
"776 585 OFFCURVE",
"664 588 CURVE SMOOTH",
"552 591 OFFCURVE",
"448 556 OFFCURVE",
"369 520 CURVE",
"369 -199 LINE SMOOTH",
"369 -270 OFFCURVE",
"311 -326 OFFCURVE",
"240 -326 CURVE SMOOTH",
"169 -326 OFFCURVE",
"113 -270 OFFCURVE",
"113 -199 CURVE SMOOTH"
);
}
);
width = 2048;
}
);
unicode = 0035;
},
{
glyphname = six;
lastChange = "2012-07-03 13:53:28 +0000";
layers = (
{
layerId = "1730482B-7E8C-4DF6-A2D5-70B9989D176C";
name = Regular;
paths = (
{
closed = 1;
nodes = (
"317 872 LINE SMOOTH",
"317 1068 OFFCURVE",
"398 1250 OFFCURVE",
"527 1380 CURVE SMOOTH",
"655 1510 OFFCURVE",
"836 1591 OFFCURVE",
"1032 1591 CURVE SMOOTH",
"1034 1591 LINE",
"1036 1591 LINE SMOOTH",
"1232 1591 OFFCURVE",
"1414 1510 OFFCURVE",
"1542 1380 CURVE SMOOTH",
"1670 1250 OFFCURVE",
"1751 1069 OFFCURVE",
"1751 872 CURVE",
"1750 872 OFFCURVE",
"1749 871 OFFCURVE",
"1749 870 CURVE",
"1751 870 LINE",
"1750 866 OFFCURVE",
"1749 861 OFFCURVE",
"1749 854 CURVE SMOOTH",
"1749 844 LINE",
"1746 803 OFFCURVE",
"1741 760 OFFCURVE",
"1733 719 CURVE SMOOTH",
"1722 664 OFFCURVE",
"1674 557 OFFCURVE",
"1607 434 CURVE SMOOTH",
"1539 311 OFFCURVE",
"1460 173 OFFCURVE",
"1389 61 CURVE SMOOTH",
"1353 5 OFFCURVE",
"1321 -43 OFFCURVE",
"1293 -84 CURVE SMOOTH",
"1237 -165 OFFCURVE",
"1218 -180 OFFCURVE",
"1178 -214 CURVE SMOOTH",
"1137 -248 OFFCURVE",
"1098 -277 OFFCURVE",
"1066 -293 CURVE SMOOTH",
"1050 -301 OFFCURVE",
"1039 -305 OFFCURVE",
"1034 -305 CURVE SMOOTH",
"1027 -305 OFFCURVE",
"1017 -301 OFFCURVE",
"1002 -293 CURVE SMOOTH",
"972 -277 OFFCURVE",
"930 -247 OFFCURVE",
"889 -212 CURVE SMOOTH",
"848 -177 OFFCURVE",
"832 -166 OFFCURVE",
"777 -85 CURVE SMOOTH",
"721 -5 OFFCURVE",
"649 110 OFFCURVE",
"571 242 CURVE SMOOTH",
"493 373 OFFCURVE",
"426 501 OFFCURVE",
"378 602 CURVE SMOOTH",
"354 653 OFFCURVE",
"340 692 OFFCURVE",
"336 719 CURVE",
"328 760 OFFCURVE",
"323 803 OFFCURVE",
"319 844 CURVE",
"319 854 LINE SMOOTH",
"319 857 OFFCURVE",
"319 859 OFFCURVE",
"318 862 CURVE SMOOTH",
"317 865 OFFCURVE",
"317 867 OFFCURVE",
"317 870 CURVE SMOOTH"
);
},
{
closed = 1;
nodes = (
"743 802 OFFCURVE",
"775 728 OFFCURVE",
"827 675 CURVE SMOOTH",
"879 622 OFFCURVE",
"953 590 OFFCURVE",
"1032 590 CURVE SMOOTH",
"1111 590 OFFCURVE",
"1185 622 OFFCURVE",
"1237 675 CURVE SMOOTH",
"1289 728 OFFCURVE",
"1321 801 OFFCURVE",
"1321 881 CURVE SMOOTH",
"1321 960 OFFCURVE",
"1289 1034 OFFCURVE",
"1237 1086 CURVE SMOOTH",
"1185 1137 OFFCURVE",
"1112 1169 OFFCURVE",
"1032 1169 CURVE SMOOTH",
"953 1169 OFFCURVE",
"879 1137 OFFCURVE",
"827 1086 CURVE SMOOTH",
"775 1034 OFFCURVE",
"743 960 OFFCURVE",
"743 881 CURVE SMOOTH"
);
}
);
width = 2048;
}
);
unicode = 0036;
},
{
glyphname = seven;
lastChange = "2012-07-03 13:53:28 +0000";
layers = (
{
layerId = "1730482B-7E8C-4DF6-A2D5-70B9989D176C";
name = Regular;
paths = (
{
closed = 1;
nodes = (
"57 910 OFFCURVE",
"165 1152 OFFCURVE",
"341 1328 CURVE SMOOTH",
"517 1504 OFFCURVE",
"756 1612 OFFCURVE",
"1024 1612 CURVE SMOOTH",
"1289 1612 OFFCURVE",
"1531 1504 OFFCURVE",
"1707 1328 CURVE SMOOTH",
"1883 1152 OFFCURVE",
"1991 910 OFFCURVE",
"1991 645 CURVE SMOOTH",
"1991 377 OFFCURVE",
"1883 138 OFFCURVE",
"1707 -38 CURVE SMOOTH",
"1531 -214 OFFCURVE",
"1289 -322 OFFCURVE",
"1024 -322 CURVE SMOOTH",
"756 -322 OFFCURVE",
"517 -214 OFFCURVE",
"341 -38 CURVE SMOOTH",
"165 138 OFFCURVE",
"57 377 OFFCURVE",
"57 645 CURVE SMOOTH"
);
},
{
closed = 1;
nodes = (
"313 449 OFFCURVE",
"394 272 OFFCURVE",
"522 144 CURVE SMOOTH",
"650 15 OFFCURVE",
"828 -66 OFFCURVE",
"1024 -66 CURVE SMOOTH",
"1220 -66 OFFCURVE",
"1398 15 OFFCURVE",
"1526 144 CURVE SMOOTH",
"1654 272 OFFCURVE",
"1735 449 OFFCURVE",
"1735 645 CURVE SMOOTH",
"1735 841 OFFCURVE",
"1654 1019 OFFCURVE",
"1526 1147 CURVE SMOOTH",
"1398 1275 OFFCURVE",
"1220 1356 OFFCURVE",
"1024 1356 CURVE SMOOTH",
"828 1356 OFFCURVE",
"650 1275 OFFCURVE",
"522 1147 CURVE SMOOTH",
"394 1019 OFFCURVE",
"313 841 OFFCURVE",
"313 645 CURVE SMOOTH"
);
},
{
closed = 1;
nodes = (
"662 838 OFFCURVE",
"667 851 OFFCURVE",
"676 860 CURVE SMOOTH",
"776 961 LINE SMOOTH",
"785 970 OFFCURVE",
"797 975 OFFCURVE",
"812 975 CURVE SMOOTH",
"827 975 OFFCURVE",
"839 970 OFFCURVE",
"848 961 CURVE SMOOTH",
"1024 782 LINE",
"1346 1104 LINE SMOOTH",
"1365 1123 OFFCURVE",
"1398 1125 OFFCURVE",
"1417 1104 CURVE",
"1518 1004 LINE",
"1529 995 OFFCURVE",
"1534 983 OFFCURVE",
"1534 969 CURVE SMOOTH",
"1534 955 OFFCURVE",
"1529 943 OFFCURVE",
"1518 932 CURVE SMOOTH",
"1061 475 LINE",
"1053 466 OFFCURVE",
"1041 461 OFFCURVE",
"1026 461 CURVE SMOOTH",
"1024 461 LINE SMOOTH",
"1009 461 OFFCURVE",
"996 466 OFFCURVE",
"987 475 CURVE SMOOTH",
"676 786 LINE SMOOTH",
"667 795 OFFCURVE",
"662 808 OFFCURVE",
"662 823 CURVE SMOOTH"
);
}
);
width = 2048;
}
);
unicode = 0037;
},
{
glyphname = eight;
lastChange = "2012-07-03 13:53:28 +0000";
layers = (
{
layerId = "1730482B-7E8C-4DF6-A2D5-70B9989D176C";
name = Regular;
paths = (
{
closed = 1;
nodes = (
"29 1137 LINE SMOOTH",
"29 1208 OFFCURVE",
"87 1268 OFFCURVE",
"162 1268 CURVE SMOOTH",
"303 1268 LINE",
"424 1419 LINE",
"441 1438 OFFCURVE",
"460 1448 OFFCURVE",
"483 1448 CURVE SMOOTH",
"834 1448 LINE SMOOTH",
"865 1448 OFFCURVE",
"888 1433 OFFCURVE",
"901 1403 CURVE",
"914 1384 OFFCURVE",
"963 1325 OFFCURVE",
"1012 1268 CURVE",
"1894 1268 LINE SMOOTH",
"1965 1268 OFFCURVE",
"2025 1208 OFFCURVE",
"2025 1137 CURVE SMOOTH",
"2025 -25 LINE SMOOTH",
"2025 -98 OFFCURVE",
"1966 -158 OFFCURVE",
"1894 -158 CURVE SMOOTH",
"162 -158 LINE SMOOTH",
"89 -158 OFFCURVE",
"29 -98 OFFCURVE",
"29 -25 CURVE SMOOTH"
);
}
);
width = 2048;
}
);
unicode = 0038;
},
{
glyphname = nine;
lastChange = "2012-07-03 13:53:28 +0000";
layers = (
{
layerId = "1730482B-7E8C-4DF6-A2D5-70B9989D176C";
name = Regular;
paths = (
{
closed = 1;
nodes = (
"0 477 LINE SMOOTH",
"0 548 OFFCURVE",
"56 606 OFFCURVE",
"127 606 CURVE SMOOTH",
"582 606 LINE SMOOTH",
"639 606 OFFCURVE",
"688 571 OFFCURVE",
"705 516 CURVE SMOOTH",
"752 377 OFFCURVE",
"876 283 OFFCURVE",
"1024 283 CURVE SMOOTH",
"1172 283 OFFCURVE",
"1299 377 OFFCURVE",
"1346 516 CURVE",
"1362 571 OFFCURVE",
"1411 606 OFFCURVE",
"1466 606 CURVE SMOOTH",
"1921 606 LINE SMOOTH",
"1992 606 OFFCURVE",
"2048 548 OFFCURVE",
"2048 477 CURVE SMOOTH",
"2048 -252 LINE SMOOTH",
"2048 -323 OFFCURVE",
"1992 -379 OFFCURVE",
"1921 -379 CURVE SMOOTH",
"127 -379 LINE SMOOTH",
"56 -379 OFFCURVE",
"0 -323 OFFCURVE",
"0 -252 CURVE SMOOTH"
);
},
{
closed = 1;
nodes = (
"646 1162 OFFCURVE",
"656 1169 OFFCURVE",
"670 1169 CURVE SMOOTH",
"836 1169 LINE",
"836 1616 LINE SMOOTH",
"836 1635 OFFCURVE",
"851 1649 OFFCURVE",
"870 1649 CURVE SMOOTH",
"1178 1649 LINE SMOOTH",
"1201 1649 OFFCURVE",
"1213 1638 OFFCURVE",
"1212 1616 CURVE",
"1212 1169 LINE",
"1378 1169 LINE SMOOTH",
"1405 1169 OFFCURVE",
"1423 1137 OFFCURVE",
"1407 1114 CURVE SMOOTH",
"1053 616 LINE",
"1046 607 OFFCURVE",
"1037 602 OFFCURVE",
"1026 602 CURVE SMOOTH",
"1014 602 OFFCURVE",
"1004 607 OFFCURVE",
"997 616 CURVE",
"641 1114 LINE",
"633 1127 OFFCURVE",
"632 1138 OFFCURVE",
"639 1149 CURVE"
);
}
);
width = 2052;
}
);
unicode = 0039;
},
{
glyphname = colon;
lastChange = "2012-07-03 13:53:28 +0000";
layers = (
{
layerId = "1730482B-7E8C-4DF6-A2D5-70B9989D176C";
name = Regular;
paths = (
{
closed = 1;
nodes = (
"63 910 OFFCURVE",
"172 1151 OFFCURVE",
"345 1324 CURVE SMOOTH",
"518 1497 OFFCURVE",
"759 1606 OFFCURVE",
"1024 1606 CURVE SMOOTH",
"1289 1606 OFFCURVE",
"1525 1498 OFFCURVE",
"1700 1323 CURVE",
"1712 1333 LINE",
"1874 1448 LINE SMOOTH",
"1886 1457 OFFCURVE",
"1900 1459 OFFCURVE",
"1917 1452 CURVE",
"1932 1443 OFFCURVE",
"1940 1430 OFFCURVE",
"1939 1415 CURVE",
"1942 688 LINE SMOOTH",
"1942 661 OFFCURVE",
"1914 641 OFFCURVE",
"1886 649 CURVE",
"1198 885 LINE SMOOTH",
"1165 896 OFFCURVE",
"1158 939 OFFCURVE",
"1186 956 CURVE",
"1348 1071 LINE",
"1374 1092 LINE",
"1278 1168 OFFCURVE",
"1157 1212 OFFCURVE",
"1024 1212 CURVE SMOOTH",
"868 1212 OFFCURVE",
"726 1148 OFFCURVE",
"624 1046 CURVE SMOOTH",
"522 944 OFFCURVE",
"457 801 OFFCURVE",
"457 645 CURVE SMOOTH",
"457 489 OFFCURVE",
"522 348 OFFCURVE",
"624 245 CURVE SMOOTH",
"726 142 OFFCURVE",
"868 78 OFFCURVE",
"1024 78 CURVE SMOOTH",
"1215 78 OFFCURVE",
"1391 169 OFFCURVE",
"1495 328 CURVE SMOOTH",
"1511 352 OFFCURVE",
"1544 358 OFFCURVE",
"1567 342 CURVE SMOOTH",
"1808 174 LINE",
"1817 169 OFFCURVE",
"1824 158 OFFCURVE",
"1827 143 CURVE",
"1831 132 OFFCURVE",
"1829 121 OFFCURVE",
"1821 109 CURVE SMOOTH",
"1730 -24 OFFCURVE",
"1611 -132 OFFCURVE",
"1475 -204 CURVE SMOOTH",
"1338 -276 OFFCURVE",
"1183 -315 OFFCURVE",
"1024 -315 CURVE SMOOTH",
"759 -315 OFFCURVE",
"518 -207 OFFCURVE",
"345 -34 CURVE SMOOTH",
"172 139 OFFCURVE",
"63 380 OFFCURVE",
"63 645 CURVE SMOOTH"
);
}
);
width = 2048;
}
);
unicode = 003A;
},
{
glyphname = semicolon;
lastChange = "2012-07-03 13:53:28 +0000";
layers = (
{
layerId = "1730482B-7E8C-4DF6-A2D5-70B9989D176C";
name = Regular;
paths = (
{
closed = 1;
nodes = (
"63 910 OFFCURVE",
"172 1151 OFFCURVE",
"345 1324 CURVE SMOOTH",
"518 1497 OFFCURVE",
"759 1606 OFFCURVE",
"1024 1606 CURVE SMOOTH",
"1289 1606 OFFCURVE",
"1525 1498 OFFCURVE",
"1700 1323 CURVE",
"1712 1333 LINE",
"1874 1448 LINE SMOOTH",
"1886 1457 OFFCURVE",
"1900 1459 OFFCURVE",
"1917 1452 CURVE",
"1932 1443 OFFCURVE",
"1940 1430 OFFCURVE",
"1939 1415 CURVE",
"1942 688 LINE SMOOTH",
"1942 661 OFFCURVE",
"1914 641 OFFCURVE",
"1886 649 CURVE",
"1198 885 LINE SMOOTH",
"1165 896 OFFCURVE",
"1158 939 OFFCURVE",
"1186 956 CURVE",
"1348 1071 LINE",
"1374 1092 LINE",
"1278 1168 OFFCURVE",
"1157 1212 OFFCURVE",
"1024 1212 CURVE SMOOTH",
"868 1212 OFFCURVE",
"726 1148 OFFCURVE",
"624 1046 CURVE SMOOTH",
"522 944 OFFCURVE",
"457 801 OFFCURVE",
"457 645 CURVE SMOOTH",
"457 489 OFFCURVE",
"522 348 OFFCURVE",
"624 245 CURVE SMOOTH",
"726 142 OFFCURVE",
"868 78 OFFCURVE",
"1024 78 CURVE SMOOTH",
"1215 78 OFFCURVE",
"1391 169 OFFCURVE",
"1495 328 CURVE SMOOTH",
"1511 352 OFFCURVE",
"1544 358 OFFCURVE",
"1567 342 CURVE SMOOTH",
"1808 174 LINE",
"1817 169 OFFCURVE",
"1824 158 OFFCURVE",
"1827 143 CURVE",
"1831 132 OFFCURVE",
"1829 121 OFFCURVE",
"1821 109 CURVE SMOOTH",
"1730 -24 OFFCURVE",
"1611 -132 OFFCURVE",
"1475 -204 CURVE SMOOTH",
"1338 -276 OFFCURVE",
"1183 -315 OFFCURVE",
"1024 -315 CURVE SMOOTH",
"759 -315 OFFCURVE",
"518 -207 OFFCURVE",
"345 -34 CURVE SMOOTH",
"172 139 OFFCURVE",
"63 380 OFFCURVE",
"63 645 CURVE SMOOTH"
);
}
);
width = 2048;
}
);
unicode = 003B;
},
{
glyphname = less;
lastChange = "2012-07-03 13:53:28 +0000";
layers = (
{
layerId = "1730482B-7E8C-4DF6-A2D5-70B9989D176C";
name = Regular;
paths = (
{
closed = 1;
nodes = (
"47 1264 LINE SMOOTH",
"47 1332 OFFCURVE",
"103 1384 OFFCURVE",
"168 1384 CURVE SMOOTH",
"1880 1384 LINE SMOOTH",
"1948 1384 OFFCURVE",
"2001 1332 OFFCURVE",
"2001 1264 CURVE SMOOTH",
"2001 27 LINE SMOOTH",
"2001 -41 OFFCURVE",
"1948 -94 OFFCURVE",
"1880 -94 CURVE SMOOTH",
"168 -94 LINE SMOOTH",
"103 -94 OFFCURVE",
"47 -41 OFFCURVE",
"47 27 CURVE SMOOTH"
);
},
{
closed = 1;
nodes = (
"287 145 LINE",
"1761 145 LINE",
"1761 1145 LINE",
"287 1145 LINE"
);
},
{
closed = 1;
nodes = (
"805 305 LINE",
"1092 471 LINE",
"1380 639 LINE",
"1092 805 LINE",
"805 971 LINE",
"805 639 LINE"
);
}
);
width = 2048;
}
);
unicode = 003C;
},
{
glyphname = equal;
lastChange = "2012-07-03 13:53:28 +0000";
layers = (
{
layerId = "1730482B-7E8C-4DF6-A2D5-70B9989D176C";
name = Regular;
paths = (
{
closed = 1;
nodes = (
"116 -149 OFFCURVE",
"111 -124 OFFCURVE",
"111 -97 CURVE SMOOTH",
"111 -44 OFFCURVE",
"129 6 OFFCURVE",
"170 47 CURVE SMOOTH",
"510 387 LINE",
"414 538 OFFCURVE",
"377 715 OFFCURVE",
"395 887 CURVE SMOOTH",
"413 1059 OFFCURVE",
"487 1227 OFFCURVE",
"618 1358 CURVE SMOOTH",
"771 1509 OFFCURVE",
"972 1585 OFFCURVE",
"1172 1585 CURVE SMOOTH",
"1371 1585 OFFCURVE",
"1572 1507 OFFCURVE",
"1724 1358 CURVE SMOOTH",
"1877 1205 OFFCURVE",
"1954 1004 OFFCURVE",
"1954 805 CURVE SMOOTH",
"1954 605 OFFCURVE",
"1877 405 OFFCURVE",
"1724 252 CURVE SMOOTH",
"1601 129 OFFCURVE",
"1447 55 OFFCURVE",
"1286 31 CURVE SMOOTH",
"1125 6 OFFCURVE",
"959 34 OFFCURVE",
"811 111 CURVE",
"459 -242 LINE SMOOTH",
"418 -283 OFFCURVE",
"367 -301 OFFCURVE",
"314 -301 CURVE SMOOTH",
"261 -301 OFFCURVE",
"211 -282 OFFCURVE",
"170 -242 CURVE SMOOTH",
"149 -221 OFFCURVE",
"134 -199 OFFCURVE",
"125 -174 CURVE SMOOTH"
);
},
{
closed = 1;
nodes = (
"748 914 OFFCURVE",
"737 859 OFFCURVE",
"737 804 CURVE SMOOTH",
"737 693 OFFCURVE",
"780 582 OFFCURVE",
"864 498 CURVE SMOOTH",
"948 414 OFFCURVE",
"1059 371 OFFCURVE",
"1171 371 CURVE SMOOTH",
"1283 371 OFFCURVE",
"1394 413 OFFCURVE",
"1479 498 CURVE SMOOTH",
"1563 582 OFFCURVE",
"1606 693 OFFCURVE",
"1606 804 CURVE SMOOTH",
"1606 915 OFFCURVE",
"1563 1028 OFFCURVE",
"1479 1112 CURVE SMOOTH",
"1395 1196 OFFCURVE",
"1283 1237 OFFCURVE",
"1171 1237 CURVE SMOOTH",
"1059 1237 OFFCURVE",
"949 1197 OFFCURVE",
"864 1112 CURVE SMOOTH",
"822 1070 OFFCURVE",
"790 1022 OFFCURVE",
"769 968 CURVE SMOOTH"
);
}
);
width = 2048;
}
);
unicode = 003D;
},
{
glyphname = greater;
lastChange = "2012-07-03 13:53:28 +0000";
layers = (
{
layerId = "1730482B-7E8C-4DF6-A2D5-70B9989D176C";
name = Regular;
paths = (
{
closed = 1;
nodes = (
"113 1403 LINE SMOOTH",
"113 1466 OFFCURVE",
"160 1516 OFFCURVE",
"223 1516 CURVE SMOOTH",
"1825 1516 LINE SMOOTH",
"1888 1516 OFFCURVE",
"1935 1466 OFFCURVE",
"1935 1403 CURVE SMOOTH",
"1935 -113 LINE SMOOTH",
"1935 -176 OFFCURVE",
"1888 -225 OFFCURVE",
"1825 -225 CURVE SMOOTH",
"223 -225 LINE SMOOTH",
"160 -225 OFFCURVE",
"113 -176 OFFCURVE",
"113 -113 CURVE SMOOTH"
);
},
{
closed = 1;
nodes = (
"336 340 LINE",
"1712 340 LINE",
"1712 1290 LINE",
"336 1290 LINE"
);
}
);
width = 2048;
}
);
unicode = 003E;
},
{
glyphname = question;
lastChange = "2012-07-03 13:53:28 +0000";
layers = (
{
layerId = "1730482B-7E8C-4DF6-A2D5-70B9989D176C";
name = Regular;
paths = (
{
closed = 1;
nodes = (
"37 1270 LINE SMOOTH",
"37 1338 OFFCURVE",
"93 1393 OFFCURVE",
"158 1393 CURVE SMOOTH",
"1890 1393 LINE SMOOTH",
"1955 1393 OFFCURVE",
"2011 1338 OFFCURVE",
"2011 1270 CURVE SMOOTH",
"2011 20 LINE SMOOTH",
"2011 -48 OFFCURVE",
"1955 -102 OFFCURVE",
"1890 -102 CURVE SMOOTH",
"158 -102 LINE SMOOTH",
"93 -102 OFFCURVE",
"37 -48 OFFCURVE",
"37 20 CURVE SMOOTH"
);
},
{
closed = 1;
nodes = (
"281 141 LINE",
"1767 141 LINE",
"1767 1149 LINE",
"281 1149 LINE"
);
},
{
closed = 1;
nodes = (
"377 412 LINE SMOOTH",
"338 381 OFFCURVE",
"334 326 OFFCURVE",
"365 289 CURVE SMOOTH",
"396 250 OFFCURVE",
"450 248 OFFCURVE",
"487 279 CURVE SMOOTH",
"635 399 LINE",
"756 279 LINE SMOOTH",
"773 262 OFFCURVE",
"792 254 OFFCURVE",
"815 254 CURVE SMOOTH",
"825 254 LINE",
"852 257 OFFCURVE",
"874 270 OFFCURVE",
"889 293 CURVE SMOOTH",
"1083 596 LINE",
"1219 311 LINE",
"1232 280 OFFCURVE",
"1262 262 OFFCURVE",
"1294 262 CURVE",
"1328 259 OFFCURVE",
"1354 274 OFFCURVE",
"1372 305 CURVE SMOOTH",
"1708 893 LINE",
"1729 937 OFFCURVE",
"1716 989 OFFCURVE",
"1675 1012 CURVE SMOOTH",
"1634 1036 OFFCURVE",
"1581 1023 OFFCURVE",
"1556 979 CURVE SMOOTH",
"1305 535 LINE",
"1174 811 LINE",
"1161 842 OFFCURVE",
"1137 859 OFFCURVE",
"1102 862 CURVE SMOOTH",
"1069 865 OFFCURVE",
"1041 849 OFFCURVE",
"1022 821 CURVE SMOOTH",
"801 477 LINE",
"700 578 LINE SMOOTH",
"669 609 OFFCURVE",
"619 611 OFFCURVE",
"584 584 CURVE"
);
}
);
width = 2048;
}
);
unicode = 003F;
},
{
glyphname = at;
lastChange = "2012-07-03 13:53:28 +0000";
layers = (
{
layerId = "1730482B-7E8C-4DF6-A2D5-70B9989D176C";
name = Regular;
paths = (
{
closed = 1;
nodes = (
"12 1511 OFFCURVE",
"54 1552 OFFCURVE",
"109 1552 CURVE SMOOTH",
"391 1552 LINE",
"1479 1552 LINE",
"1927 1552 LINE SMOOTH",
"1987 1552 OFFCURVE",
"2032 1500 OFFCURVE",
"2023 1440 CURVE SMOOTH",
"1870 541 LINE SMOOTH",
"1862 494 OFFCURVE",
"1821 459 OFFCURVE",
"1776 459 CURVE SMOOTH",
"707 459 LINE SMOOTH",
"706 459 OFFCURVE",
"704 460 OFFCURVE",
"702 461 CURVE",
"530 248 LINE",
"1808 248 LINE SMOOTH",
"1863 248 OFFCURVE",
"1905 207 OFFCURVE",
"1905 152 CURVE SMOOTH",
"1905 100 OFFCURVE",
"1863 57 OFFCURVE",
"1808 57 CURVE SMOOTH",
"330 57 LINE SMOOTH",
"251 57 OFFCURVE",
"204 153 OFFCURVE",
"256 213 CURVE",
"582 618 LINE",
"322 1360 LINE",
"109 1360 LINE SMOOTH",
"54 1360 OFFCURVE",
"12 1401 OFFCURVE",
"12 1456 CURVE SMOOTH"
);
},
{
closed = 1;
nodes = (
"221 -52 OFFCURVE",
"287 14 OFFCURVE",
"367 14 CURVE SMOOTH",
"446 14 OFFCURVE",
"512 -52 OFFCURVE",
"512 -131 CURVE SMOOTH",
"512 -210 OFFCURVE",
"446 -276 OFFCURVE",
"367 -276 CURVE SMOOTH",
"288 -276 OFFCURVE",
"221 -210 OFFCURVE",
"221 -131 CURVE SMOOTH"
);
},
{
closed = 1;
nodes = (
"526 1360 LINE",
"582 1202 LINE",
"897 1202 LINE",
"879 1360 LINE"
);
},
{
closed = 1;
nodes = (
"627 1073 LINE",
"678 926 LINE",
"930 926 LINE",
"911 1073 LINE"
);
},
{
closed = 1;
nodes = (
"723 799 LINE",
"774 651 LINE",
"961 651 LINE",
"944 799 LINE"
);
},
{
closed = 1;
nodes = (
"1008 1360 LINE",
"1026 1202 LINE",
"1386 1202 LINE",
"1405 1360 LINE"
);
},
{
closed = 1;
nodes = (
"1040 1073 LINE",
"1059 926 LINE",
"1354 926 LINE",
"1372 1073 LINE"
);
},
{
closed = 1;
nodes = (
"1073 799 LINE",
"1090 651 LINE",
"1323 651 LINE",
"1339 799 LINE"
);
},
{
closed = 1;
nodes = (
"1452 651 LINE",
"1694 651 LINE",
"1718 799 LINE",
"1468 799 LINE"
);
},
{
closed = 1;
nodes = (
"1483 926 LINE",
"1741 926 LINE",
"1765 1073 LINE",
"1499 1073 LINE"
);
},
{
closed = 1;
nodes = (
"1516 1202 LINE",
"1788 1202 LINE",
"1815 1360 LINE",
"1534 1360 LINE"
);
},
{
closed = 1;
nodes = (
"1552 -52 OFFCURVE",
"1615 14 OFFCURVE",
"1698 14 CURVE SMOOTH",
"1777 14 OFFCURVE",
"1843 -52 OFFCURVE",
"1843 -131 CURVE SMOOTH",
"1843 -210 OFFCURVE",
"1777 -276 OFFCURVE",
"1698 -276 CURVE SMOOTH",
"1617 -276 OFFCURVE",
"1552 -210 OFFCURVE",
"1552 -131 CURVE SMOOTH"
);
}
);
width = 2048;
}
);
unicode = 0040;
},
{
glyphname = A;
lastChange = "2012-07-03 13:53:28 +0000";
layers = (
{
anchors = (
{
name = ogonek;
position = "{1843, 10}";
},
{
name = top;
position = "{1024, 1470}";
}
);
layerId = "1730482B-7E8C-4DF6-A2D5-70B9989D176C";
name = Regular;
paths = (
{
closed = 1;
nodes = (
"47 752 LINE SMOOTH",
"47 779 OFFCURVE",
"67 800 OFFCURVE",
"94 803 CURVE SMOOTH",
"342 827 LINE",
"359 886 OFFCURVE",
"383 942 OFFCURVE",
"414 997 CURVE",
"256 1190 LINE",
"237 1211 OFFCURVE",
"239 1240 OFFCURVE",
"258 1260 CURVE SMOOTH",
"410 1411 LINE SMOOTH",
"419 1420 OFFCURVE",
"431 1425 OFFCURVE",
"446 1425 CURVE SMOOTH",
"457 1425 OFFCURVE",
"468 1421 OFFCURVE",
"479 1413 CURVE",
"672 1255 LINE",
"727 1286 OFFCURVE",
"783 1310 OFFCURVE",
"842 1327 CURVE",
"866 1575 LINE SMOOTH",
"869 1602 OFFCURVE",
"890 1622 OFFCURVE",
"918 1622 CURVE SMOOTH",
"1130 1622 LINE SMOOTH",
"1157 1622 OFFCURVE",
"1179 1602 OFFCURVE",
"1182 1575 CURVE SMOOTH",
"1206 1327 LINE",
"1265 1310 OFFCURVE",
"1321 1286 OFFCURVE",
"1376 1255 CURVE",
"1569 1413 LINE",
"1578 1421 OFFCURVE",
"1589 1425 OFFCURVE",
"1602 1425 CURVE SMOOTH",
"1617 1425 OFFCURVE",
"1629 1420 OFFCURVE",
"1638 1411 CURVE SMOOTH",
"1790 1260 LINE SMOOTH",
"1809 1241 OFFCURVE",
"1811 1211 OFFCURVE",
"1792 1190 CURVE",
"1634 997 LINE",
"1665 942 OFFCURVE",
"1689 886 OFFCURVE",
"1706 827 CURVE",
"1954 803 LINE SMOOTH",
"1981 800 OFFCURVE",
"2001 779 OFFCURVE",
"2001 752 CURVE SMOOTH",
"2001 539 LINE SMOOTH",
"2001 512 OFFCURVE",
"1981 490 OFFCURVE",
"1954 487 CURVE SMOOTH",
"1706 463 LINE",
"1689 404 OFFCURVE",
"1665 348 OFFCURVE",
"1634 293 CURVE",
"1792 100 LINE",
"1811 79 OFFCURVE",
"1809 50 OFFCURVE",
"1790 31 CURVE SMOOTH",
"1638 -121 LINE SMOOTH",
"1629 -130 OFFCURVE",
"1617 -135 OFFCURVE",
"1602 -135 CURVE SMOOTH",
"1590 -135 OFFCURVE",
"1579 -131 OFFCURVE",
"1569 -123 CURVE SMOOTH",
"1376 35 LINE",
"1321 4 OFFCURVE",
"1265 -20 OFFCURVE",
"1206 -37 CURVE",
"1182 -285 LINE SMOOTH",
"1179 -312 OFFCURVE",
"1158 -332 OFFCURVE",
"1130 -332 CURVE SMOOTH",
"918 -332 LINE SMOOTH",
"891 -332 OFFCURVE",
"869 -312 OFFCURVE",
"866 -285 CURVE SMOOTH",
"842 -37 LINE",
"783 -20 OFFCURVE",
"727 4 OFFCURVE",
"672 35 CURVE",
"479 -123 LINE",
"468 -131 OFFCURVE",
"457 -135 OFFCURVE",
"446 -135 CURVE SMOOTH",
"431 -135 OFFCURVE",
"419 -130 OFFCURVE",
"410 -121 CURVE SMOOTH",
"258 31 LINE SMOOTH",
"239 50 OFFCURVE",
"237 79 OFFCURVE",
"256 100 CURVE",
"414 293 LINE",
"383 348 OFFCURVE",
"359 404 OFFCURVE",
"342 463 CURVE",
"94 487 LINE SMOOTH",
"67 490 OFFCURVE",
"47 512 OFFCURVE",
"47 539 CURVE SMOOTH"
);
},
{
closed = 1;
nodes = (
"735 566 OFFCURVE",
"767 492 OFFCURVE",
"819 440 CURVE SMOOTH",
"871 388 OFFCURVE",
"945 356 OFFCURVE",
"1024 356 CURVE SMOOTH",
"1103 356 OFFCURVE",
"1177 388 OFFCURVE",
"1229 440 CURVE SMOOTH",
"1281 492 OFFCURVE",
"1313 566 OFFCURVE",
"1313 645 CURVE SMOOTH",
"1313 724 OFFCURVE",
"1281 798 OFFCURVE",
"1229 850 CURVE SMOOTH",
"1177 902 OFFCURVE",
"1103 934 OFFCURVE",
"1024 934 CURVE SMOOTH",
"945 934 OFFCURVE",
"871 902 OFFCURVE",
"819 850 CURVE SMOOTH",
"767 798 OFFCURVE",
"735 724 OFFCURVE",
"735 645 CURVE SMOOTH"
);
}
);
width = 2048;
}
);
unicode = 0041;
},
{
glyphname = B;
lastChange = "2012-07-03 13:53:28 +0000";
layers = (
{
layerId = "1730482B-7E8C-4DF6-A2D5-70B9989D176C";
name = Regular;
paths = (
{
closed = 1;
nodes = (
"59 1137 OFFCURVE",
"120 1271 OFFCURVE",
"219 1370 CURVE SMOOTH",
"318 1469 OFFCURVE",
"450 1528 OFFCURVE",
"598 1528 CURVE SMOOTH",
"770 1528 OFFCURVE",
"923 1448 OFFCURVE",
"1024 1317 CURVE",
"1125 1448 OFFCURVE",
"1278 1528 OFFCURVE",
"1450 1528 CURVE SMOOTH",
"1598 1528 OFFCURVE",
"1730 1469 OFFCURVE",
"1829 1370 CURVE SMOOTH",
"1928 1271 OFFCURVE",
"1989 1137 OFFCURVE",
"1989 989 CURVE SMOOTH",
"1989 828 OFFCURVE",
"1951 701 OFFCURVE",
"1896 594 CURVE SMOOTH",
"1841 487 OFFCURVE",
"1773 404 OFFCURVE",
"1710 328 CURVE SMOOTH",
"1683 297 LINE SMOOTH",
"1634 237 OFFCURVE",
"1551 160 OFFCURVE",
"1461 84 CURVE SMOOTH",
"1371 8 OFFCURVE",
"1274 -68 OFFCURVE",
"1198 -124 CURVE SMOOTH",
"1160 -152 OFFCURVE",
"1128 -175 OFFCURVE",
"1103 -193 CURVE SMOOTH",
"1078 -212 OFFCURVE",
"1064 -222 OFFCURVE",
"1061 -225 CURVE",
"1040 -241 OFFCURVE",
"1006 -242 OFFCURVE",
"987 -225 CURVE",
"983 -222 OFFCURVE",
"969 -212 OFFCURVE",
"944 -193 CURVE SMOOTH",
"919 -175 OFFCURVE",
"888 -152 OFFCURVE",
"850 -124 CURVE SMOOTH",
"774 -68 OFFCURVE",
"678 8 OFFCURVE",
"588 84 CURVE SMOOTH",
"498 160 OFFCURVE",
"413 237 OFFCURVE",
"365 297 CURVE",
"338 328 LINE SMOOTH",
"275 404 OFFCURVE",
"207 487 OFFCURVE",
"152 594 CURVE SMOOTH",
"97 701 OFFCURVE",
"59 828 OFFCURVE",
"59 989 CURVE SMOOTH"
);
}
);
width = 2048;
}
);
unicode = 0042;
},
{
glyphname = C;
lastChange = "2012-07-03 13:53:28 +0000";
layers = (
{
anchors = (
{
name = bottom;
position = "{1024, 0}";
},
{
name = top;
position = "{1024, 1470}";
}
);
layerId = "1730482B-7E8C-4DF6-A2D5-70B9989D176C";
name = Regular;
paths = (
{
closed = 1;
nodes = (
"36 911 OFFCURVE",
"51 922 OFFCURVE",
"72 922 CURVE SMOOTH",
"748 922 LINE",
"979 1573 LINE SMOOTH",
"986 1595 OFFCURVE",
"1001 1606 OFFCURVE",
"1024 1606 CURVE SMOOTH",
"1047 1606 OFFCURVE",
"1062 1595 OFFCURVE",
"1069 1573 CURVE SMOOTH",
"1300 922 LINE",
"1976 922 LINE SMOOTH",
"1997 922 OFFCURVE",
"2012 911 OFFCURVE",
"2021 889 CURVE",
"2023 883 OFFCURVE",
"2024 877 OFFCURVE",
"2024 872 CURVE SMOOTH",
"2024 858 OFFCURVE",
"2018 846 OFFCURVE",
"2005 836 CURVE SMOOTH",
"1477 418 LINE",
"1714 -250 LINE SMOOTH",
"1721 -272 OFFCURVE",
"1715 -290 OFFCURVE",
"1698 -303 CURVE",
"1690 -311 OFFCURVE",
"1680 -315 OFFCURVE",
"1669 -315 CURVE SMOOTH",
"1661 -315 OFFCURVE",
"1653 -312 OFFCURVE",
"1645 -307 CURVE SMOOTH",
"1024 63 LINE",
"403 -307 LINE",
"387 -318 OFFCURVE",
"363 -316 OFFCURVE",
"350 -303 CURVE",
"332 -290 OFFCURVE",
"327 -272 OFFCURVE",
"334 -250 CURVE SMOOTH",
"571 418 LINE",
"43 836 LINE SMOOTH",
"30 846 OFFCURVE",
"24 858 OFFCURVE",
"24 872 CURVE SMOOTH",
"24 877 OFFCURVE",
"25 883 OFFCURVE",
"27 889 CURVE"
);
}
);
width = 2048;
}
);
unicode = 0043;
},
{
glyphname = D;
lastChange = "2012-07-03 13:53:28 +0000";
layers = (
{
anchors = (
{
name = center;
position = "{1024, 735}";
},
{
name = top;
position = "{1024, 1470}";
}
);
layerId = "1730482B-7E8C-4DF6-A2D5-70B9989D176C";
name = Regular;
paths = (
{
closed = 1;
nodes = (
"63 868 LINE SMOOTH",
"63 895 OFFCURVE",
"85 918 OFFCURVE",
"113 918 CURVE SMOOTH",
"752 918 LINE",
"752 1556 LINE SMOOTH",
"752 1583 OFFCURVE",
"773 1606 OFFCURVE",
"801 1606 CURVE SMOOTH",
"1247 1606 LINE SMOOTH",
"1274 1606 OFFCURVE",
"1296 1584 OFFCURVE",
"1296 1556 CURVE SMOOTH",
"1296 918 LINE",
"1935 918 LINE SMOOTH",
"1962 918 OFFCURVE",
"1985 896 OFFCURVE",
"1985 868 CURVE SMOOTH",
"1985 422 LINE SMOOTH",
"1985 395 OFFCURVE",
"1963 373 OFFCURVE",
"1935 373 CURVE SMOOTH",
"1296 373 LINE",
"1296 -266 LINE SMOOTH",
"1296 -293 OFFCURVE",
"1275 -315 OFFCURVE",
"1247 -315 CURVE SMOOTH",
"801 -315 LINE SMOOTH",
"774 -315 OFFCURVE",
"752 -294 OFFCURVE",
"752 -266 CURVE SMOOTH",
"752 373 LINE",
"113 373 LINE SMOOTH",
"86 373 OFFCURVE",
"63 395 OFFCURVE",
"63 422 CURVE SMOOTH"
);
}
);
width = 2048;
}
);
unicode = 0044;
},
{
glyphname = E;
lastChange = "2012-07-03 13:53:28 +0000";
layers = (
{
anchors = (
{
name = bottom;
position = "{1024, 0}";
},
{
name = ogonek;
position = "{1843, 10}";
},
{
name = top;
position = "{1024, 1470}";
}
);
layerId = "1730482B-7E8C-4DF6-A2D5-70B9989D176C";
name = Regular;
paths = (
{
closed = 1;
nodes = (
"63 868 LINE SMOOTH",
"63 895 OFFCURVE",
"85 918 OFFCURVE",
"113 918 CURVE SMOOTH",
"1935 918 LINE SMOOTH",
"1962 918 OFFCURVE",
"1982 896 OFFCURVE",
"1982 868 CURVE SMOOTH",
"1982 422 LINE SMOOTH",
"1982 395 OFFCURVE",
"1963 373 OFFCURVE",
"1935 373 CURVE SMOOTH",
"113 373 LINE SMOOTH",
"86 373 OFFCURVE",
"63 395 OFFCURVE",
"63 422 CURVE SMOOTH"
);
}
);
width = 2048;
}
);
unicode = 0045;
},
{
glyphname = F;
lastChange = "2012-07-03 13:53:28 +0000";
layers = (
{
layerId = "1730482B-7E8C-4DF6-A2D5-70B9989D176C";
name = Regular;
paths = (
{
closed = 1;
nodes = (
"31 480 OFFCURVE",
"36 491 OFFCURVE",
"45 504 CURVE",
"301 760 LINE",
"312 770 OFFCURVE",
"324 775 OFFCURVE",
"336 775 CURVE",
"371 760 LINE",
"678 451 LINE",
"1677 1452 LINE",
"1689 1461 OFFCURVE",
"1701 1466 OFFCURVE",
"1712 1466 CURVE SMOOTH",
"1723 1466 OFFCURVE",
"1734 1461 OFFCURVE",
"1747 1452 CURVE",
"2003 1196 LINE SMOOTH",
"2012 1187 OFFCURVE",
"2017 1176 OFFCURVE",
"2017 1163 CURVE SMOOTH",
"2017 1150 OFFCURVE",
"2012 1138 OFFCURVE",
"2003 1128 CURVE",
"713 -162 LINE",
"705 -171 OFFCURVE",
"694 -176 OFFCURVE",
"680 -176 CURVE SMOOTH",
"678 -176 LINE",
"676 -176 LINE SMOOTH",
"664 -176 OFFCURVE",
"653 -171 OFFCURVE",
"643 -162 CURVE",
"45 434 LINE",
"36 447 OFFCURVE",
"31 458 OFFCURVE",
"31 469 CURVE SMOOTH"
);
}
);
width = 2048;
}
);
unicode = 0046;
},
{
glyphname = G;
lastChange = "2012-07-03 13:53:28 +0000";
layers = (
{
anchors = (
{
name = bottom;
position = "{1024, 0}";
},
{
name = top;
position = "{1024, 1470}";
}
);
layerId = "1730482B-7E8C-4DF6-A2D5-70B9989D176C";
name = Regular;
paths = (
{
closed = 1;
nodes = (
"184 173 OFFCURVE",
"188 184 OFFCURVE",
"197 193 CURVE SMOOTH",
"649 645 LINE",
"199 1098 LINE",
"180 1114 OFFCURVE",
"179 1149 OFFCURVE",
"199 1165 CURVE",
"514 1483 LINE SMOOTH",
"523 1492 OFFCURVE",
"535 1497 OFFCURVE",
"549 1497 CURVE SMOOTH",
"562 1497 OFFCURVE",
"573 1492 OFFCURVE",
"582 1483 CURVE SMOOTH",
"1034 1030 LINE",
"1487 1483 LINE SMOOTH",
"1496 1492 OFFCURVE",
"1508 1497 OFFCURVE",
"1521 1497 CURVE SMOOTH",
"1534 1497 OFFCURVE",
"1545 1492 OFFCURVE",
"1554 1483 CURVE SMOOTH",
"1872 1165 LINE SMOOTH",
"1881 1156 OFFCURVE",
"1886 1145 OFFCURVE",
"1886 1132 CURVE SMOOTH",
"1886 1119 OFFCURVE",
"1881 1107 OFFCURVE",
"1872 1098 CURVE SMOOTH",
"1419 645 LINE",
"1872 193 LINE SMOOTH",
"1881 184 OFFCURVE",
"1886 172 OFFCURVE",
"1886 159 CURVE SMOOTH",
"1886 146 OFFCURVE",
"1881 134 OFFCURVE",
"1872 125 CURVE SMOOTH",
"1554 -193 LINE SMOOTH",
"1545 -202 OFFCURVE",
"1534 -207 OFFCURVE",
"1522 -207 CURVE SMOOTH",
"1511 -207 OFFCURVE",
"1500 -202 OFFCURVE",
"1487 -193 CURVE",
"1034 260 LINE",
"582 -193 LINE SMOOTH",
"573 -202 OFFCURVE",
"562 -207 OFFCURVE",
"549 -207 CURVE SMOOTH",
"538 -207 OFFCURVE",
"527 -202 OFFCURVE",
"514 -193 CURVE",
"197 125 LINE",
"188 133 OFFCURVE",
"184 145 OFFCURVE",
"184 160 CURVE SMOOTH"
);
}
);
width = 2048;
}
);
unicode = 0047;
},
{
glyphname = H;
lastChange = "2012-07-03 13:53:28 +0000";
layers = (
{
anchors = (
{
name = center;
position = "{1024, 735}";
},
{
name = top;
position = "{1024, 1470}";
}
);
layerId = "1730482B-7E8C-4DF6-A2D5-70B9989D176C";
name = Regular;
paths = (
{
closed = 1;
nodes = (
"68 940 LINE SMOOTH",
"68 953 OFFCURVE",
"81 957 OFFCURVE",
"92 954 CURVE",
"637 643 LINE SMOOTH",
"642 640 OFFCURVE",
"645 636 OFFCURVE",
"645 631 CURVE SMOOTH",
"645 624 OFFCURVE",
"643 620 OFFCURVE",
"639 618 CURVE",
"94 113 LINE",
"93 110 OFFCURVE",
"89 109 OFFCURVE",
"84 109 CURVE SMOOTH",
"78 109 LINE",
"71 113 OFFCURVE",
"68 118 OFFCURVE",
"68 123 CURVE SMOOTH"
);
},
{
closed = 1;
nodes = (
"68 1366 LINE SMOOTH",
"68 1402 OFFCURVE",
"95 1430 OFFCURVE",
"131 1430 CURVE SMOOTH",
"1931 1430 LINE SMOOTH",
"1970 1430 OFFCURVE",
"1997 1402 OFFCURVE",
"1997 1366 CURVE SMOOTH",
"1997 1169 LINE SMOOTH",
"1997 1160 OFFCURVE",
"1992 1155 OFFCURVE",
"1982 1155 CURVE",
"1974 1154 OFFCURVE",
"1967 1150 OFFCURVE",
"1960 1145 CURVE",
"1042 606 LINE",
"1041 605 OFFCURVE",
"1038 604 OFFCURVE",
"1034 604 CURVE SMOOTH",
"1030 604 OFFCURVE",
"1027 605 OFFCURVE",
"1026 606 CURVE",
"80 1145 LINE",
"72 1150 OFFCURVE",
"68 1156 OFFCURVE",
"68 1161 CURVE SMOOTH"
);
},
{
closed = 1;
nodes = (
"92 -112 OFFCURVE",
"94 -107 OFFCURVE",
"98 -104 CURVE",
"793 541 LINE",
"798 546 OFFCURVE",
"804 547 OFFCURVE",
"811 543 CURVE SMOOTH",
"995 438 LINE SMOOTH",
"1008 430 OFFCURVE",
"1021 426 OFFCURVE",
"1034 426 CURVE SMOOTH",
"1048 426 OFFCURVE",
"1062 431 OFFCURVE",
"1075 440 CURVE",
"1284 561 LINE SMOOTH",
"1292 566 OFFCURVE",
"1298 566 OFFCURVE",
"1303 559 CURVE",
"1925 -113 LINE",
"1929 -118 OFFCURVE",
"1930 -124 OFFCURVE",
"1929 -129 CURVE",
"1925 -136 OFFCURVE",
"1920 -139 OFFCURVE",
"1913 -139 CURVE SMOOTH",
"131 -139 LINE SMOOTH",
"122 -139 OFFCURVE",
"111 -136 OFFCURVE",
"100 -129 CURVE SMOOTH",
"95 -126 OFFCURVE",
"92 -122 OFFCURVE",
"92 -117 CURVE SMOOTH"
);
},
{
closed = 1;
nodes = (
"1446 654 OFFCURVE",
"1448 659 OFFCURVE",
"1452 662 CURVE",
"1972 967 LINE",
"1974 969 OFFCURVE",
"1976 970 OFFCURVE",
"1979 970 CURVE SMOOTH",
"1984 970 OFFCURVE",
"1997 967 OFFCURVE",
"1997 952 CURVE SMOOTH",
"1997 88 LINE SMOOTH",
"1997 81 OFFCURVE",
"1994 77 OFFCURVE",
"1987 74 CURVE",
"1986 73 OFFCURVE",
"1983 72 OFFCURVE",
"1980 72 CURVE SMOOTH",
"1976 72 OFFCURVE",
"1972 74 OFFCURVE",
"1968 78 CURVE",
"1450 637 LINE",
"1446 641 OFFCURVE",
"1445 645 OFFCURVE",
"1446 649 CURVE"
);
}
);
width = 2048;
}
);
unicode = 0048;
},
{
glyphname = I;
lastChange = "2012-07-03 13:53:28 +0000";
layers = (
{
anchors = (
{
name = ogonek;
position = "{1843, 10}";
},
{
name = top;
position = "{1024, 1470}";
}
);
layerId = "1730482B-7E8C-4DF6-A2D5-70B9989D176C";
name = Regular;
paths = (
{
closed = 1;
nodes = (
"274 799 LINE SMOOTH",
"274 815 OFFCURVE",
"289 829 OFFCURVE",
"305 829 CURVE SMOOTH",
"1743 829 LINE SMOOTH",
"1759 829 OFFCURVE",
"1774 815 OFFCURVE",
"1774 799 CURVE SMOOTH",
"1774 -233 LINE SMOOTH",
"1774 -249 OFFCURVE",
"1759 -262 OFFCURVE",
"1743 -262 CURVE SMOOTH",
"305 -262 LINE SMOOTH",
"289 -262 OFFCURVE",
"274 -249 OFFCURVE",
"274 -233 CURVE SMOOTH"
);
},
{
closed = 1;
nodes = (
"274 1292 LINE SMOOTH",
"274 1308 OFFCURVE",
"289 1321 OFFCURVE",
"305 1321 CURVE SMOOTH",
"446 1321 LINE",
"446 1382 LINE SMOOTH",
"446 1486 OFFCURVE",
"516 1552 OFFCURVE",
"625 1552 CURVE SMOOTH",
"737 1552 OFFCURVE",
"805 1486 OFFCURVE",
"805 1382 CURVE SMOOTH",
"805 1321 LINE",
"846 1321 LINE",
"846 1382 LINE SMOOTH",
"846 1486 OFFCURVE",
"915 1552 OFFCURVE",
"1024 1552 CURVE SMOOTH",
"1136 1552 OFFCURVE",
"1204 1486 OFFCURVE",
"1204 1382 CURVE SMOOTH",
"1204 1321 LINE",
"1245 1321 LINE",
"1245 1382 LINE SMOOTH",
"1245 1486 OFFCURVE",
"1314 1552 OFFCURVE",
"1423 1552 CURVE SMOOTH",
"1535 1552 OFFCURVE",
"1604 1486 OFFCURVE",
"1604 1382 CURVE SMOOTH",
"1604 1321 LINE",
"1743 1321 LINE SMOOTH",
"1759 1321 OFFCURVE",
"1774 1309 OFFCURVE",
"1774 1292 CURVE SMOOTH",
"1774 989 LINE SMOOTH",
"1774 973 OFFCURVE",
"1759 961 OFFCURVE",
"1743 961 CURVE SMOOTH",
"305 961 LINE SMOOTH",
"289 961 OFFCURVE",
"274 973 OFFCURVE",
"274 989 CURVE SMOOTH"
);
},
{
closed = 1;
nodes = (
"557 1143 LINE SMOOTH",
"557 1096 OFFCURVE",
"576 1081 OFFCURVE",
"625 1081 CURVE SMOOTH",
"677 1081 OFFCURVE",
"694 1096 OFFCURVE",
"694 1143 CURVE SMOOTH",
"694 1382 LINE SMOOTH",
"694 1426 OFFCURVE",
"677 1444 OFFCURVE",
"625 1444 CURVE SMOOTH",
"576 1444 OFFCURVE",
"557 1426 OFFCURVE",
"557 1382 CURVE SMOOTH"
);
},
{
closed = 1;
nodes = (
"586 -2 LINE",
"586 -11 OFFCURVE",
"589 -17 OFFCURVE",
"596 -18 CURVE",
"637 -34 OFFCURVE",
"693 -45 OFFCURVE",
"741 -45 CURVE SMOOTH",
"900 -45 OFFCURVE",
"999 30 OFFCURVE",
"999 154 CURVE SMOOTH",
"999 238 OFFCURVE",
"942 278 OFFCURVE",
"885 299 CURVE",
"950 332 OFFCURVE",
"983 379 OFFCURVE",
"983 440 CURVE SMOOTH",
"983 521 OFFCURVE",
"903 580 OFFCURVE",
"780 580 CURVE SMOOTH",
"711 580 OFFCURVE",
"654 569 OFFCURVE",
"610 547 CURVE",
"605 546 OFFCURVE",
"602 541 OFFCURVE",
"602 532 CURVE",
"616 430 LINE",
"616 422 OFFCURVE",
"629 415 OFFCURVE",
"637 420 CURVE",
"678 439 OFFCURVE",
"715 449 OFFCURVE",
"750 449 CURVE SMOOTH",
"784 449 OFFCURVE",
"804 444 OFFCURVE",
"809 435 CURVE",
"814 425 OFFCURVE",
"817 416 OFFCURVE",
"817 408 CURVE SMOOTH",
"817 397 OFFCURVE",
"811 386 OFFCURVE",
"799 373 CURVE",
"786 360 OFFCURVE",
"756 352 OFFCURVE",
"707 348 CURVE",
"698 348 OFFCURVE",
"693 343 OFFCURVE",
"692 334 CURVE",
"692 233 LINE SMOOTH",
"692 224 OFFCURVE",
"697 219 OFFCURVE",
"707 219 CURVE",
"764 215 OFFCURVE",
"801 207 OFFCURVE",
"818 196 CURVE",
"834 184 OFFCURVE",
"842 167 OFFCURVE",
"842 145 CURVE SMOOTH",
"842 109 OFFCURVE",
"808 86 OFFCURVE",
"756 86 CURVE SMOOTH",
"704 86 OFFCURVE",
"666 91 OFFCURVE",
"621 111 CURVE",
"613 114 OFFCURVE",
"600 107 OFFCURVE",
"600 98 CURVE"
);
},
{
closed = 1;
nodes = (
"956 1143 LINE SMOOTH",
"956 1096 OFFCURVE",
"975 1081 OFFCURVE",
"1024 1081 CURVE SMOOTH",
"1073 1081 OFFCURVE",
"1094 1096 OFFCURVE",
"1094 1143 CURVE SMOOTH",
"1094 1382 LINE SMOOTH",
"1094 1463 OFFCURVE",
"992 1449 OFFCURVE",
"972 1430 CURVE SMOOTH",
"961 1420 OFFCURVE",
"956 1404 OFFCURVE",
"956 1382 CURVE SMOOTH"
);
},
{
closed = 1;
nodes = (
"1116 365 LINE",
"1116 357 OFFCURVE",
"1125 352 OFFCURVE",
"1137 352 CURVE",
"1217 383 LINE",
"1217 -20 LINE SMOOTH",
"1217 -29 OFFCURVE",
"1222 -34 OFFCURVE",
"1233 -35 CURVE",
"1356 -35 LINE SMOOTH",
"1365 -35 OFFCURVE",
"1370 -30 OFFCURVE",
"1370 -20 CURVE SMOOTH",
"1370 555 LINE SMOOTH",
"1370 564 OFFCURVE",
"1365 569 OFFCURVE",
"1356 569 CURVE SMOOTH",
"1294 569 LINE",
"1286 569 LINE",
"1110 481 LINE",
"1105 478 OFFCURVE",
"1102 474 OFFCURVE",
"1102 467 CURVE"
);
},
{
closed = 1;
nodes = (
"1356 1143 LINE SMOOTH",
"1356 1096 OFFCURVE",
"1374 1081 OFFCURVE",
"1423 1081 CURVE SMOOTH",
"1475 1081 OFFCURVE",
"1493 1096 OFFCURVE",
"1493 1143 CURVE SMOOTH",
"1493 1382 LINE SMOOTH",
"1493 1426 OFFCURVE",
"1475 1444 OFFCURVE",
"1423 1444 CURVE SMOOTH",
"1374 1444 OFFCURVE",
"1356 1426 OFFCURVE",
"1356 1382 CURVE SMOOTH"
);
}
);
width = 2048;
}
);
unicode = 0049;
},
{
glyphname = J;
lastChange = "2012-07-03 13:53:28 +0000";
layers = (
{
anchors = (
{
name = top;
position = "{1024, 1470}";
}
);
layerId = "1730482B-7E8C-4DF6-A2D5-70B9989D176C";
name = Regular;
paths = (
{
closed = 1;
nodes = (
"346 1192 LINE SMOOTH",
"346 1196 OFFCURVE",
"348 1200 OFFCURVE",
"352 1204 CURVE SMOOTH",
"680 1526 LINE SMOOTH",
"684 1530 OFFCURVE",
"688 1532 OFFCURVE",
"692 1532 CURVE SMOOTH",
"774 1532 LINE SMOOTH",
"785 1532 OFFCURVE",
"790 1527 OFFCURVE",
"791 1516 CURVE",
"791 1106 LINE SMOOTH",
"791 1095 OFFCURVE",
"785 1090 OFFCURVE",
"774 1090 CURVE SMOOTH",
"362 1090 LINE SMOOTH",
"351 1090 OFFCURVE",
"346 1095 OFFCURVE",
"346 1106 CURVE SMOOTH"
);
},
{
closed = 1;
nodes = (
"354 895 LINE SMOOTH",
"354 922 OFFCURVE",
"375 944 OFFCURVE",
"406 944 CURVE SMOOTH",
"872 944 LINE SMOOTH",
"911 944 OFFCURVE",
"940 973 OFFCURVE",
"940 1012 CURVE SMOOTH",
"940 1477 LINE SMOOTH",
"940 1508 OFFCURVE",
"962 1526 OFFCURVE",
"989 1526 CURVE SMOOTH",
"1567 1526 LINE SMOOTH",
"1594 1526 OFFCURVE",
"1616 1506 OFFCURVE",
"1616 1477 CURVE SMOOTH",
"1616 -209 LINE SMOOTH",
"1616 -236 OFFCURVE",
"1594 -258 OFFCURVE",
"1567 -258 CURVE SMOOTH",
"406 -258 LINE SMOOTH",
"375 -258 OFFCURVE",
"354 -236 OFFCURVE",
"354 -209 CURVE SMOOTH"
);
}
);
width = 2048;
}
);
unicode = 004A;
},
{
glyphname = K;
lastChange = "2012-07-03 13:53:28 +0000";
layers = (
{
anchors = (
{
name = bottom;
position = "{1024, 0}";
},
{
name = top;
position = "{1024, 1470}";
}
);
layerId = "1730482B-7E8C-4DF6-A2D5-70B9989D176C";
name = Regular;
paths = (
{
closed = 1;
nodes = (
"153 135 OFFCURVE",
"190 189 OFFCURVE",
"226 229 CURVE SMOOTH",
"243 248 OFFCURVE",
"260 264 OFFCURVE",
"276 277 CURVE SMOOTH",
"291 289 OFFCURVE",
"301 296 OFFCURVE",
"305 299 CURVE",
"932 850 LINE",
"911 899 OFFCURVE",
"901 944 OFFCURVE",
"901 985 CURVE SMOOTH",
"901 1116 OFFCURVE",
"960 1252 OFFCURVE",
"1067 1356 CURVE SMOOTH",
"1171 1460 OFFCURVE",
"1299 1514 OFFCURVE",
"1420 1514 CURVE SMOOTH",
"1427 1514 OFFCURVE",
"1438 1514 OFFCURVE",
"1446 1509 CURVE",
"1450 1506 OFFCURVE",
"1458 1499 OFFCURVE",
"1470 1487 CURVE SMOOTH",
"1497 1460 LINE",
"1510 1445 OFFCURVE",
"1510 1430 OFFCURVE",
"1497 1417 CURVE SMOOTH",
"1434 1354 LINE",
"1366 1286 LINE SMOOTH",
"1333 1253 OFFCURVE",
"1321 1232 OFFCURVE",
"1320 1212 CURVE",
"1319 1201 OFFCURVE",
"1319 1187 OFFCURVE",
"1319 1169 CURVE SMOOTH",
"1319 1143 LINE SMOOTH",
"1319 1104 OFFCURVE",
"1346 1052 OFFCURVE",
"1395 1004 CURVE SMOOTH",
"1442 957 OFFCURVE",
"1493 930 OFFCURVE",
"1532 930 CURVE SMOOTH",
"1559 930 LINE SMOOTH",
"1595 930 OFFCURVE",
"1610 929 OFFCURVE",
"1634 942 CURVE",
"1645 949 OFFCURVE",
"1659 960 OFFCURVE",
"1675 977 CURVE",
"1743 1044 LINE",
"1806 1108 LINE SMOOTH",
"1819 1121 OFFCURVE",
"1834 1121 OFFCURVE",
"1849 1108 CURVE",
"1876 1081 LINE SMOOTH",
"1900 1057 OFFCURVE",
"1903 1056 OFFCURVE",
"1903 1031 CURVE SMOOTH",
"1903 908 OFFCURVE",
"1849 782 OFFCURVE",
"1745 678 CURVE SMOOTH",
"1641 571 OFFCURVE",
"1506 512 OFFCURVE",
"1374 512 CURVE SMOOTH",
"1330 512 OFFCURVE",
"1285 522 OFFCURVE",
"1239 543 CURVE",
"688 -84 LINE",
"685 -88 OFFCURVE",
"678 -98 OFFCURVE",
"666 -113 CURVE SMOOTH",
"641 -145 OFFCURVE",
"601 -182 OFFCURVE",
"548 -214 CURVE SMOOTH",
"521 -230 OFFCURVE",
"492 -240 OFFCURVE",
"459 -244 CURVE SMOOTH",
"448 -245 OFFCURVE",
"438 -246 OFFCURVE",
"427 -246 CURVE SMOOTH",
"362 -246 OFFCURVE",
"299 -217 OFFCURVE",
"238 -158 CURVE SMOOTH",
"236 -156 LINE",
"233 -156 LINE",
"233 -155 OFFCURVE",
"233 -154 OFFCURVE",
"232 -154 CURVE SMOOTH",
"231 -154 OFFCURVE",
"231 -153 OFFCURVE",
"231 -152 CURVE",
"172 -87 OFFCURVE",
"143 -23 OFFCURVE",
"144 42 CURVE",
"143 51 OFFCURVE",
"144 61 OFFCURVE",
"145 70 CURVE SMOOTH"
);
},
{
closed = 1;
nodes = (
"358 102 OFFCURVE",
"348 79 OFFCURVE",
"348 54 CURVE SMOOTH",
"348 3 OFFCURVE",
"394 -41 OFFCURVE",
"444 -41 CURVE SMOOTH",
"494 -41 OFFCURVE",
"539 5 OFFCURVE",
"539 55 CURVE SMOOTH",
"539 105 OFFCURVE",
"494 150 OFFCURVE",
"444 150 CURVE SMOOTH",
"419 150 OFFCURVE",
"396 140 OFFCURVE",
"377 121 CURVE SMOOTH"
);
}
);
width = 2048;
}
);
unicode = 004B;
},
{
glyphname = L;
lastChange = "2012-07-03 13:53:28 +0000";
layers = (
{
anchors = (
{
name = bottom;
position = "{1024, 0}";
},
{
name = top;
position = "{1024, 1470}";
}
);
layerId = "1730482B-7E8C-4DF6-A2D5-70B9989D176C";
name = Regular;
paths = (
{
closed = 1;
nodes = (
"49 913 OFFCURVE",
"159 1158 OFFCURVE",
"335 1334 CURVE SMOOTH",
"511 1510 OFFCURVE",
"756 1620 OFFCURVE",
"1024 1620 CURVE SMOOTH",
"1292 1620 OFFCURVE",
"1537 1510 OFFCURVE",
"1713 1334 CURVE SMOOTH",
"1889 1158 OFFCURVE",
"1999 913 OFFCURVE",
"1999 645 CURVE SMOOTH",
"1999 377 OFFCURVE",
"1889 132 OFFCURVE",
"1713 -44 CURVE SMOOTH",
"1537 -220 OFFCURVE",
"1292 -330 OFFCURVE",
"1024 -330 CURVE SMOOTH",
"756 -330 OFFCURVE",
"511 -220 OFFCURVE",
"335 -44 CURVE SMOOTH",
"159 132 OFFCURVE",
"49 377 OFFCURVE",
"49 645 CURVE SMOOTH"
);
},
{
closed = 1;
nodes = (
"295 428 OFFCURVE",
"354 255 OFFCURVE",
"495 113 CURVE SMOOTH",
"565 42 OFFCURVE",
"646 -13 OFFCURVE",
"739 -51 CURVE",
"740 -29 OFFCURVE",
"743 -4 OFFCURVE",
"746 25 CURVE SMOOTH",
"752 82 OFFCURVE",
"757 141 OFFCURVE",
"761 185 CURVE SMOOTH",
"763 206 OFFCURVE",
"765 221 OFFCURVE",
"766 229 CURVE",
"767 244 OFFCURVE",
"761 262 OFFCURVE",
"748 283 CURVE",
"735 301 LINE",
"714 337 OFFCURVE",
"685 378 OFFCURVE",
"682 438 CURVE SMOOTH",
"681 465 OFFCURVE",
"681 485 OFFCURVE",
"683 498 CURVE SMOOTH",
"685 510 OFFCURVE",
"686 519 OFFCURVE",
"686 526 CURVE",
"681 531 OFFCURVE",
"677 534 OFFCURVE",
"672 537 CURVE",
"663 546 OFFCURVE",
"655 553 OFFCURVE",
"649 557 CURVE",
"640 566 OFFCURVE",
"632 573 OFFCURVE",
"627 578 CURVE",
"602 590 OFFCURVE",
"576 599 OFFCURVE",
"549 605 CURVE SMOOTH",
"522 611 OFFCURVE",
"496 620 OFFCURVE",
"473 631 CURVE",
"454 639 OFFCURVE",
"419 656 OFFCURVE",
"383 680 CURVE SMOOTH",
"347 704 OFFCURVE",
"309 738 OFFCURVE",
"285 778 CURVE",
"278 737 OFFCURVE",
"275 695 OFFCURVE",
"275 654 CURVE SMOOTH",
"275 625 OFFCURVE",
"277 597 OFFCURVE",
"280 568 CURVE SMOOTH"
);
},
{
closed = 1;
nodes = (
"568 1232 OFFCURVE",
"582 1233 OFFCURVE",
"595 1233 CURVE SMOOTH",
"605 1233 OFFCURVE",
"615 1233 OFFCURVE",
"626 1232 CURVE SMOOTH",
"650 1230 OFFCURVE",
"666 1219 OFFCURVE",
"674 1200 CURVE SMOOTH",
"690 1164 OFFCURVE",
"725 1132 OFFCURVE",
"764 1108 CURVE SMOOTH",
"769 1105 OFFCURVE",
"777 1103 OFFCURVE",
"788 1102 CURVE",
"791 1101 OFFCURVE",
"798 1095 OFFCURVE",
"811 1085 CURVE",
"812 1085 OFFCURVE",
"814 1084 OFFCURVE",
"815 1083 CURVE SMOOTH",
"816 1082 OFFCURVE",
"818 1080 OFFCURVE",
"821 1079 CURVE SMOOTH",
"840 1073 LINE",
"857 1078 OFFCURVE",
"870 1075 OFFCURVE",
"879 1063 CURVE",
"895 1055 OFFCURVE",
"909 1045 OFFCURVE",
"927 1029 CURVE",
"936 1020 OFFCURVE",
"943 1010 OFFCURVE",
"950 999 CURVE",
"942 986 OFFCURVE",
"933 972 OFFCURVE",
"922 958 CURVE",
"905 938 LINE",
"900 933 OFFCURVE",
"892 927 OFFCURVE",
"881 922 CURVE",
"881 921 OFFCURVE",
"881 920 OFFCURVE",
"882 920 CURVE SMOOTH",
"883 920 OFFCURVE",
"883 919 OFFCURVE",
"883 918 CURVE",
"888 910 OFFCURVE",
"886 903 OFFCURVE",
"877 897 CURVE",
"866 892 OFFCURVE",
"854 889 OFFCURVE",
"840 889 CURVE",
"819 885 LINE",
"812 884 OFFCURVE",
"808 881 OFFCURVE",
"805 877 CURVE",
"805 876 OFFCURVE",
"803 874 OFFCURVE",
"799 872 CURVE",
"794 871 OFFCURVE",
"789 867 OFFCURVE",
"784 862 CURVE SMOOTH",
"776 854 OFFCURVE",
"770 839 OFFCURVE",
"766 817 CURVE SMOOTH",
"765 812 OFFCURVE",
"762 806 OFFCURVE",
"758 801 CURVE",
"761 778 OFFCURVE",
"762 756 OFFCURVE",
"762 736 CURVE SMOOTH",
"762 726 OFFCURVE",
"762 717 OFFCURVE",
"761 708 CURVE",
"759 681 OFFCURVE",
"750 666 OFFCURVE",
"735 662 CURVE SMOOTH",
"722 659 OFFCURVE",
"704 666 OFFCURVE",
"676 681 CURVE SMOOTH",
"662 688 OFFCURVE",
"646 700 OFFCURVE",
"627 715 CURVE",
"630 702 OFFCURVE",
"634 689 OFFCURVE",
"639 678 CURVE",
"642 673 OFFCURVE",
"644 666 OFFCURVE",
"645 659 CURVE",
"649 659 OFFCURVE",
"653 660 OFFCURVE",
"657 661 CURVE",
"660 662 OFFCURVE",
"663 662 OFFCURVE",
"666 662 CURVE SMOOTH",
"679 662 OFFCURVE",
"686 645 OFFCURVE",
"678 637 CURVE",
"673 627 LINE",
"672 626 OFFCURVE",
"672 624 OFFCURVE",
"672 623 CURVE",
"684 616 LINE SMOOTH",
"692 611 OFFCURVE",
"697 606 OFFCURVE",
"700 602 CURVE",
"703 602 OFFCURVE",
"705 602 OFFCURVE",
"707 601 CURVE",
"708 600 OFFCURVE",
"710 600 OFFCURVE",
"713 600 CURVE SMOOTH",
"728 600 OFFCURVE",
"746 601 OFFCURVE",
"766 603 CURVE SMOOTH",
"805 607 OFFCURVE",
"847 606 OFFCURVE",
"890 590 CURVE SMOOTH",
"911 582 OFFCURVE",
"931 567 OFFCURVE",
"950 545 CURVE",
"989 504 OFFCURVE",
"1032 478 OFFCURVE",
"1065 458 CURVE SMOOTH",
"1098 437 OFFCURVE",
"1120 419 OFFCURVE",
"1120 391 CURVE SMOOTH",
"1120 336 OFFCURVE",
"1112 275 OFFCURVE",
"1104 254 CURVE",
"1099 230 OFFCURVE",
"1052 181 OFFCURVE",
"997 145 CURVE SMOOTH",
"978 132 OFFCURVE",
"964 113 OFFCURVE",
"952 82 CURVE",
"945 67 OFFCURVE",
"942 50 OFFCURVE",
"942 31 CURVE",
"931 12 OFFCURVE",
"923 -5 OFFCURVE",
"916 -20 CURVE SMOOTH",
"909 -35 OFFCURVE",
"902 -48 OFFCURVE",
"897 -59 CURVE",
"892 -72 OFFCURVE",
"886 -84 OFFCURVE",
"881 -94 CURVE",
"930 -103 OFFCURVE",
"978 -108 OFFCURVE",
"1025 -108 CURVE SMOOTH",
"1184 -108 OFFCURVE",
"1397 -57 OFFCURVE",
"1573 135 CURVE SMOOTH",
"1704 274 OFFCURVE",
"1771 454 OFFCURVE",
"1776 639 CURVE",
"1702 594 LINE",
"1693 595 OFFCURVE",
"1684 596 OFFCURVE",
"1677 596 CURVE SMOOTH",
"1662 596 OFFCURVE",
"1654 591 OFFCURVE",
"1655 582 CURVE",
"1686 569 LINE",
"1691 566 OFFCURVE",
"1695 564 OFFCURVE",
"1696 561 CURVE SMOOTH",
"1700 549 OFFCURVE",
"1697 535 OFFCURVE",
"1688 518 CURVE",
"1671 494 LINE",
"1667 489 OFFCURVE",
"1663 484 OFFCURVE",
"1659 479 CURVE",
"1645 465 LINE",
"1630 451 LINE",
"1630 447 OFFCURVE",
"1630 443 OFFCURVE",
"1629 438 CURVE SMOOTH",
"1628 433 OFFCURVE",
"1628 427 OFFCURVE",
"1628 422 CURVE SMOOTH",
"1628 401 OFFCURVE",
"1617 374 OFFCURVE",
"1604 346 CURVE",
"1604 319 LINE",
"1601 310 OFFCURVE",
"1598 301 OFFCURVE",
"1595 294 CURVE",
"1591 287 OFFCURVE",
"1588 279 OFFCURVE",
"1585 270 CURVE",
"1582 263 OFFCURVE",
"1579 257 OFFCURVE",
"1576 250 CURVE SMOOTH",
"1573 243 OFFCURVE",
"1570 236 OFFCURVE",
"1569 227 CURVE SMOOTH",
"1565 192 OFFCURVE",
"1549 159 OFFCURVE",
"1522 129 CURVE",
"1489 96 OFFCURVE",
"1460 79 OFFCURVE",
"1437 79 CURVE SMOOTH",
"1434 79 OFFCURVE",
"1432 79 OFFCURVE",
"1430 80 CURVE",
"1406 85 OFFCURVE",
"1394 116 OFFCURVE",
"1389 137 CURVE",
"1388 138 OFFCURVE",
"1387 141 OFFCURVE",
"1386 145 CURVE",
"1378 162 LINE",
"1375 167 OFFCURVE",
"1373 173 OFFCURVE",
"1370 180 CURVE SMOOTH",
"1363 197 OFFCURVE",
"1357 214 OFFCURVE",
"1350 231 CURVE SMOOTH",
"1343 248 OFFCURVE",
"1340 266 OFFCURVE",
"1343 285 CURVE",
"1343 288 OFFCURVE",
"1344 291 OFFCURVE",
"1345 295 CURVE SMOOTH",
"1346 299 OFFCURVE",
"1346 303 OFFCURVE",
"1346 307 CURVE",
"1351 338 OFFCURVE",
"1356 366 OFFCURVE",
"1341 395 CURVE",
"1335 408 LINE",
"1324 429 OFFCURVE",
"1318 445 OFFCURVE",
"1331 477 CURVE",
"1331 478 OFFCURVE",
"1325 480 OFFCURVE",
"1314 483 CURVE SMOOTH",
"1302 486 OFFCURVE",
"1282 487 OFFCURVE",
"1253 487 CURVE SMOOTH",
"1237 487 LINE",
"1231 487 LINE SMOOTH",
"1172 487 OFFCURVE",
"1135 523 OFFCURVE",
"1120 594 CURVE SMOOTH",
"1118 605 OFFCURVE",
"1117 615 OFFCURVE",
"1117 626 CURVE SMOOTH",
"1117 659 OFFCURVE",
"1127 692 OFFCURVE",
"1147 723 CURVE",
"1148 726 OFFCURVE",
"1149 729 OFFCURVE",
"1149 733 CURVE SMOOTH",
"1149 742 OFFCURVE",
"1150 749 OFFCURVE",
"1151 754 CURVE",
"1164 757 OFFCURVE",
"1169 764 OFFCURVE",
"1176 772 CURVE",
"1184 788 LINE",
"1199 789 OFFCURVE",
"1217 792 OFFCURVE",
"1238 796 CURVE SMOOTH",
"1278 803 OFFCURVE",
"1324 807 OFFCURVE",
"1361 806 CURVE SMOOTH",
"1380 805 OFFCURVE",
"1394 802 OFFCURVE",
"1405 797 CURVE",
"1424 784 OFFCURVE",
"1456 762 OFFCURVE",
"1483 754 CURVE",
"1540 793 LINE",
"1516 837 OFFCURVE",
"1492 855 OFFCURVE",
"1479 866 CURVE",
"1471 871 OFFCURVE",
"1463 875 OFFCURVE",
"1456 877 CURVE",
"1448 876 OFFCURVE",
"1441 873 OFFCURVE",
"1434 870 CURVE",
"1421 866 OFFCURVE",
"1408 857 OFFCURVE",
"1395 842 CURVE",
"1260 854 LINE",
"1247 841 OFFCURVE",
"1225 839 OFFCURVE",
"1210 836 CURVE",
"1201 835 OFFCURVE",
"1192 834 OFFCURVE",
"1184 834 CURVE",
"1181 847 OFFCURVE",
"1178 859 OFFCURVE",
"1174 868 CURVE SMOOTH",
"1166 885 OFFCURVE",
"1162 898 OFFCURVE",
"1161 907 CURVE SMOOTH",
"1159 925 OFFCURVE",
"1168 934 OFFCURVE",
"1181 942 CURVE",
"1193 950 OFFCURVE",
"1202 969 OFFCURVE",
"1203 985 CURVE SMOOTH",
"1204 1001 OFFCURVE",
"1207 1026 OFFCURVE",
"1220 1060 CURVE SMOOTH",
"1232 1094 OFFCURVE",
"1255 1142 OFFCURVE",
"1296 1164 CURVE SMOOTH",
"1337 1186 OFFCURVE",
"1388 1198 OFFCURVE",
"1440 1205 CURVE SMOOTH",
"1466 1208 OFFCURVE",
"1490 1211 OFFCURVE",
"1513 1212 CURVE",
"1465 1253 OFFCURVE",
"1416 1287 OFFCURVE",
"1366 1315 CURVE",
"1345 1315 OFFCURVE",
"1324 1320 OFFCURVE",
"1305 1325 CURVE",
"1266 1333 OFFCURVE",
"1228 1340 OFFCURVE",
"1192 1327 CURVE SMOOTH",
"1179 1322 OFFCURVE",
"1166 1315 OFFCURVE",
"1153 1307 CURVE",
"1134 1294 OFFCURVE",
"1113 1283 OFFCURVE",
"1092 1280 CURVE",
"1079 1277 OFFCURVE",
"1066 1276 OFFCURVE",
"1053 1276 CURVE SMOOTH",
"957 1276 OFFCURVE",
"854 1317 OFFCURVE",
"782 1356 CURVE",
"700 1329 OFFCURVE",
"624 1287 OFFCURVE",
"555 1231 CURVE"
);
}
);
width = 2048;
}
);
unicode = 004C;
},
{
glyphname = M;
lastChange = "2012-07-03 13:53:28 +0000";
layers = (
{
layerId = "1730482B-7E8C-4DF6-A2D5-70B9989D176C";
name = Regular;
paths = (
{
closed = 1;
nodes = (
"154 913 LINE SMOOTH",
"154 934 OFFCURVE",
"162 950 OFFCURVE",
"178 963 CURVE SMOOTH",
"981 1606 LINE SMOOTH",
"992 1615 OFFCURVE",
"1005 1620 OFFCURVE",
"1020 1620 CURVE SMOOTH",
"1035 1620 OFFCURVE",
"1048 1615 OFFCURVE",
"1061 1606 CURVE",
"1890 963 LINE",
"1907 952 OFFCURVE",
"1915 936 OFFCURVE",
"1915 913 CURVE SMOOTH",
"1915 -250 LINE SMOOTH",
"1915 -286 OFFCURVE",
"1887 -313 OFFCURVE",
"1851 -313 CURVE SMOOTH",
"1374 -313 LINE SMOOTH",
"1338 -313 OFFCURVE",
"1311 -285 OFFCURVE",
"1311 -250 CURVE SMOOTH",
"1311 463 LINE",
"760 463 LINE",
"760 -250 LINE SMOOTH",
"760 -286 OFFCURVE",
"732 -313 OFFCURVE",
"696 -313 CURVE SMOOTH",
"217 -313 LINE SMOOTH",
"181 -313 OFFCURVE",
"154 -286 OFFCURVE",
"154 -250 CURVE SMOOTH"
);
}
);
width = 2048;
}
);
unicode = 004D;
},
{
glyphname = N;
lastChange = "2012-07-03 13:53:28 +0000";
layers = (
{
anchors = (
{
name = bottom;
position = "{1024, 0}";
},
{
name = top;
position = "{1024, 1470}";
}
);
layerId = "1730482B-7E8C-4DF6-A2D5-70B9989D176C";
name = Regular;
paths = (
{
closed = 1;
nodes = (
"66 492 LINE SMOOTH",
"66 1033 OFFCURVE",
"330 1316 OFFCURVE",
"862 1343 CURVE",
"864 1343 OFFCURVE",
"866 1343 OFFCURVE",
"868 1344 CURVE",
"891 1344 OFFCURVE",
"913 1328 OFFCURVE",
"920 1300 CURVE SMOOTH",
"975 1049 LINE",
"983 1018 OFFCURVE",
"959 984 OFFCURVE",
"928 981 CURVE",
"695 948 OFFCURVE",
"576 839 OFFCURVE",
"573 653 CURVE",
"784 653 LINE SMOOTH",
"815 653 OFFCURVE",
"840 629 OFFCURVE",
"840 598 CURVE SMOOTH",
"840 -193 LINE SMOOTH",
"840 -226 OFFCURVE",
"815 -250 OFFCURVE",
"784 -250 CURVE SMOOTH",
"123 -250 LINE SMOOTH",
"92 -250 OFFCURVE",
"66 -226 OFFCURVE",
"66 -193 CURVE SMOOTH"
);
},
{
closed = 1;
nodes = (
"1087 492 LINE SMOOTH",
"1087 1033 OFFCURVE",
"1352 1316 OFFCURVE",
"1884 1343 CURVE",
"1886 1343 OFFCURVE",
"1888 1343 OFFCURVE",
"1890 1344 CURVE",
"1913 1344 OFFCURVE",
"1935 1328 OFFCURVE",
"1942 1300 CURVE SMOOTH",
"1997 1049 LINE SMOOTH",
"1998 1044 OFFCURVE",
"1999 1040 OFFCURVE",
"1999 1035 CURVE SMOOTH",
"1999 1015 OFFCURVE",
"1983 988 OFFCURVE",
"1950 981 CURVE",
"1717 948 OFFCURVE",
"1598 839 OFFCURVE",
"1595 653 CURVE",
"1806 653 LINE SMOOTH",
"1837 653 OFFCURVE",
"1862 629 OFFCURVE",
"1862 598 CURVE SMOOTH",
"1862 -193 LINE SMOOTH",
"1862 -226 OFFCURVE",
"1837 -250 OFFCURVE",
"1806 -250 CURVE SMOOTH",
"1145 -250 LINE SMOOTH",
"1114 -250 OFFCURVE",
"1087 -226 OFFCURVE",
"1087 -193 CURVE SMOOTH"
);
}
);
width = 2048;
}
);
unicode = 004E;
},
{
glyphname = O;
lastChange = "2012-07-03 13:53:28 +0000";
layers = (
{
anchors = (
{
name = top;
position = "{1024, 1470}";
}
);
layerId = "1730482B-7E8C-4DF6-A2D5-70B9989D176C";
name = Regular;
paths = (
{
closed = 1;
nodes = (
"16 367 LINE SMOOTH",
"16 393 OFFCURVE",
"26 411 OFFCURVE",
"47 420 CURVE SMOOTH",
"350 561 LINE",
"279 605 OFFCURVE",
"229 689 OFFCURVE",
"229 793 CURVE SMOOTH",
"229 864 OFFCURVE",
"254 928 OFFCURVE",
"295 975 CURVE SMOOTH",
"336 1022 OFFCURVE",
"390 1051 OFFCURVE",
"453 1051 CURVE SMOOTH",
"516 1051 OFFCURVE",
"572 1022 OFFCURVE",
"612 975 CURVE SMOOTH",
"651 928 OFFCURVE",
"676 864 OFFCURVE",
"676 793 CURVE SMOOTH",
"676 712 OFFCURVE",
"645 639 OFFCURVE",
"596 592 CURVE",
"469 532 LINE",
"420 511 OFFCURVE",
"387 456 OFFCURVE",
"387 393 CURVE SMOOTH",
"387 156 LINE",
"66 156 LINE SMOOTH",
"39 156 OFFCURVE",
"16 182 OFFCURVE",
"16 213 CURVE SMOOTH"
);
},
{
closed = 1;
nodes = (
"453 393 LINE SMOOTH",
"453 426 OFFCURVE",
"467 449 OFFCURVE",
"494 463 CURVE",
"887 645 LINE",
"791 702 OFFCURVE",
"729 815 OFFCURVE",
"729 946 CURVE SMOOTH",
"729 1039 OFFCURVE",
"761 1124 OFFCURVE",
"814 1185 CURVE SMOOTH",
"867 1246 OFFCURVE",
"937 1284 OFFCURVE",
"1020 1284 CURVE SMOOTH",
"1099 1284 OFFCURVE",
"1173 1246 OFFCURVE",
"1225 1185 CURVE SMOOTH",
"1277 1124 OFFCURVE",
"1309 1039 OFFCURVE",
"1309 946 CURVE SMOOTH",
"1309 815 OFFCURVE",
"1248 706 OFFCURVE",
"1157 649 CURVE",
"1546 463 LINE SMOOTH",
"1573 450 OFFCURVE",
"1587 426 OFFCURVE",
"1587 393 CURVE SMOOTH",
"1587 82 LINE SMOOTH",
"1587 41 OFFCURVE",
"1559 6 OFFCURVE",
"1522 6 CURVE SMOOTH",
"516 6 LINE SMOOTH",
"480 6 OFFCURVE",
"453 41 OFFCURVE",
"453 82 CURVE SMOOTH"
);
},
{
closed = 1;
nodes = (
"1364 864 OFFCURVE",
"1389 928 OFFCURVE",
"1430 975 CURVE SMOOTH",
"1470 1022 OFFCURVE",
"1524 1051 OFFCURVE",
"1587 1051 CURVE SMOOTH",
"1647 1051 OFFCURVE",
"1704 1022 OFFCURVE",
"1745 975 CURVE SMOOTH",
"1786 928 OFFCURVE",
"1810 864 OFFCURVE",
"1810 793 CURVE SMOOTH",
"1810 692 OFFCURVE",
"1765 607 OFFCURVE",
"1694 563 CURVE",
"1993 420 LINE",
"2014 409 OFFCURVE",
"2024 392 OFFCURVE",
"2023 367 CURVE",
"2023 213 LINE SMOOTH",
"2023 182 OFFCURVE",
"2002 156 OFFCURVE",
"1974 156 CURVE SMOOTH",
"1651 156 LINE",
"1651 393 LINE SMOOTH",
"1651 456 OFFCURVE",
"1620 511 OFFCURVE",
"1571 532 CURVE",
"1444 594 LINE",
"1395 641 OFFCURVE",
"1364 714 OFFCURVE",
"1364 793 CURVE SMOOTH"
);
}
);
width = 2048;
}
);
unicode = 004F;
},
{
glyphname = P;
lastChange = "2012-07-03 13:53:28 +0000";
layers = (
{
layerId = "1730482B-7E8C-4DF6-A2D5-70B9989D176C";
name = Regular;
paths = (
{
closed = 1;
nodes = (
"121 1286 LINE SMOOTH",
"121 1349 OFFCURVE",
"168 1399 OFFCURVE",
"231 1399 CURVE SMOOTH",
"1833 1399 LINE SMOOTH",
"1896 1399 OFFCURVE",
"1944 1349 OFFCURVE",
"1944 1286 CURVE SMOOTH",
"1944 309 LINE SMOOTH",
"1944 246 OFFCURVE",
"1896 199 OFFCURVE",
"1833 199 CURVE SMOOTH",
"1270 199 LINE",
"1270 29 LINE",
"1401 29 LINE SMOOTH",
"1417 29 OFFCURVE",
"1432 15 OFFCURVE",
"1432 -4 CURVE SMOOTH",
"1432 -76 LINE SMOOTH",
"1432 -95 OFFCURVE",
"1417 -106 OFFCURVE",
"1401 -106 CURVE SMOOTH",
"647 -106 LINE SMOOTH",
"631 -106 OFFCURVE",
"616 -95 OFFCURVE",
"616 -76 CURVE SMOOTH",
"616 -4 LINE SMOOTH",
"616 15 OFFCURVE",
"631 29 OFFCURVE",
"647 29 CURVE SMOOTH",
"778 29 LINE",
"778 199 LINE",
"231 199 LINE SMOOTH",
"168 199 OFFCURVE",
"121 246 OFFCURVE",
"121 309 CURVE SMOOTH"
);
},
{
closed = 1;
nodes = (
"344 422 LINE",
"1720 422 LINE",
"1720 1174 LINE",
"344 1174 LINE"
);
}
);
width = 2048;
}
);
unicode = 0050;
},
{
glyphname = Q;
lastChange = "2012-07-03 13:53:28 +0000";
layers = (
{
layerId = "1730482B-7E8C-4DF6-A2D5-70B9989D176C";
name = Regular;
paths = (
{
closed = 1;
nodes = (
"27 176 LINE SMOOTH",
"27 203 OFFCURVE",
"48 223 OFFCURVE",
"76 223 CURVE SMOOTH",
"1972 223 LINE SMOOTH",
"1999 223 OFFCURVE",
"2019 204 OFFCURVE",
"2019 176 CURVE SMOOTH",
"2019 59 LINE SMOOTH",
"2019 46 OFFCURVE",
"2015 35 OFFCURVE",
"2007 27 CURVE SMOOTH",
"1933 -47 LINE",
"1925 -56 OFFCURVE",
"1913 -61 OFFCURVE",
"1898 -61 CURVE SMOOTH",
"143 -61 LINE SMOOTH",
"128 -61 OFFCURVE",
"116 -56 OFFCURVE",
"109 -47 CURVE",
"39 27 LINE SMOOTH",
"31 36 OFFCURVE",
"27 47 OFFCURVE",
"27 59 CURVE SMOOTH"
);
},
{
closed = 1;
nodes = (
"233 1260 LINE SMOOTH",
"233 1315 OFFCURVE",
"275 1356 OFFCURVE",
"330 1356 CURVE SMOOTH",
"1718 1356 LINE SMOOTH",
"1773 1356 OFFCURVE",
"1815 1313 OFFCURVE",
"1815 1260 CURVE SMOOTH",
"1815 410 LINE SMOOTH",
"1815 355 OFFCURVE",
"1773 313 OFFCURVE",
"1718 313 CURVE SMOOTH",
"330 313 LINE SMOOTH",
"275 313 OFFCURVE",
"233 355 OFFCURVE",
"233 410 CURVE SMOOTH"
);
},
{
closed = 1;
nodes = (
"426 506 LINE",
"1622 506 LINE",
"1622 1163 LINE",
"426 1163 LINE"
);
},
{
closed = 1;
nodes = (
"842 25 LINE SMOOTH",
"842 18 OFFCURVE",
"843 13 OFFCURVE",
"844 8 CURVE SMOOTH",
"845 3 OFFCURVE",
"847 0 OFFCURVE",
"850 0 CURVE SMOOTH",
"1196 0 LINE SMOOTH",
"1199 0 OFFCURVE",
"1201 2 OFFCURVE",
"1202 7 CURVE SMOOTH",
"1203 12 OFFCURVE",
"1204 18 OFFCURVE",
"1204 25 CURVE SMOOTH",
"1204 137 LINE SMOOTH",
"1204 144 OFFCURVE",
"1203 150 OFFCURVE",
"1202 155 CURVE SMOOTH",
"1201 160 OFFCURVE",
"1199 162 OFFCURVE",
"1196 162 CURVE SMOOTH",
"850 162 LINE SMOOTH",
"847 162 OFFCURVE",
"845 160 OFFCURVE",
"844 155 CURVE SMOOTH",
"843 150 OFFCURVE",
"842 144 OFFCURVE",
"842 137 CURVE SMOOTH"
);
}
);
width = 2048;
}
);
unicode = 0051;
},
{
glyphname = R;
lastChange = "2012-07-03 13:53:28 +0000";
layers = (
{
anchors = (
{
name = bottom;
position = "{1024, 0}";
},
{
name = top;
position = "{1024, 1470}";
}
);
layerId = "1730482B-7E8C-4DF6-A2D5-70B9989D176C";
name = Regular;
paths = (
{
closed = 1;
nodes = (
"69 1247 OFFCURVE",
"67 1258 OFFCURVE",
"86 1298 CURVE SMOOTH",
"95 1317 OFFCURVE",
"107 1333 OFFCURVE",
"121 1346 CURVE",
"393 1618 LINE SMOOTH",
"412 1637 OFFCURVE",
"434 1647 OFFCURVE",
"459 1647 CURVE SMOOTH",
"495 1647 OFFCURVE",
"521 1624 OFFCURVE",
"541 1593 CURVE",
"760 1178 LINE",
"769 1163 OFFCURVE",
"773 1146 OFFCURVE",
"773 1129 CURVE SMOOTH",
"773 1122 OFFCURVE",
"772 1114 OFFCURVE",
"770 1106 CURVE",
"765 1080 OFFCURVE",
"753 1058 OFFCURVE",
"735 1040 CURVE SMOOTH",
"635 940 LINE SMOOTH",
"630 935 OFFCURVE",
"625 920 OFFCURVE",
"625 911 CURVE",
"636 854 OFFCURVE",
"670 788 OFFCURVE",
"738 694 CURVE SMOOTH",
"771 647 OFFCURVE",
"820 592 OFFCURVE",
"883 530 CURVE SMOOTH",
"1006 405 OFFCURVE",
"1102 340 OFFCURVE",
"1166 308 CURVE SMOOTH",
"1198 291 OFFCURVE",
"1223 281 OFFCURVE",
"1240 278 CURVE",
"1266 272 LINE",
"1271 272 OFFCURVE",
"1287 278 OFFCURVE",
"1292 283 CURVE SMOOTH",
"1409 401 LINE",
"1434 423 OFFCURVE",
"1462 434 OFFCURVE",
"1495 434 CURVE SMOOTH",
"1518 434 OFFCURVE",
"1537 430 OFFCURVE",
"1550 422 CURVE",
"1552 422 LINE",
"1948 188 LINE SMOOTH",
"1977 170 OFFCURVE",
"1994 148 OFFCURVE",
"1999 121 CURVE SMOOTH",
"2000 116 OFFCURVE",
"2000 112 OFFCURVE",
"2000 107 CURVE SMOOTH",
"2000 82 OFFCURVE",
"1990 59 OFFCURVE",
"1970 39 CURVE SMOOTH",
"1698 -231 LINE",
"1674 -258 OFFCURVE",
"1630 -280 OFFCURVE",
"1591 -285 CURVE",
"1590 -285 OFFCURVE",
"1586 -285 OFFCURVE",
"1579 -286 CURVE SMOOTH",
"1572 -287 OFFCURVE",
"1563 -287 OFFCURVE",
"1552 -287 CURVE SMOOTH",
"1526 -287 OFFCURVE",
"1484 -282 OFFCURVE",
"1426 -273 CURVE SMOOTH",
"1310 -255 OFFCURVE",
"1140 -191 OFFCURVE",
"928 -51 CURVE SMOOTH",
"821 18 OFFCURVE",
"708 114 OFFCURVE",
"588 236 CURVE SMOOTH",
"397 424 OFFCURVE",
"275 599 OFFCURVE",
"199 745 CURVE SMOOTH",
"122 891 OFFCURVE",
"87 1010 OFFCURVE",
"74 1097 CURVE SMOOTH",
"68 1133 OFFCURVE",
"65 1162 OFFCURVE",
"65 1185 CURVE",
"66 1190 OFFCURVE",
"66 1194 OFFCURVE",
"66 1198 CURVE"
);
}
);
width = 2048;
}
);
unicode = 0052;
},
{
glyphname = S;
lastChange = "2012-07-03 13:53:28 +0000";
layers = (
{
anchors = (
{
name = bottom;
position = "{1024, 0}";
},
{
name = top;
position = "{1024, 1470}";
}
);
layerId = "1730482B-7E8C-4DF6-A2D5-70B9989D176C";
name = Regular;
paths = (
{
closed = 1;
nodes = (
"37 645 OFFCURVE",
"88 773 OFFCURVE",
"173 863 CURVE SMOOTH",
"257 953 OFFCURVE",
"369 1010 OFFCURVE",
"498 1010 CURVE SMOOTH",
"531 1010 OFFCURVE",
"563 1006 OFFCURVE",
"594 997 CURVE",
"709 1161 OFFCURVE",
"885 1255 OFFCURVE",
"1073 1255 CURVE SMOOTH",
"1206 1255 OFFCURVE",
"1335 1207 OFFCURVE",
"1437 1124 CURVE SMOOTH",
"1539 1040 OFFCURVE",
"1614 922 OFFCURVE",
"1653 782 CURVE",
"1665 783 OFFCURVE",
"1677 784 OFFCURVE",
"1689 784 CURVE SMOOTH",
"1758 784 OFFCURVE",
"1840 759 OFFCURVE",
"1905 695 CURVE SMOOTH",
"1970 631 OFFCURVE",
"2011 538 OFFCURVE",
"2011 434 CURVE SMOOTH",
"2011 357 OFFCURVE",
"1990 288 OFFCURVE",
"1948 225 CURVE SMOOTH",
"1936 206 OFFCURVE",
"1919 196 OFFCURVE",
"1896 197 CURVE",
"168 197 LINE SMOOTH",
"143 197 OFFCURVE",
"126 207 OFFCURVE",
"115 227 CURVE",
"63 312 OFFCURVE",
"37 405 OFFCURVE",
"37 506 CURVE SMOOTH"
);
}
);
width = 2048;
}
);
unicode = 0053;
},
{
glyphname = T;
lastChange = "2012-07-03 13:53:28 +0000";
layers = (
{
anchors = (
{
name = bottom;
position = "{1024, 0}";
},
{
name = center;
position = "{1024, 735}";
},
{
name = top;
position = "{1024, 1470}";
}
);
layerId = "1730482B-7E8C-4DF6-A2D5-70B9989D176C";
name = Regular;
paths = (
{
closed = 1;
nodes = (
"66 910 OFFCURVE",
"173 1152 OFFCURVE",
"348 1328 CURVE SMOOTH",
"523 1504 OFFCURVE",
"764 1612 OFFCURVE",
"1032 1612 CURVE SMOOTH",
"1297 1612 OFFCURVE",
"1539 1504 OFFCURVE",
"1715 1328 CURVE SMOOTH",
"1891 1152 OFFCURVE",
"1999 910 OFFCURVE",
"1999 645 CURVE SMOOTH",
"1999 377 OFFCURVE",
"1891 138 OFFCURVE",
"1715 -38 CURVE SMOOTH",
"1539 -214 OFFCURVE",
"1297 -322 OFFCURVE",
"1032 -322 CURVE SMOOTH",
"764 -322 OFFCURVE",
"523 -214 OFFCURVE",
"348 -38 CURVE SMOOTH",
"173 138 OFFCURVE",
"66 377 OFFCURVE",
"66 645 CURVE SMOOTH"
);
},
{
closed = 1;
nodes = (
"322 449 OFFCURVE",
"402 272 OFFCURVE",
"531 144 CURVE SMOOTH",
"659 15 OFFCURVE",
"836 -66 OFFCURVE",
"1032 -66 CURVE SMOOTH",
"1228 -66 OFFCURVE",
"1406 15 OFFCURVE",
"1534 144 CURVE SMOOTH",
"1662 272 OFFCURVE",
"1743 449 OFFCURVE",
"1743 645 CURVE SMOOTH",
"1743 841 OFFCURVE",
"1662 1019 OFFCURVE",
"1534 1147 CURVE SMOOTH",
"1406 1275 OFFCURVE",
"1229 1356 OFFCURVE",
"1032 1356 CURVE SMOOTH",
"836 1356 OFFCURVE",
"659 1275 OFFCURVE",
"531 1147 CURVE SMOOTH",
"402 1019 OFFCURVE",
"322 841 OFFCURVE",
"322 645 CURVE SMOOTH"
);
},
{
closed = 1;
nodes = (
"526 502 LINE SMOOTH",
"526 475 OFFCURVE",
"548 453 OFFCURVE",
"575 453 CURVE SMOOTH",
"1489 453 LINE SMOOTH",
"1516 453 OFFCURVE",
"1536 474 OFFCURVE",
"1536 502 CURVE SMOOTH",
"1536 788 LINE SMOOTH",
"1536 815 OFFCURVE",
"1516 838 OFFCURVE",
"1489 838 CURVE SMOOTH",
"575 838 LINE SMOOTH",
"548 838 OFFCURVE",
"526 816 OFFCURVE",
"526 788 CURVE SMOOTH"
);
}
);
width = 2048;
}
);
unicode = 0054;
},
{
glyphname = U;
lastChange = "2012-07-03 13:53:28 +0000";
layers = (
{
anchors = (
{
name = ogonek;
position = "{1843, 10}";
},
{
name = top;
position = "{1024, 1470}";
}
);
layerId = "1730482B-7E8C-4DF6-A2D5-70B9989D176C";
name = Regular;
paths = (
{
closed = 1;
nodes = (
"49 946 LINE SMOOTH",
"49 985 OFFCURVE",
"76 1012 OFFCURVE",
"115 1012 CURVE SMOOTH",
"946 1012 LINE",
"946 1321 LINE SMOOTH",
"946 1347 OFFCURVE",
"958 1366 OFFCURVE",
"981 1378 CURVE SMOOTH",
"991 1383 OFFCURVE",
"1001 1386 OFFCURVE",
"1010 1386 CURVE SMOOTH",
"1023 1386 OFFCURVE",
"1035 1381 OFFCURVE",
"1047 1372 CURVE SMOOTH",
"1974 715 LINE SMOOTH",
"1992 702 OFFCURVE",
"2001 685 OFFCURVE",
"2001 664 CURVE SMOOTH",
"2001 662 LINE SMOOTH",
"2001 641 OFFCURVE",
"1992 624 OFFCURVE",
"1974 610 CURVE",
"1047 -53 LINE",
"1024 -68 OFFCURVE",
"1001 -68 OFFCURVE",
"981 -57 CURVE",
"958 -46 OFFCURVE",
"946 -27 OFFCURVE",
"946 0 CURVE SMOOTH",
"946 309 LINE",
"115 309 LINE SMOOTH",
"76 309 OFFCURVE",
"49 337 OFFCURVE",
"49 373 CURVE SMOOTH"
);
}
);
width = 2048;
}
);
unicode = 0055;
},
{
glyphname = V;
lastChange = "2012-07-03 13:53:28 +0000";
layers = (
{
layerId = "1730482B-7E8C-4DF6-A2D5-70B9989D176C";
name = Regular;
paths = (
{
closed = 1;
nodes = (
"49 679 OFFCURVE",
"58 697 OFFCURVE",
"76 711 CURVE",
"1001 1372 LINE SMOOTH",
"1014 1381 OFFCURVE",
"1027 1385 OFFCURVE",
"1040 1385 CURVE SMOOTH",
"1049 1385 OFFCURVE",
"1059 1383 OFFCURVE",
"1069 1378 CURVE",
"1092 1365 OFFCURVE",
"1104 1346 OFFCURVE",
"1104 1321 CURVE SMOOTH",
"1104 1012 LINE",
"1935 1012 LINE SMOOTH",
"1971 1012 OFFCURVE",
"1999 985 OFFCURVE",
"1999 946 CURVE SMOOTH",
"1999 373 LINE SMOOTH",
"1999 337 OFFCURVE",
"1971 309 OFFCURVE",
"1935 309 CURVE SMOOTH",
"1104 309 LINE",
"1104 0 LINE SMOOTH",
"1104 -27 OFFCURVE",
"1092 -46 OFFCURVE",
"1069 -57 CURVE SMOOTH",
"1049 -66 OFFCURVE",
"1026 -69 OFFCURVE",
"1001 -53 CURVE",
"76 606 LINE SMOOTH",
"58 619 OFFCURVE",
"49 636 OFFCURVE",
"49 657 CURVE SMOOTH"
);
}
);
width = 2048;
}
);
unicode = 0056;
},
{
glyphname = W;
lastChange = "2012-07-03 13:53:28 +0000";
layers = (
{
anchors = (
{
name = top;
position = "{1024, 1470}";
}
);
layerId = "1730482B-7E8C-4DF6-A2D5-70B9989D176C";
name = Regular;
paths = (
{
closed = 1;
nodes = (
"301 627 OFFCURVE",
"298 637 OFFCURVE",
"298 647 CURVE SMOOTH",
"298 659 OFFCURVE",
"302 671 OFFCURVE",
"311 682 CURVE",
"971 1608 LINE",
"992 1647 OFFCURVE",
"1052 1645 OFFCURVE",
"1073 1610 CURVE",
"1737 682 LINE",
"1746 671 OFFCURVE",
"1750 659 OFFCURVE",
"1750 647 CURVE SMOOTH",
"1750 637 OFFCURVE",
"1747 627 OFFCURVE",
"1741 616 CURVE",
"1730 593 OFFCURVE",
"1712 581 OFFCURVE",
"1686 582 CURVE",
"1374 582 LINE",
"1374 -252 LINE SMOOTH",
"1374 -288 OFFCURVE",
"1346 -315 OFFCURVE",
"1311 -315 CURVE SMOOTH",
"737 -315 LINE SMOOTH",
"701 -315 OFFCURVE",
"674 -288 OFFCURVE",
"674 -252 CURVE SMOOTH",
"674 582 LINE",
"362 582 LINE",
"336 581 OFFCURVE",
"318 593 OFFCURVE",
"307 616 CURVE"
);
}
);
width = 2048;
}
);
unicode = 0057;
},
{
glyphname = X;
lastChange = "2012-07-03 13:53:28 +0000";
layers = (
{
layerId = "1730482B-7E8C-4DF6-A2D5-70B9989D176C";
name = Regular;
paths = (
{
closed = 1;
nodes = (
"326 728 OFFCURVE",
"344 740 OFFCURVE",
"371 739 CURVE",
"682 739 LINE",
"682 1571 LINE SMOOTH",
"682 1610 OFFCURVE",
"710 1636 OFFCURVE",
"745 1636 CURVE SMOOTH",
"1319 1636 LINE SMOOTH",
"1355 1636 OFFCURVE",
"1382 1608 OFFCURVE",
"1382 1571 CURVE SMOOTH",
"1382 739 LINE",
"1694 739 LINE SMOOTH",
"1720 739 OFFCURVE",
"1738 728 OFFCURVE",
"1749 705 CURVE",
"1755 694 OFFCURVE",
"1758 684 OFFCURVE",
"1758 674 CURVE SMOOTH",
"1758 662 OFFCURVE",
"1754 650 OFFCURVE",
"1745 639 CURVE",
"1085 -289 LINE",
"1064 -325 OFFCURVE",
"1004 -324 OFFCURVE",
"983 -289 CURVE",
"319 639 LINE",
"310 650 OFFCURVE",
"306 662 OFFCURVE",
"306 674 CURVE SMOOTH",
"306 684 OFFCURVE",
"309 694 OFFCURVE",
"315 705 CURVE"
);
}
);
width = 2048;
}
);
unicode = 0058;
},
{
glyphname = Y;
lastChange = "2012-07-03 13:53:28 +0000";
layers = (
{
anchors = (
{
name = top;
position = "{1024, 1470}";
}
);
layerId = "1730482B-7E8C-4DF6-A2D5-70B9989D176C";
name = Regular;
paths = (
{
closed = 1;
nodes = (
"242 1399 LINE SMOOTH",
"242 1432 OFFCURVE",
"268 1458 OFFCURVE",
"301 1458 CURVE SMOOTH",
"791 1458 LINE",
"791 1534 LINE SMOOTH",
"791 1567 OFFCURVE",
"817 1593 OFFCURVE",
"848 1593 CURVE SMOOTH",
"1200 1593 LINE SMOOTH",
"1231 1593 OFFCURVE",
"1257 1567 OFFCURVE",
"1257 1534 CURVE SMOOTH",
"1257 1458 LINE",
"1747 1458 LINE SMOOTH",
"1780 1458 OFFCURVE",
"1806 1431 OFFCURVE",
"1806 1399 CURVE SMOOTH",
"1806 1227 LINE SMOOTH",
"1806 1194 OFFCURVE",
"1780 1167 OFFCURVE",
"1747 1167 CURVE SMOOTH",
"301 1167 LINE SMOOTH",
"268 1167 OFFCURVE",
"242 1194 OFFCURVE",
"242 1227 CURVE SMOOTH"
);
},
{
closed = 1;
nodes = (
"322 999 LINE SMOOTH",
"322 1032 OFFCURVE",
"348 1059 OFFCURVE",
"381 1059 CURVE SMOOTH",
"1667 1059 LINE SMOOTH",
"1700 1059 OFFCURVE",
"1726 1032 OFFCURVE",
"1726 999 CURVE SMOOTH",
"1726 -244 LINE SMOOTH",
"1726 -277 OFFCURVE",
"1700 -303 OFFCURVE",
"1667 -303 CURVE SMOOTH",
"381 -303 LINE SMOOTH",
"348 -303 OFFCURVE",
"322 -277 OFFCURVE",
"322 -244 CURVE SMOOTH"
);
}
);
width = 2048;
}
);
unicode = 0059;
},
{
glyphname = Z;
lastChange = "2012-07-03 13:53:28 +0000";
layers = (
{
anchors = (
{
name = top;
position = "{1024, 1470}";
}
);
layerId = "1730482B-7E8C-4DF6-A2D5-70B9989D176C";
name = Regular;
paths = (
{
closed = 1;
nodes = (
"215 1106 LINE",
"215 1206 LINE",
"215 1212 LINE",
"217 1212 LINE",
"217 1215 OFFCURVE",
"218 1218 OFFCURVE",
"221 1221 CURVE SMOOTH",
"606 1599 LINE",
"606 1606 LINE",
"618 1606 LINE",
"619 1607 OFFCURVE",
"621 1608 OFFCURVE",
"623 1608 CURVE SMOOTH",
"721 1608 LINE",
"725 1606 LINE",
"1479 1606 LINE SMOOTH",
"1510 1606 OFFCURVE",
"1530 1585 OFFCURVE",
"1530 1554 CURVE SMOOTH",
"1530 985 LINE",
"1364 985 LINE",
"1364 1440 LINE",
"739 1440 LINE",
"739 1106 LINE SMOOTH",
"739 1093 OFFCURVE",
"733 1086 OFFCURVE",
"721 1085 CURVE",
"381 1085 LINE",
"381 -88 LINE",
"1118 -88 LINE",
"1118 -256 LINE",
"266 -256 LINE SMOOTH",
"235 -256 OFFCURVE",
"215 -234 OFFCURVE",
"215 -203 CURVE SMOOTH"
);
},
{
closed = 1;
nodes = (
"924 399 LINE SMOOTH",
"924 417 OFFCURVE",
"933 426 OFFCURVE",
"950 426 CURVE SMOOTH",
"1305 426 LINE",
"1305 780 LINE SMOOTH",
"1305 798 OFFCURVE",
"1314 807 OFFCURVE",
"1331 807 CURVE SMOOTH",
"1579 807 LINE SMOOTH",
"1597 807 OFFCURVE",
"1606 798 OFFCURVE",
"1606 780 CURVE SMOOTH",
"1606 426 LINE",
"1958 426 LINE SMOOTH",
"1976 426 OFFCURVE",
"1985 417 OFFCURVE",
"1985 399 CURVE SMOOTH",
"1985 152 LINE SMOOTH",
"1985 134 OFFCURVE",
"1976 125 OFFCURVE",
"1958 125 CURVE SMOOTH",
"1606 125 LINE",
"1606 -229 LINE SMOOTH",
"1606 -247 OFFCURVE",
"1597 -256 OFFCURVE",
"1579 -256 CURVE SMOOTH",
"1331 -256 LINE SMOOTH",
"1313 -256 OFFCURVE",
"1304 -247 OFFCURVE",
"1305 -229 CURVE",
"1305 125 LINE",
"950 125 LINE SMOOTH",
"933 125 OFFCURVE",
"924 134 OFFCURVE",
"924 152 CURVE SMOOTH"
);
}
);
width = 2048;
}
);
unicode = 005A;
},
{
glyphname = bracketleft;
lastChange = "2012-07-03 13:53:28 +0000";
layers = (
{
layerId = "1730482B-7E8C-4DF6-A2D5-70B9989D176C";
name = Regular;
paths = (
{
closed = 1;
nodes = (
"289 1106 LINE",
"289 1206 LINE",
"289 1212 LINE",
"291 1212 LINE",
"291 1215 OFFCURVE",
"292 1218 OFFCURVE",
"295 1221 CURVE SMOOTH",
"680 1599 LINE",
"680 1606 LINE",
"692 1606 LINE",
"693 1607 OFFCURVE",
"695 1608 OFFCURVE",
"696 1608 CURVE SMOOTH",
"795 1608 LINE",
"799 1606 LINE",
"1552 1606 LINE SMOOTH",
"1583 1606 OFFCURVE",
"1606 1585 OFFCURVE",
"1606 1554 CURVE SMOOTH",
"1606 1159 LINE",
"1630 1184 LINE SMOOTH",
"1637 1191 OFFCURVE",
"1645 1194 OFFCURVE",
"1655 1194 CURVE SMOOTH",
"1664 1194 OFFCURVE",
"1672 1191 OFFCURVE",
"1679 1184 CURVE SMOOTH",
"1933 928 LINE SMOOTH",
"1946 915 OFFCURVE",
"1948 892 OFFCURVE",
"1933 879 CURVE",
"1249 195 LINE SMOOTH",
"1248 194 OFFCURVE",
"1244 191 OFFCURVE",
"1237 186 CURVE",
"858 63 LINE",
"857 63 OFFCURVE",
"855 63 OFFCURVE",
"854 62 CURVE SMOOTH",
"853 61 OFFCURVE",
"851 61 OFFCURVE",
"848 61 CURVE SMOOTH",
"829 61 OFFCURVE",
"804 78 OFFCURVE",
"815 109 CURVE SMOOTH",
"936 483 LINE",
"937 488 OFFCURVE",
"941 495 OFFCURVE",
"948 502 CURVE SMOOTH",
"1438 991 LINE",
"1438 1440 LINE",
"813 1440 LINE",
"813 1106 LINE SMOOTH",
"813 1093 OFFCURVE",
"807 1086 OFFCURVE",
"795 1085 CURVE",
"457 1085 LINE",
"457 -88 LINE",
"702 -88 LINE",
"1192 -88 LINE",
"1438 -88 LINE",
"1438 174 LINE",
"1468 203 OFFCURVE",
"1492 226 OFFCURVE",
"1509 243 CURVE SMOOTH",
"1526 260 OFFCURVE",
"1539 273 OFFCURVE",
"1550 283 CURVE SMOOTH",
"1575 307 LINE SMOOTH",
"1596 328 OFFCURVE",
"1606 312 OFFCURVE",
"1606 293 CURVE SMOOTH",
"1606 -199 LINE SMOOTH",
"1606 -232 OFFCURVE",
"1583 -256 OFFCURVE",
"1552 -256 CURVE SMOOTH",
"1192 -256 LINE",
"702 -256 LINE",
"340 -256 LINE SMOOTH",
"309 -256 OFFCURVE",
"289 -234 OFFCURVE",
"289 -203 CURVE SMOOTH"
);
},
{
closed = 1;
nodes = (
"956 205 LINE",
"1165 274 LINE",
"1024 416 LINE"
);
}
);
width = 2048;
}
);
unicode = 005B;
},
{
glyphname = backslash;
lastChange = "2012-07-03 13:53:28 +0000";
layers = (
{
layerId = "1730482B-7E8C-4DF6-A2D5-70B9989D176C";
name = Regular;
paths = (
{
closed = 1;
nodes = (
"176 731 LINE SMOOTH",
"176 767 OFFCURVE",
"204 795 OFFCURVE",
"240 795 CURVE SMOOTH",
"330 795 LINE",
"434 795 LINE",
"434 1004 LINE SMOOTH",
"434 1163 OFFCURVE",
"500 1309 OFFCURVE",
"604 1413 CURVE SMOOTH",
"708 1517 OFFCURVE",
"853 1583 OFFCURVE",
"1012 1583 CURVE SMOOTH",
"1171 1583 OFFCURVE",
"1317 1517 OFFCURVE",
"1421 1413 CURVE SMOOTH",
"1525 1309 OFFCURVE",
"1591 1161 OFFCURVE",
"1591 1004 CURVE SMOOTH",
"1591 1001 LINE",
"1591 795 LINE",
"1718 795 LINE",
"1808 795 LINE SMOOTH",
"1844 795 OFFCURVE",
"1872 767 OFFCURVE",
"1872 731 CURVE SMOOTH",
"1872 -211 LINE SMOOTH",
"1872 -247 OFFCURVE",
"1844 -274 OFFCURVE",
"1808 -274 CURVE SMOOTH",
"240 -274 LINE SMOOTH",
"204 -274 OFFCURVE",
"176 -247 OFFCURVE",
"176 -211 CURVE SMOOTH"
);
},
{
closed = 1;
nodes = (
"774 795 LINE",
"1251 795 LINE",
"1251 1004 LINE",
"1251 1006 LINE SMOOTH",
"1251 1071 OFFCURVE",
"1223 1131 OFFCURVE",
"1180 1173 CURVE SMOOTH",
"1136 1215 OFFCURVE",
"1077 1241 OFFCURVE",
"1012 1241 CURVE SMOOTH",
"947 1241 OFFCURVE",
"888 1215 OFFCURVE",
"844 1172 CURVE SMOOTH",
"800 1128 OFFCURVE",
"774 1069 OFFCURVE",
"774 1004 CURVE SMOOTH"
);
}
);
width = 2048;
}
);
unicode = 005C;
},
{
glyphname = bracketright;
lastChange = "2012-07-03 13:53:28 +0000";
layers = (
{
layerId = "1730482B-7E8C-4DF6-A2D5-70B9989D176C";
name = Regular;
paths = (
{
closed = 1;
nodes = (
"176 696 LINE SMOOTH",
"176 732 OFFCURVE",
"204 760 OFFCURVE",
"240 760 CURVE SMOOTH",
"330 760 LINE",
"469 760 LINE",
"469 1028 LINE SMOOTH",
"469 1187 OFFCURVE",
"535 1334 OFFCURVE",
"639 1438 CURVE SMOOTH",
"743 1542 OFFCURVE",
"888 1608 OFFCURVE",
"1049 1608 CURVE SMOOTH",
"1208 1608 OFFCURVE",
"1348 1544 OFFCURVE",
"1453 1441 CURVE SMOOTH",
"1558 1338 OFFCURVE",
"1623 1197 OFFCURVE",
"1626 1038 CURVE",
"1627 1037 OFFCURVE",
"1628 1033 OFFCURVE",
"1628 1028 CURVE SMOOTH",
"1628 1001 OFFCURVE",
"1609 979 OFFCURVE",
"1581 979 CURVE SMOOTH",
"1579 979 LINE",
"1333 979 LINE SMOOTH",
"1306 979 OFFCURVE",
"1286 1001 OFFCURVE",
"1286 1028 CURVE SMOOTH",
"1286 1093 OFFCURVE",
"1260 1152 OFFCURVE",
"1217 1196 CURVE SMOOTH",
"1173 1240 OFFCURVE",
"1114 1266 OFFCURVE",
"1049 1266 CURVE SMOOTH",
"984 1266 OFFCURVE",
"924 1240 OFFCURVE",
"881 1196 CURVE SMOOTH",
"837 1152 OFFCURVE",
"811 1093 OFFCURVE",
"811 1028 CURVE SMOOTH",
"811 760 LINE",
"1397 760 LINE",
"1718 760 LINE",
"1808 760 LINE SMOOTH",
"1844 760 OFFCURVE",
"1872 732 OFFCURVE",
"1872 696 CURVE SMOOTH",
"1872 -246 LINE SMOOTH",
"1872 -285 OFFCURVE",
"1844 -309 OFFCURVE",
"1808 -309 CURVE SMOOTH",
"240 -309 LINE SMOOTH",
"204 -309 OFFCURVE",
"176 -285 OFFCURVE",
"176 -246 CURVE SMOOTH"
);
}
);
width = 2048;
}
);
unicode = 005D;
},
{
glyphname = asciicircum;
lastChange = "2012-07-03 13:53:28 +0000";
layers = (
{
layerId = "1730482B-7E8C-4DF6-A2D5-70B9989D176C";
name = Regular;
paths = (
{
closed = 1;
nodes = (
"317 872 LINE SMOOTH",
"317 1068 OFFCURVE",
"398 1250 OFFCURVE",
"527 1380 CURVE SMOOTH",
"655 1510 OFFCURVE",
"836 1591 OFFCURVE",
"1032 1591 CURVE SMOOTH",
"1034 1591 LINE",
"1036 1591 LINE SMOOTH",
"1232 1591 OFFCURVE",
"1414 1510 OFFCURVE",
"1542 1380 CURVE SMOOTH",
"1670 1250 OFFCURVE",
"1751 1069 OFFCURVE",
"1751 872 CURVE",
"1750 872 OFFCURVE",
"1749 871 OFFCURVE",
"1749 870 CURVE",
"1751 870 LINE",
"1750 866 OFFCURVE",
"1749 861 OFFCURVE",
"1749 854 CURVE SMOOTH",
"1749 844 LINE",
"1746 803 OFFCURVE",
"1741 760 OFFCURVE",
"1733 719 CURVE SMOOTH",
"1722 664 OFFCURVE",
"1674 557 OFFCURVE",
"1607 434 CURVE SMOOTH",
"1539 311 OFFCURVE",
"1460 173 OFFCURVE",
"1389 61 CURVE SMOOTH",
"1353 5 OFFCURVE",
"1321 -43 OFFCURVE",
"1293 -84 CURVE SMOOTH",
"1237 -165 OFFCURVE",
"1218 -180 OFFCURVE",
"1178 -214 CURVE SMOOTH",
"1137 -248 OFFCURVE",
"1098 -277 OFFCURVE",
"1066 -293 CURVE SMOOTH",
"1050 -301 OFFCURVE",
"1039 -305 OFFCURVE",
"1034 -305 CURVE SMOOTH",
"1027 -305 OFFCURVE",
"1017 -301 OFFCURVE",
"1002 -293 CURVE SMOOTH",
"972 -277 OFFCURVE",
"930 -247 OFFCURVE",
"889 -212 CURVE SMOOTH",
"848 -177 OFFCURVE",
"832 -166 OFFCURVE",
"777 -85 CURVE SMOOTH",
"721 -5 OFFCURVE",
"649 110 OFFCURVE",
"571 242 CURVE SMOOTH",
"493 373 OFFCURVE",
"426 501 OFFCURVE",
"378 602 CURVE SMOOTH",
"354 653 OFFCURVE",
"340 692 OFFCURVE",
"336 719 CURVE",
"328 760 OFFCURVE",
"323 803 OFFCURVE",
"319 844 CURVE",
"319 854 LINE SMOOTH",
"319 857 OFFCURVE",
"319 859 OFFCURVE",
"318 862 CURVE SMOOTH",
"317 865 OFFCURVE",
"317 867 OFFCURVE",
"317 870 CURVE SMOOTH"
);
},
{
closed = 1;
nodes = (
"743 802 OFFCURVE",
"775 728 OFFCURVE",
"827 675 CURVE SMOOTH",
"879 622 OFFCURVE",
"953 590 OFFCURVE",
"1032 590 CURVE SMOOTH",
"1111 590 OFFCURVE",
"1185 622 OFFCURVE",
"1237 675 CURVE SMOOTH",
"1289 728 OFFCURVE",
"1321 801 OFFCURVE",
"1321 881 CURVE SMOOTH",
"1321 960 OFFCURVE",
"1289 1034 OFFCURVE",
"1237 1086 CURVE SMOOTH",
"1185 1137 OFFCURVE",
"1112 1169 OFFCURVE",
"1032 1169 CURVE SMOOTH",
"953 1169 OFFCURVE",
"879 1137 OFFCURVE",
"827 1086 CURVE SMOOTH",
"775 1034 OFFCURVE",
"743 960 OFFCURVE",
"743 881 CURVE SMOOTH"
);
}
);
width = 2048;
}
);
unicode = 005E;
},
{
glyphname = underscore;
lastChange = "2012-07-03 13:53:28 +0000";
layers = (
{
layerId = "1730482B-7E8C-4DF6-A2D5-70B9989D176C";
name = Regular;
paths = (
{
closed = 1;
nodes = (
"74 1489 LINE SMOOTH",
"74 1549 OFFCURVE",
"122 1597 OFFCURVE",
"182 1597 CURVE SMOOTH",
"1870 1597 LINE SMOOTH",
"1933 1597 OFFCURVE",
"1980 1549 OFFCURVE",
"1980 1489 CURVE SMOOTH",
"1980 -199 LINE SMOOTH",
"1980 -259 OFFCURVE",
"1933 -307 OFFCURVE",
"1870 -307 CURVE SMOOTH",
"182 -307 LINE SMOOTH",
"122 -307 OFFCURVE",
"74 -259 OFFCURVE",
"74 -199 CURVE SMOOTH"
);
},
{
closed = 1;
nodes = (
"365 588 LINE",
"365 405 OFFCURVE",
"439 241 OFFCURVE",
"559 122 CURVE SMOOTH",
"679 3 OFFCURVE",
"843 -72 OFFCURVE",
"1026 -72 CURVE SMOOTH",
"1209 -72 OFFCURVE",
"1375 3 OFFCURVE",
"1495 122 CURVE SMOOTH",
"1615 241 OFFCURVE",
"1690 405 OFFCURVE",
"1690 588 CURVE"
);
},
{
closed = 1;
nodes = (
"492 973 OFFCURVE",
"515 920 OFFCURVE",
"552 884 CURVE SMOOTH",
"589 847 OFFCURVE",
"639 823 OFFCURVE",
"696 823 CURVE SMOOTH",
"753 823 OFFCURVE",
"806 847 OFFCURVE",
"843 884 CURVE SMOOTH",
"879 920 OFFCURVE",
"903 973 OFFCURVE",
"903 1030 CURVE SMOOTH",
"903 1087 OFFCURVE",
"879 1138 OFFCURVE",
"843 1175 CURVE SMOOTH",
"806 1211 OFFCURVE",
"753 1235 OFFCURVE",
"696 1235 CURVE SMOOTH",
"581 1235 OFFCURVE",
"492 1145 OFFCURVE",
"492 1030 CURVE SMOOTH"
);
},
{
closed = 1;
nodes = (
"1133 973 OFFCURVE",
"1156 920 OFFCURVE",
"1193 884 CURVE SMOOTH",
"1230 847 OFFCURVE",
"1280 823 OFFCURVE",
"1337 823 CURVE SMOOTH",
"1394 823 OFFCURVE",
"1447 847 OFFCURVE",
"1484 884 CURVE SMOOTH",
"1520 920 OFFCURVE",
"1544 973 OFFCURVE",
"1544 1030 CURVE SMOOTH",
"1544 1087 OFFCURVE",
"1520 1138 OFFCURVE",
"1484 1175 CURVE SMOOTH",
"1447 1211 OFFCURVE",
"1394 1235 OFFCURVE",
"1337 1235 CURVE SMOOTH",
"1222 1235 OFFCURVE",
"1133 1145 OFFCURVE",
"1133 1030 CURVE SMOOTH"
);
}
);
width = 2048;
}
);
unicode = 005F;
},
{
glyphname = grave;
lastChange = "2012-07-03 13:53:28 +0000";
layers = (
{
anchors = (
{
name = _top;
position = "{1024, 1447}";
}
);
layerId = "1730482B-7E8C-4DF6-A2D5-70B9989D176C";
name = Regular;
paths = (
{
closed = 1;
nodes = (
"163 435 OFFCURVE",
"193 472 OFFCURVE",
"233 477 CURVE SMOOTH",
"479 510 LINE SMOOTH",
"520 515 OFFCURVE",
"534 473 OFFCURVE",
"525 450 CURVE SMOOTH",
"520 438 OFFCURVE",
"513 430 OFFCURVE",
"502 426 CURVE",
"274 330 LINE",
"271 329 OFFCURVE",
"268 328 OFFCURVE",
"264 327 CURVE SMOOTH",
"260 326 OFFCURVE",
"257 325 OFFCURVE",
"254 324 CURVE",
"210 319 OFFCURVE",
"173 347 OFFCURVE",
"168 391 CURVE SMOOTH"
);
},
{
closed = 1;
nodes = (
"252 1178 LINE SMOOTH",
"221 1215 OFFCURVE",
"231 1272 OFFCURVE",
"268 1303 CURVE SMOOTH",
"307 1334 OFFCURVE",
"364 1325 OFFCURVE",
"393 1286 CURVE SMOOTH",
"565 1061 LINE SMOOTH",
"596 1020 OFFCURVE",
"560 982 OFFCURVE",
"533 978 CURVE SMOOTH",
"519 976 OFFCURVE",
"507 980 OFFCURVE",
"496 989 CURVE",
"268 1161 LINE",
"260 1169 LINE"
);
},
{
closed = 1;
nodes = (
"551 702 LINE SMOOTH",
"551 835 OFFCURVE",
"605 957 OFFCURVE",
"693 1045 CURVE SMOOTH",
"780 1132 OFFCURVE",
"899 1188 OFFCURVE",
"1032 1188 CURVE SMOOTH",
"1034 1188 LINE SMOOTH",
"1167 1188 OFFCURVE",
"1289 1132 OFFCURVE",
"1377 1045 CURVE SMOOTH",
"1464 957 OFFCURVE",
"1518 837 OFFCURVE",
"1518 702 CURVE",
"1516 702 LINE",
"1518 702 LINE",
"1517 699 OFFCURVE",
"1516 695 OFFCURVE",
"1516 690 CURVE SMOOTH",
"1516 684 LINE",
"1513 653 OFFCURVE",
"1510 628 OFFCURVE",
"1505 600 CURVE SMOOTH",
"1497 545 OFFCURVE",
"1472 493 OFFCURVE",
"1442 438 CURVE SMOOTH",
"1427 411 OFFCURVE",
"1411 383 OFFCURVE",
"1394 354 CURVE SMOOTH",
"1377 325 OFFCURVE",
"1360 295 OFFCURVE",
"1343 264 CURVE",
"1322 220 OFFCURVE",
"1305 182 OFFCURVE",
"1290 149 CURVE SMOOTH",
"1261 84 OFFCURVE",
"1235 38 OFFCURVE",
"1211 11 CURVE SMOOTH",
"1198 -3 OFFCURVE",
"1184 -11 OFFCURVE",
"1169 -14 CURVE",
"1166 -14 OFFCURVE",
"1159 -14 OFFCURVE",
"1146 -15 CURVE SMOOTH",
"1133 -16 OFFCURVE",
"1119 -16 OFFCURVE",
"1104 -16 CURVE SMOOTH",
"1061 -16 LINE",
"1034 -16 LINE",
"1008 -16 LINE",
"964 -16 LINE SMOOTH",
"948 -16 OFFCURVE",
"934 -16 OFFCURVE",
"921 -15 CURVE SMOOTH",
"908 -14 OFFCURVE",
"900 -14 OFFCURVE",
"899 -14 CURVE",
"866 -9 OFFCURVE",
"844 20 OFFCURVE",
"820 66 CURVE SMOOTH",
"807 89 OFFCURVE",
"794 117 OFFCURVE",
"779 150 CURVE SMOOTH",
"749 216 OFFCURVE",
"709 297 OFFCURVE",
"675 354 CURVE SMOOTH",
"641 411 OFFCURVE",
"610 466 OFFCURVE",
"587 519 CURVE SMOOTH",
"575 546 OFFCURVE",
"567 573 OFFCURVE",
"563 600 CURVE",
"558 626 OFFCURVE",
"554 654 OFFCURVE",
"551 684 CURVE"
);
},
{
closed = 1;
nodes = (
"834 -90 OFFCURVE",
"862 -63 OFFCURVE",
"901 -63 CURVE SMOOTH",
"1032 -63 LINE",
"1034 -63 LINE",
"1165 -63 LINE SMOOTH",
"1204 -63 OFFCURVE",
"1233 -90 OFFCURVE",
"1233 -123 CURVE SMOOTH",
"1233 -154 OFFCURVE",
"1204 -180 OFFCURVE",
"1165 -180 CURVE SMOOTH",
"1034 -180 LINE",
"1032 -180 LINE",
"901 -180 LINE SMOOTH",
"862 -180 OFFCURVE",
"834 -154 OFFCURVE",
"834 -123 CURVE SMOOTH"
);
},
{
closed = 1;
nodes = (
"834 -268 OFFCURVE",
"862 -242 OFFCURVE",
"901 -242 CURVE SMOOTH",
"1032 -242 LINE",
"1034 -242 LINE",
"1165 -242 LINE SMOOTH",
"1204 -242 OFFCURVE",
"1233 -268 OFFCURVE",
"1233 -301 CURVE SMOOTH",
"1233 -332 OFFCURVE",
"1204 -358 OFFCURVE",
"1165 -358 CURVE SMOOTH",
"1034 -358 LINE",
"1032 -358 LINE",
"901 -358 LINE SMOOTH",
"862 -358 OFFCURVE",
"834 -332 OFFCURVE",
"834 -301 CURVE SMOOTH"
);
},
{
closed = 1;
nodes = (
"946 1571 LINE",
"946 1593 LINE",
"951 1637 OFFCURVE",
"988 1666 OFFCURVE",
"1032 1669 CURVE",
"1034 1669 LINE",
"1078 1666 OFFCURVE",
"1115 1637 OFFCURVE",
"1120 1593 CURVE",
"1123 1585 OFFCURVE",
"1123 1578 OFFCURVE",
"1120 1571 CURVE",
"1083 1288 LINE",
"1078 1264 OFFCURVE",
"1059 1245 OFFCURVE",
"1034 1245 CURVE SMOOTH",
"1032 1245 LINE SMOOTH",
"1008 1245 OFFCURVE",
"988 1264 OFFCURVE",
"985 1288 CURVE SMOOTH"
);
},
{
closed = 1;
nodes = (
"1517 976 OFFCURVE",
"1550 970 OFFCURVE",
"1573 989 CURVE",
"1798 1161 LINE SMOOTH",
"1802 1164 OFFCURVE",
"1808 1169 OFFCURVE",
"1817 1178 CURVE",
"1848 1217 OFFCURVE",
"1839 1272 OFFCURVE",
"1798 1303 CURVE SMOOTH",
"1759 1334 OFFCURVE",
"1704 1325 OFFCURVE",
"1673 1286 CURVE SMOOTH",
"1501 1061 LINE SMOOTH",
"1486 1040 OFFCURVE",
"1486 1019 OFFCURVE",
"1501 997 CURVE"
);
},
{
closed = 1;
nodes = (
"1538 465 OFFCURVE",
"1548 441 OFFCURVE",
"1571 430 CURVE",
"1806 332 LINE",
"1811 328 OFFCURVE",
"1818 326 OFFCURVE",
"1827 326 CURVE",
"1871 321 OFFCURVE",
"1910 349 OFFCURVE",
"1915 393 CURVE SMOOTH",
"1920 440 OFFCURVE",
"1891 478 OFFCURVE",
"1847 483 CURVE SMOOTH",
"1595 516 LINE SMOOTH",
"1572 519 OFFCURVE",
"1555 510 OFFCURVE",
"1546 489 CURVE"
);
}
);
width = 2048;
}
);
unicode = 0060;
},
{
glyphname = a;
lastChange = "2012-07-03 13:53:28 +0000";
layers = (
{
anchors = (
{
name = ogonek;
position = "{1843, 10}";
},
{
name = top;
position = "{1024, 1447}";
}
);
layerId = "1730482B-7E8C-4DF6-A2D5-70B9989D176C";
name = Regular;
paths = (
{
closed = 1;
nodes = (
"47 752 LINE SMOOTH",
"47 779 OFFCURVE",
"67 800 OFFCURVE",
"94 803 CURVE SMOOTH",
"342 827 LINE",
"359 886 OFFCURVE",
"383 942 OFFCURVE",
"414 997 CURVE",
"256 1190 LINE",
"237 1211 OFFCURVE",
"239 1240 OFFCURVE",
"258 1260 CURVE SMOOTH",
"410 1411 LINE SMOOTH",
"419 1420 OFFCURVE",
"431 1425 OFFCURVE",
"446 1425 CURVE SMOOTH",
"457 1425 OFFCURVE",
"468 1421 OFFCURVE",
"479 1413 CURVE",
"672 1255 LINE",
"727 1286 OFFCURVE",
"783 1310 OFFCURVE",
"842 1327 CURVE",
"866 1575 LINE SMOOTH",
"869 1602 OFFCURVE",
"890 1622 OFFCURVE",
"918 1622 CURVE SMOOTH",
"1130 1622 LINE SMOOTH",
"1157 1622 OFFCURVE",
"1179 1602 OFFCURVE",
"1182 1575 CURVE SMOOTH",
"1206 1327 LINE",
"1265 1310 OFFCURVE",
"1321 1286 OFFCURVE",
"1376 1255 CURVE",
"1569 1413 LINE",
"1578 1421 OFFCURVE",
"1589 1425 OFFCURVE",
"1602 1425 CURVE SMOOTH",
"1617 1425 OFFCURVE",
"1629 1420 OFFCURVE",
"1638 1411 CURVE SMOOTH",
"1790 1260 LINE SMOOTH",
"1809 1241 OFFCURVE",
"1811 1211 OFFCURVE",
"1792 1190 CURVE",
"1634 997 LINE",
"1665 942 OFFCURVE",
"1689 886 OFFCURVE",
"1706 827 CURVE",
"1954 803 LINE SMOOTH",
"1981 800 OFFCURVE",
"2001 779 OFFCURVE",
"2001 752 CURVE SMOOTH",
"2001 539 LINE SMOOTH",
"2001 512 OFFCURVE",
"1981 490 OFFCURVE",
"1954 487 CURVE SMOOTH",
"1706 463 LINE",
"1689 404 OFFCURVE",
"1665 348 OFFCURVE",
"1634 293 CURVE",
"1792 100 LINE",
"1811 79 OFFCURVE",
"1809 50 OFFCURVE",
"1790 31 CURVE SMOOTH",
"1638 -121 LINE SMOOTH",
"1629 -130 OFFCURVE",
"1617 -135 OFFCURVE",
"1602 -135 CURVE SMOOTH",
"1590 -135 OFFCURVE",
"1579 -131 OFFCURVE",
"1569 -123 CURVE SMOOTH",
"1376 35 LINE",
"1321 4 OFFCURVE",
"1265 -20 OFFCURVE",
"1206 -37 CURVE",
"1182 -285 LINE SMOOTH",
"1179 -312 OFFCURVE",
"1158 -332 OFFCURVE",
"1130 -332 CURVE SMOOTH",
"918 -332 LINE SMOOTH",
"891 -332 OFFCURVE",
"869 -312 OFFCURVE",
"866 -285 CURVE SMOOTH",
"842 -37 LINE",
"783 -20 OFFCURVE",
"727 4 OFFCURVE",
"672 35 CURVE",
"479 -123 LINE",
"468 -131 OFFCURVE",
"457 -135 OFFCURVE",
"446 -135 CURVE SMOOTH",
"431 -135 OFFCURVE",
"419 -130 OFFCURVE",
"410 -121 CURVE SMOOTH",
"258 31 LINE SMOOTH",
"239 50 OFFCURVE",
"237 79 OFFCURVE",
"256 100 CURVE",
"414 293 LINE",
"383 348 OFFCURVE",
"359 404 OFFCURVE",
"342 463 CURVE",
"94 487 LINE SMOOTH",
"67 490 OFFCURVE",
"47 512 OFFCURVE",
"47 539 CURVE SMOOTH"
);
},
{
closed = 1;
nodes = (
"735 566 OFFCURVE",
"767 492 OFFCURVE",
"819 440 CURVE SMOOTH",
"871 388 OFFCURVE",
"945 356 OFFCURVE",
"1024 356 CURVE SMOOTH",
"1103 356 OFFCURVE",
"1177 388 OFFCURVE",
"1229 440 CURVE SMOOTH",
"1281 492 OFFCURVE",
"1313 566 OFFCURVE",
"1313 645 CURVE SMOOTH",
"1313 724 OFFCURVE",
"1281 798 OFFCURVE",
"1229 850 CURVE SMOOTH",
"1177 902 OFFCURVE",
"1103 934 OFFCURVE",
"1024 934 CURVE SMOOTH",
"945 934 OFFCURVE",
"871 902 OFFCURVE",
"819 850 CURVE SMOOTH",
"767 798 OFFCURVE",
"735 724 OFFCURVE",
"735 645 CURVE SMOOTH"
);
}
);
width = 2048;
}
);
unicode = 0061;
},
{
glyphname = b;
lastChange = "2012-07-03 13:53:28 +0000";
layers = (
{
layerId = "1730482B-7E8C-4DF6-A2D5-70B9989D176C";
name = Regular;
paths = (
{
closed = 1;
nodes = (
"59 1137 OFFCURVE",
"120 1271 OFFCURVE",
"219 1370 CURVE SMOOTH",
"318 1469 OFFCURVE",
"450 1528 OFFCURVE",
"598 1528 CURVE SMOOTH",
"770 1528 OFFCURVE",
"923 1448 OFFCURVE",
"1024 1317 CURVE",
"1125 1448 OFFCURVE",
"1278 1528 OFFCURVE",
"1450 1528 CURVE SMOOTH",
"1598 1528 OFFCURVE",
"1730 1469 OFFCURVE",
"1829 1370 CURVE SMOOTH",
"1928 1271 OFFCURVE",
"1989 1137 OFFCURVE",
"1989 989 CURVE SMOOTH",
"1989 828 OFFCURVE",
"1951 701 OFFCURVE",
"1896 594 CURVE SMOOTH",
"1841 487 OFFCURVE",
"1773 404 OFFCURVE",
"1710 328 CURVE SMOOTH",
"1683 297 LINE SMOOTH",
"1634 237 OFFCURVE",
"1551 160 OFFCURVE",
"1461 84 CURVE SMOOTH",
"1371 8 OFFCURVE",
"1274 -68 OFFCURVE",
"1198 -124 CURVE SMOOTH",
"1160 -152 OFFCURVE",
"1128 -175 OFFCURVE",
"1103 -193 CURVE SMOOTH",
"1078 -212 OFFCURVE",
"1064 -222 OFFCURVE",
"1061 -225 CURVE",
"1040 -241 OFFCURVE",
"1006 -242 OFFCURVE",
"987 -225 CURVE",
"983 -222 OFFCURVE",
"969 -212 OFFCURVE",
"944 -193 CURVE SMOOTH",
"919 -175 OFFCURVE",
"888 -152 OFFCURVE",
"850 -124 CURVE SMOOTH",
"774 -68 OFFCURVE",
"678 8 OFFCURVE",
"588 84 CURVE SMOOTH",
"498 160 OFFCURVE",
"413 237 OFFCURVE",
"365 297 CURVE",
"338 328 LINE SMOOTH",
"275 404 OFFCURVE",
"207 487 OFFCURVE",
"152 594 CURVE SMOOTH",
"97 701 OFFCURVE",
"59 828 OFFCURVE",
"59 989 CURVE SMOOTH"
);
}
);
width = 2048;
}
);
unicode = 0062;
},
{
glyphname = c;
lastChange = "2012-07-03 13:53:28 +0000";
layers = (
{
anchors = (
{
name = bottom;
position = "{1024, 0}";
},
{
name = top;
position = "{1024, 1447}";
}
);
layerId = "1730482B-7E8C-4DF6-A2D5-70B9989D176C";
name = Regular;
paths = (
{
closed = 1;
nodes = (
"36 911 OFFCURVE",
"51 922 OFFCURVE",
"72 922 CURVE SMOOTH",
"748 922 LINE",
"979 1573 LINE SMOOTH",
"986 1595 OFFCURVE",
"1001 1606 OFFCURVE",
"1024 1606 CURVE SMOOTH",
"1047 1606 OFFCURVE",
"1062 1595 OFFCURVE",
"1069 1573 CURVE SMOOTH",
"1300 922 LINE",
"1976 922 LINE SMOOTH",
"1997 922 OFFCURVE",
"2012 911 OFFCURVE",
"2021 889 CURVE",
"2023 883 OFFCURVE",
"2024 877 OFFCURVE",
"2024 872 CURVE SMOOTH",
"2024 858 OFFCURVE",
"2018 846 OFFCURVE",
"2005 836 CURVE SMOOTH",
"1477 418 LINE",
"1714 -250 LINE SMOOTH",
"1721 -272 OFFCURVE",
"1715 -290 OFFCURVE",
"1698 -303 CURVE",
"1690 -311 OFFCURVE",
"1680 -315 OFFCURVE",
"1669 -315 CURVE SMOOTH",
"1661 -315 OFFCURVE",
"1653 -312 OFFCURVE",
"1645 -307 CURVE SMOOTH",
"1024 63 LINE",
"403 -307 LINE",
"387 -318 OFFCURVE",
"363 -316 OFFCURVE",
"350 -303 CURVE",
"332 -290 OFFCURVE",
"327 -272 OFFCURVE",
"334 -250 CURVE SMOOTH",
"571 418 LINE",
"43 836 LINE SMOOTH",
"30 846 OFFCURVE",
"24 858 OFFCURVE",
"24 872 CURVE SMOOTH",
"24 877 OFFCURVE",
"25 883 OFFCURVE",
"27 889 CURVE"
);
}
);
width = 2048;
}
);
unicode = 0063;
},
{
glyphname = d;
lastChange = "2012-07-03 13:53:28 +0000";
layers = (
{
anchors = (
{
name = center;
position = "{1024, 724}";
}
);
layerId = "1730482B-7E8C-4DF6-A2D5-70B9989D176C";
name = Regular;
paths = (
{
closed = 1;
nodes = (
"63 868 LINE SMOOTH",
"63 895 OFFCURVE",
"85 918 OFFCURVE",
"113 918 CURVE SMOOTH",
"752 918 LINE",
"752 1556 LINE SMOOTH",
"752 1583 OFFCURVE",
"773 1606 OFFCURVE",
"801 1606 CURVE SMOOTH",
"1247 1606 LINE SMOOTH",
"1274 1606 OFFCURVE",
"1296 1584 OFFCURVE",
"1296 1556 CURVE SMOOTH",
"1296 918 LINE",
"1935 918 LINE SMOOTH",
"1962 918 OFFCURVE",
"1985 896 OFFCURVE",
"1985 868 CURVE SMOOTH",
"1985 422 LINE SMOOTH",
"1985 395 OFFCURVE",
"1963 373 OFFCURVE",
"1935 373 CURVE SMOOTH",
"1296 373 LINE",
"1296 -266 LINE SMOOTH",
"1296 -293 OFFCURVE",
"1275 -315 OFFCURVE",
"1247 -315 CURVE SMOOTH",
"801 -315 LINE SMOOTH",
"774 -315 OFFCURVE",
"752 -294 OFFCURVE",
"752 -266 CURVE SMOOTH",
"752 373 LINE",
"113 373 LINE SMOOTH",
"86 373 OFFCURVE",
"63 395 OFFCURVE",
"63 422 CURVE SMOOTH"
);
}
);
width = 2048;
}
);
unicode = 0064;
},
{
glyphname = e;
lastChange = "2012-07-03 13:53:28 +0000";
layers = (
{
anchors = (
{
name = bottom;
position = "{1024, 0}";
},
{
name = ogonek;
position = "{1843, 10}";
},
{
name = top;
position = "{1024, 1447}";
}
);
layerId = "1730482B-7E8C-4DF6-A2D5-70B9989D176C";
name = Regular;
paths = (
{
closed = 1;
nodes = (
"63 868 LINE SMOOTH",
"63 895 OFFCURVE",
"85 918 OFFCURVE",
"113 918 CURVE SMOOTH",
"1935 918 LINE SMOOTH",
"1962 918 OFFCURVE",
"1982 896 OFFCURVE",
"1982 868 CURVE SMOOTH",
"1982 422 LINE SMOOTH",
"1982 395 OFFCURVE",
"1963 373 OFFCURVE",
"1935 373 CURVE SMOOTH",
"113 373 LINE SMOOTH",
"86 373 OFFCURVE",
"63 395 OFFCURVE",
"63 422 CURVE SMOOTH"
);
}
);
width = 2048;
}
);
unicode = 0065;
},
{
glyphname = f;
lastChange = "2012-07-03 13:53:28 +0000";
layers = (
{
layerId = "1730482B-7E8C-4DF6-A2D5-70B9989D176C";
name = Regular;
paths = (
{
closed = 1;
nodes = (
"31 480 OFFCURVE",
"36 491 OFFCURVE",
"45 504 CURVE",
"301 760 LINE",
"312 770 OFFCURVE",
"324 775 OFFCURVE",
"336 775 CURVE",
"371 760 LINE",
"678 451 LINE",
"1677 1452 LINE",
"1689 1461 OFFCURVE",
"1701 1466 OFFCURVE",
"1712 1466 CURVE SMOOTH",
"1723 1466 OFFCURVE",
"1734 1461 OFFCURVE",
"1747 1452 CURVE",
"2003 1196 LINE SMOOTH",
"2012 1187 OFFCURVE",
"2017 1176 OFFCURVE",
"2017 1163 CURVE SMOOTH",
"2017 1150 OFFCURVE",
"2012 1138 OFFCURVE",
"2003 1128 CURVE",
"713 -162 LINE",
"705 -171 OFFCURVE",
"694 -176 OFFCURVE",
"680 -176 CURVE SMOOTH",
"678 -176 LINE",
"676 -176 LINE SMOOTH",
"664 -176 OFFCURVE",
"653 -171 OFFCURVE",
"643 -162 CURVE",
"45 434 LINE",
"36 447 OFFCURVE",
"31 458 OFFCURVE",
"31 469 CURVE SMOOTH"
);
}
);
width = 2048;
}
);
unicode = 0066;
},
{
glyphname = g;
lastChange = "2012-07-03 13:53:28 +0000";
layers = (
{
anchors = (
{
name = top;
position = "{1024, 1447}";
}
);
layerId = "1730482B-7E8C-4DF6-A2D5-70B9989D176C";
name = Regular;
paths = (
{
closed = 1;
nodes = (
"184 173 OFFCURVE",
"188 184 OFFCURVE",
"197 193 CURVE SMOOTH",
"649 645 LINE",
"199 1098 LINE",
"180 1114 OFFCURVE",
"179 1149 OFFCURVE",
"199 1165 CURVE",
"514 1483 LINE SMOOTH",
"523 1492 OFFCURVE",
"535 1497 OFFCURVE",
"549 1497 CURVE SMOOTH",
"562 1497 OFFCURVE",
"573 1492 OFFCURVE",
"582 1483 CURVE SMOOTH",
"1034 1030 LINE",
"1487 1483 LINE SMOOTH",
"1496 1492 OFFCURVE",
"1508 1497 OFFCURVE",
"1521 1497 CURVE SMOOTH",
"1534 1497 OFFCURVE",
"1545 1492 OFFCURVE",
"1554 1483 CURVE SMOOTH",
"1872 1165 LINE SMOOTH",
"1881 1156 OFFCURVE",
"1886 1145 OFFCURVE",
"1886 1132 CURVE SMOOTH",
"1886 1119 OFFCURVE",
"1881 1107 OFFCURVE",
"1872 1098 CURVE SMOOTH",
"1419 645 LINE",
"1872 193 LINE SMOOTH",
"1881 184 OFFCURVE",
"1886 172 OFFCURVE",
"1886 159 CURVE SMOOTH",
"1886 146 OFFCURVE",
"1881 134 OFFCURVE",
"1872 125 CURVE SMOOTH",
"1554 -193 LINE SMOOTH",
"1545 -202 OFFCURVE",
"1534 -207 OFFCURVE",
"1522 -207 CURVE SMOOTH",
"1511 -207 OFFCURVE",
"1500 -202 OFFCURVE",
"1487 -193 CURVE",
"1034 260 LINE",
"582 -193 LINE SMOOTH",
"573 -202 OFFCURVE",
"562 -207 OFFCURVE",
"549 -207 CURVE SMOOTH",
"538 -207 OFFCURVE",
"527 -202 OFFCURVE",
"514 -193 CURVE",
"197 125 LINE",
"188 133 OFFCURVE",
"184 145 OFFCURVE",
"184 160 CURVE SMOOTH"
);
}
);
width = 2048;
}
);
unicode = 0067;
},
{
glyphname = h;
lastChange = "2012-07-03 13:53:28 +0000";
layers = (
{
anchors = (
{
name = center;
position = "{1024, 724}";
},
{
name = top;
position = "{1024, 1447}";
}
);
layerId = "1730482B-7E8C-4DF6-A2D5-70B9989D176C";
name = Regular;
paths = (
{
closed = 1;
nodes = (
"68 940 LINE SMOOTH",
"68 953 OFFCURVE",
"81 957 OFFCURVE",
"92 954 CURVE",
"637 643 LINE SMOOTH",
"642 640 OFFCURVE",
"645 636 OFFCURVE",
"645 631 CURVE SMOOTH",
"645 624 OFFCURVE",
"643 620 OFFCURVE",
"639 618 CURVE",
"94 113 LINE",
"93 110 OFFCURVE",
"89 109 OFFCURVE",
"84 109 CURVE SMOOTH",
"78 109 LINE",
"71 113 OFFCURVE",
"68 118 OFFCURVE",
"68 123 CURVE SMOOTH"
);
},
{
closed = 1;
nodes = (
"68 1366 LINE SMOOTH",
"68 1402 OFFCURVE",
"95 1430 OFFCURVE",
"131 1430 CURVE SMOOTH",
"1931 1430 LINE SMOOTH",
"1970 1430 OFFCURVE",
"1997 1402 OFFCURVE",
"1997 1366 CURVE SMOOTH",
"1997 1169 LINE SMOOTH",
"1997 1160 OFFCURVE",
"1992 1155 OFFCURVE",
"1982 1155 CURVE",
"1974 1154 OFFCURVE",
"1967 1150 OFFCURVE",
"1960 1145 CURVE",
"1042 606 LINE",
"1041 605 OFFCURVE",
"1038 604 OFFCURVE",
"1034 604 CURVE SMOOTH",
"1030 604 OFFCURVE",
"1027 605 OFFCURVE",
"1026 606 CURVE",
"80 1145 LINE",
"72 1150 OFFCURVE",
"68 1156 OFFCURVE",
"68 1161 CURVE SMOOTH"
);
},
{
closed = 1;
nodes = (
"92 -112 OFFCURVE",
"94 -107 OFFCURVE",
"98 -104 CURVE",
"793 541 LINE",
"798 546 OFFCURVE",
"804 547 OFFCURVE",
"811 543 CURVE SMOOTH",
"995 438 LINE SMOOTH",
"1008 430 OFFCURVE",
"1021 426 OFFCURVE",
"1034 426 CURVE SMOOTH",
"1048 426 OFFCURVE",
"1062 431 OFFCURVE",
"1075 440 CURVE",
"1284 561 LINE SMOOTH",
"1292 566 OFFCURVE",
"1298 566 OFFCURVE",
"1303 559 CURVE",
"1925 -113 LINE",
"1929 -118 OFFCURVE",
"1930 -124 OFFCURVE",
"1929 -129 CURVE",
"1925 -136 OFFCURVE",
"1920 -139 OFFCURVE",
"1913 -139 CURVE SMOOTH",
"131 -139 LINE SMOOTH",
"122 -139 OFFCURVE",
"111 -136 OFFCURVE",
"100 -129 CURVE SMOOTH",
"95 -126 OFFCURVE",
"92 -122 OFFCURVE",
"92 -117 CURVE SMOOTH"
);
},
{
closed = 1;
nodes = (
"1446 654 OFFCURVE",
"1448 659 OFFCURVE",
"1452 662 CURVE",
"1972 967 LINE",
"1974 969 OFFCURVE",
"1976 970 OFFCURVE",
"1979 970 CURVE SMOOTH",
"1984 970 OFFCURVE",
"1997 967 OFFCURVE",
"1997 952 CURVE SMOOTH",
"1997 88 LINE SMOOTH",
"1997 81 OFFCURVE",
"1994 77 OFFCURVE",
"1987 74 CURVE",
"1986 73 OFFCURVE",
"1983 72 OFFCURVE",
"1980 72 CURVE SMOOTH",
"1976 72 OFFCURVE",
"1972 74 OFFCURVE",
"1968 78 CURVE",
"1450 637 LINE",
"1446 641 OFFCURVE",
"1445 645 OFFCURVE",
"1446 649 CURVE"
);
}
);
width = 2048;
}
);
unicode = 0068;
},
{
glyphname = i;
lastChange = "2012-07-03 13:53:28 +0000";
layers = (
{
layerId = "1730482B-7E8C-4DF6-A2D5-70B9989D176C";
name = Regular;
paths = (
{
closed = 1;
nodes = (
"274 799 LINE SMOOTH",
"274 815 OFFCURVE",
"289 829 OFFCURVE",
"305 829 CURVE SMOOTH",
"1743 829 LINE SMOOTH",
"1759 829 OFFCURVE",
"1774 815 OFFCURVE",
"1774 799 CURVE SMOOTH",
"1774 -233 LINE SMOOTH",
"1774 -249 OFFCURVE",
"1759 -262 OFFCURVE",
"1743 -262 CURVE SMOOTH",
"305 -262 LINE SMOOTH",
"289 -262 OFFCURVE",
"274 -249 OFFCURVE",
"274 -233 CURVE SMOOTH"
);
},
{
closed = 1;
nodes = (
"274 1292 LINE SMOOTH",
"274 1308 OFFCURVE",
"289 1321 OFFCURVE",
"305 1321 CURVE SMOOTH",
"446 1321 LINE",
"446 1382 LINE SMOOTH",
"446 1486 OFFCURVE",
"516 1552 OFFCURVE",
"625 1552 CURVE SMOOTH",
"737 1552 OFFCURVE",
"805 1486 OFFCURVE",
"805 1382 CURVE SMOOTH",
"805 1321 LINE",
"846 1321 LINE",
"846 1382 LINE SMOOTH",
"846 1486 OFFCURVE",
"915 1552 OFFCURVE",
"1024 1552 CURVE SMOOTH",
"1136 1552 OFFCURVE",
"1204 1486 OFFCURVE",
"1204 1382 CURVE SMOOTH",
"1204 1321 LINE",
"1245 1321 LINE",
"1245 1382 LINE SMOOTH",
"1245 1486 OFFCURVE",
"1314 1552 OFFCURVE",
"1423 1552 CURVE SMOOTH",
"1535 1552 OFFCURVE",
"1604 1486 OFFCURVE",
"1604 1382 CURVE SMOOTH",
"1604 1321 LINE",
"1743 1321 LINE SMOOTH",
"1759 1321 OFFCURVE",
"1774 1309 OFFCURVE",
"1774 1292 CURVE SMOOTH",
"1774 989 LINE SMOOTH",
"1774 973 OFFCURVE",
"1759 961 OFFCURVE",
"1743 961 CURVE SMOOTH",
"305 961 LINE SMOOTH",
"289 961 OFFCURVE",
"274 973 OFFCURVE",
"274 989 CURVE SMOOTH"
);
},
{
closed = 1;
nodes = (
"557 1143 LINE SMOOTH",
"557 1096 OFFCURVE",
"576 1081 OFFCURVE",
"625 1081 CURVE SMOOTH",
"677 1081 OFFCURVE",
"694 1096 OFFCURVE",
"694 1143 CURVE SMOOTH",
"694 1382 LINE SMOOTH",
"694 1426 OFFCURVE",
"677 1444 OFFCURVE",
"625 1444 CURVE SMOOTH",
"576 1444 OFFCURVE",
"557 1426 OFFCURVE",
"557 1382 CURVE SMOOTH"
);
},
{
closed = 1;
nodes = (
"586 -2 LINE",
"586 -11 OFFCURVE",
"589 -17 OFFCURVE",
"596 -18 CURVE",
"637 -34 OFFCURVE",
"693 -45 OFFCURVE",
"741 -45 CURVE SMOOTH",
"900 -45 OFFCURVE",
"999 30 OFFCURVE",
"999 154 CURVE SMOOTH",
"999 238 OFFCURVE",
"942 278 OFFCURVE",
"885 299 CURVE",
"950 332 OFFCURVE",
"983 379 OFFCURVE",
"983 440 CURVE SMOOTH",
"983 521 OFFCURVE",
"903 580 OFFCURVE",
"780 580 CURVE SMOOTH",
"711 580 OFFCURVE",
"654 569 OFFCURVE",
"610 547 CURVE",
"605 546 OFFCURVE",
"602 541 OFFCURVE",
"602 532 CURVE",
"616 430 LINE",
"616 422 OFFCURVE",
"629 415 OFFCURVE",
"637 420 CURVE",
"678 439 OFFCURVE",
"715 449 OFFCURVE",
"750 449 CURVE SMOOTH",
"784 449 OFFCURVE",
"804 444 OFFCURVE",
"809 435 CURVE",
"814 425 OFFCURVE",
"817 416 OFFCURVE",
"817 408 CURVE SMOOTH",
"817 397 OFFCURVE",
"811 386 OFFCURVE",
"799 373 CURVE",
"786 360 OFFCURVE",
"756 352 OFFCURVE",
"707 348 CURVE",
"698 348 OFFCURVE",
"693 343 OFFCURVE",
"692 334 CURVE",
"692 233 LINE SMOOTH",
"692 224 OFFCURVE",
"697 219 OFFCURVE",
"707 219 CURVE",
"764 215 OFFCURVE",
"801 207 OFFCURVE",
"818 196 CURVE",
"834 184 OFFCURVE",
"842 167 OFFCURVE",
"842 145 CURVE SMOOTH",
"842 109 OFFCURVE",
"808 86 OFFCURVE",
"756 86 CURVE SMOOTH",
"704 86 OFFCURVE",
"666 91 OFFCURVE",
"621 111 CURVE",
"613 114 OFFCURVE",
"600 107 OFFCURVE",
"600 98 CURVE"
);
},
{
closed = 1;
nodes = (
"956 1143 LINE SMOOTH",
"956 1096 OFFCURVE",
"975 1081 OFFCURVE",
"1024 1081 CURVE SMOOTH",
"1073 1081 OFFCURVE",
"1094 1096 OFFCURVE",
"1094 1143 CURVE SMOOTH",
"1094 1382 LINE SMOOTH",
"1094 1463 OFFCURVE",
"992 1449 OFFCURVE",
"972 1430 CURVE SMOOTH",
"961 1420 OFFCURVE",
"956 1404 OFFCURVE",
"956 1382 CURVE SMOOTH"
);
},
{
closed = 1;
nodes = (
"1116 365 LINE",
"1116 357 OFFCURVE",
"1125 352 OFFCURVE",
"1137 352 CURVE",
"1217 383 LINE",
"1217 -20 LINE SMOOTH",
"1217 -29 OFFCURVE",
"1222 -34 OFFCURVE",
"1233 -35 CURVE",
"1356 -35 LINE SMOOTH",
"1365 -35 OFFCURVE",
"1370 -30 OFFCURVE",
"1370 -20 CURVE SMOOTH",
"1370 555 LINE SMOOTH",
"1370 564 OFFCURVE",
"1365 569 OFFCURVE",
"1356 569 CURVE SMOOTH",
"1294 569 LINE",
"1286 569 LINE",
"1110 481 LINE",
"1105 478 OFFCURVE",
"1102 474 OFFCURVE",
"1102 467 CURVE"
);
},
{
closed = 1;
nodes = (
"1356 1143 LINE SMOOTH",
"1356 1096 OFFCURVE",
"1374 1081 OFFCURVE",
"1423 1081 CURVE SMOOTH",
"1475 1081 OFFCURVE",
"1493 1096 OFFCURVE",
"1493 1143 CURVE SMOOTH",
"1493 1382 LINE SMOOTH",
"1493 1426 OFFCURVE",
"1475 1444 OFFCURVE",
"1423 1444 CURVE SMOOTH",
"1374 1444 OFFCURVE",
"1356 1426 OFFCURVE",
"1356 1382 CURVE SMOOTH"
);
}
);
width = 2048;
}
);
unicode = 0069;
},
{
glyphname = j;
lastChange = "2012-07-03 13:53:28 +0000";
layers = (
{
layerId = "1730482B-7E8C-4DF6-A2D5-70B9989D176C";
name = Regular;
paths = (
{
closed = 1;
nodes = (
"346 1192 LINE SMOOTH",
"346 1196 OFFCURVE",
"348 1200 OFFCURVE",
"352 1204 CURVE SMOOTH",
"680 1526 LINE SMOOTH",
"684 1530 OFFCURVE",
"688 1532 OFFCURVE",
"692 1532 CURVE SMOOTH",
"774 1532 LINE SMOOTH",
"785 1532 OFFCURVE",
"790 1527 OFFCURVE",
"791 1516 CURVE",
"791 1106 LINE SMOOTH",
"791 1095 OFFCURVE",
"785 1090 OFFCURVE",
"774 1090 CURVE SMOOTH",
"362 1090 LINE SMOOTH",
"351 1090 OFFCURVE",
"346 1095 OFFCURVE",
"346 1106 CURVE SMOOTH"
);
},
{
closed = 1;
nodes = (
"354 895 LINE SMOOTH",
"354 922 OFFCURVE",
"375 944 OFFCURVE",
"406 944 CURVE SMOOTH",
"872 944 LINE SMOOTH",
"911 944 OFFCURVE",
"940 973 OFFCURVE",
"940 1012 CURVE SMOOTH",
"940 1477 LINE SMOOTH",
"940 1508 OFFCURVE",
"962 1526 OFFCURVE",
"989 1526 CURVE SMOOTH",
"1567 1526 LINE SMOOTH",
"1594 1526 OFFCURVE",
"1616 1506 OFFCURVE",
"1616 1477 CURVE SMOOTH",
"1616 -209 LINE SMOOTH",
"1616 -236 OFFCURVE",
"1594 -258 OFFCURVE",
"1567 -258 CURVE SMOOTH",
"406 -258 LINE SMOOTH",
"375 -258 OFFCURVE",
"354 -236 OFFCURVE",
"354 -209 CURVE SMOOTH"
);
}
);
width = 2048;
}
);
unicode = 006A;
},
{
glyphname = k;
lastChange = "2012-07-03 13:53:28 +0000";
layers = (
{
anchors = (
{
name = bottom;
position = "{1024, 0}";
}
);
layerId = "1730482B-7E8C-4DF6-A2D5-70B9989D176C";
name = Regular;
paths = (
{
closed = 1;
nodes = (
"153 135 OFFCURVE",
"190 189 OFFCURVE",
"226 229 CURVE SMOOTH",
"243 248 OFFCURVE",
"260 264 OFFCURVE",
"276 277 CURVE SMOOTH",
"291 289 OFFCURVE",
"301 296 OFFCURVE",
"305 299 CURVE",
"932 850 LINE",
"911 899 OFFCURVE",
"901 944 OFFCURVE",
"901 985 CURVE SMOOTH",
"901 1116 OFFCURVE",
"960 1252 OFFCURVE",
"1067 1356 CURVE SMOOTH",
"1171 1460 OFFCURVE",
"1299 1514 OFFCURVE",
"1420 1514 CURVE SMOOTH",
"1427 1514 OFFCURVE",
"1438 1514 OFFCURVE",
"1446 1509 CURVE",
"1450 1506 OFFCURVE",
"1458 1499 OFFCURVE",
"1470 1487 CURVE SMOOTH",
"1497 1460 LINE",
"1510 1445 OFFCURVE",
"1510 1430 OFFCURVE",
"1497 1417 CURVE SMOOTH",
"1434 1354 LINE",
"1366 1286 LINE SMOOTH",
"1333 1253 OFFCURVE",
"1321 1232 OFFCURVE",
"1320 1212 CURVE",
"1319 1201 OFFCURVE",
"1319 1187 OFFCURVE",
"1319 1169 CURVE SMOOTH",
"1319 1143 LINE SMOOTH",
"1319 1104 OFFCURVE",
"1346 1052 OFFCURVE",
"1395 1004 CURVE SMOOTH",
"1442 957 OFFCURVE",
"1493 930 OFFCURVE",
"1532 930 CURVE SMOOTH",
"1559 930 LINE SMOOTH",
"1595 930 OFFCURVE",
"1610 929 OFFCURVE",
"1634 942 CURVE",
"1645 949 OFFCURVE",
"1659 960 OFFCURVE",
"1675 977 CURVE",
"1743 1044 LINE",
"1806 1108 LINE SMOOTH",
"1819 1121 OFFCURVE",
"1834 1121 OFFCURVE",
"1849 1108 CURVE",
"1876 1081 LINE SMOOTH",
"1900 1057 OFFCURVE",
"1903 1056 OFFCURVE",
"1903 1031 CURVE SMOOTH",
"1903 908 OFFCURVE",
"1849 782 OFFCURVE",
"1745 678 CURVE SMOOTH",
"1641 571 OFFCURVE",
"1506 512 OFFCURVE",
"1374 512 CURVE SMOOTH",
"1330 512 OFFCURVE",
"1285 522 OFFCURVE",
"1239 543 CURVE",
"688 -84 LINE",
"685 -88 OFFCURVE",
"678 -98 OFFCURVE",
"666 -113 CURVE SMOOTH",
"641 -145 OFFCURVE",
"601 -182 OFFCURVE",
"548 -214 CURVE SMOOTH",
"521 -230 OFFCURVE",
"492 -240 OFFCURVE",
"459 -244 CURVE SMOOTH",
"448 -245 OFFCURVE",
"438 -246 OFFCURVE",
"427 -246 CURVE SMOOTH",
"362 -246 OFFCURVE",
"299 -217 OFFCURVE",
"238 -158 CURVE SMOOTH",
"236 -156 LINE",
"233 -156 LINE",
"233 -155 OFFCURVE",
"233 -154 OFFCURVE",
"232 -154 CURVE SMOOTH",
"231 -154 OFFCURVE",
"231 -153 OFFCURVE",
"231 -152 CURVE",
"172 -87 OFFCURVE",
"143 -23 OFFCURVE",
"144 42 CURVE",
"143 51 OFFCURVE",
"144 61 OFFCURVE",
"145 70 CURVE SMOOTH"
);
},
{
closed = 1;
nodes = (
"358 102 OFFCURVE",
"348 79 OFFCURVE",
"348 54 CURVE SMOOTH",
"348 3 OFFCURVE",
"394 -41 OFFCURVE",
"444 -41 CURVE SMOOTH",
"494 -41 OFFCURVE",
"539 5 OFFCURVE",
"539 55 CURVE SMOOTH",
"539 105 OFFCURVE",
"494 150 OFFCURVE",
"444 150 CURVE SMOOTH",
"419 150 OFFCURVE",
"396 140 OFFCURVE",
"377 121 CURVE SMOOTH"
);
}
);
width = 2048;
}
);
unicode = 006B;
},
{
glyphname = l;
lastChange = "2012-07-03 13:53:28 +0000";
layers = (
{
anchors = (
{
name = bottom;
position = "{1024, 0}";
},
{
name = top;
position = "{1024, 1447}";
},
{
name = topright;
position = "{2028, 1447}";
}
);
layerId = "1730482B-7E8C-4DF6-A2D5-70B9989D176C";
name = Regular;
paths = (
{
closed = 1;
nodes = (
"49 913 OFFCURVE",
"159 1158 OFFCURVE",
"335 1334 CURVE SMOOTH",
"511 1510 OFFCURVE",
"756 1620 OFFCURVE",
"1024 1620 CURVE SMOOTH",
"1292 1620 OFFCURVE",
"1537 1510 OFFCURVE",
"1713 1334 CURVE SMOOTH",
"1889 1158 OFFCURVE",
"1999 913 OFFCURVE",
"1999 645 CURVE SMOOTH",
"1999 377 OFFCURVE",
"1889 132 OFFCURVE",
"1713 -44 CURVE SMOOTH",
"1537 -220 OFFCURVE",
"1292 -330 OFFCURVE",
"1024 -330 CURVE SMOOTH",
"756 -330 OFFCURVE",
"511 -220 OFFCURVE",
"335 -44 CURVE SMOOTH",
"159 132 OFFCURVE",
"49 377 OFFCURVE",
"49 645 CURVE SMOOTH"
);
},
{
closed = 1;
nodes = (
"295 428 OFFCURVE",
"354 255 OFFCURVE",
"495 113 CURVE SMOOTH",
"565 42 OFFCURVE",
"646 -13 OFFCURVE",
"739 -51 CURVE",
"740 -29 OFFCURVE",
"743 -4 OFFCURVE",
"746 25 CURVE SMOOTH",
"752 82 OFFCURVE",
"757 141 OFFCURVE",
"761 185 CURVE SMOOTH",
"763 206 OFFCURVE",
"765 221 OFFCURVE",
"766 229 CURVE",
"767 244 OFFCURVE",
"761 262 OFFCURVE",
"748 283 CURVE",
"735 301 LINE",
"714 337 OFFCURVE",
"685 378 OFFCURVE",
"682 438 CURVE SMOOTH",
"681 465 OFFCURVE",
"681 485 OFFCURVE",
"683 498 CURVE SMOOTH",
"685 510 OFFCURVE",
"686 519 OFFCURVE",
"686 526 CURVE",
"681 531 OFFCURVE",
"677 534 OFFCURVE",
"672 537 CURVE",
"663 546 OFFCURVE",
"655 553 OFFCURVE",
"649 557 CURVE",
"640 566 OFFCURVE",
"632 573 OFFCURVE",
"627 578 CURVE",
"602 590 OFFCURVE",
"576 599 OFFCURVE",
"549 605 CURVE SMOOTH",
"522 611 OFFCURVE",
"496 620 OFFCURVE",
"473 631 CURVE",
"454 639 OFFCURVE",
"419 656 OFFCURVE",
"383 680 CURVE SMOOTH",
"347 704 OFFCURVE",
"309 738 OFFCURVE",
"285 778 CURVE",
"278 737 OFFCURVE",
"275 695 OFFCURVE",
"275 654 CURVE SMOOTH",
"275 625 OFFCURVE",
"277 597 OFFCURVE",
"280 568 CURVE SMOOTH"
);
},
{
closed = 1;
nodes = (
"568 1232 OFFCURVE",
"582 1233 OFFCURVE",
"595 1233 CURVE SMOOTH",
"605 1233 OFFCURVE",
"615 1233 OFFCURVE",
"626 1232 CURVE SMOOTH",
"650 1230 OFFCURVE",
"666 1219 OFFCURVE",
"674 1200 CURVE SMOOTH",
"690 1164 OFFCURVE",
"725 1132 OFFCURVE",
"764 1108 CURVE SMOOTH",
"769 1105 OFFCURVE",
"777 1103 OFFCURVE",
"788 1102 CURVE",
"791 1101 OFFCURVE",
"798 1095 OFFCURVE",
"811 1085 CURVE",
"812 1085 OFFCURVE",
"814 1084 OFFCURVE",
"815 1083 CURVE SMOOTH",
"816 1082 OFFCURVE",
"818 1080 OFFCURVE",
"821 1079 CURVE SMOOTH",
"840 1073 LINE",
"857 1078 OFFCURVE",
"870 1075 OFFCURVE",
"879 1063 CURVE",
"895 1055 OFFCURVE",
"909 1045 OFFCURVE",
"927 1029 CURVE",
"936 1020 OFFCURVE",
"943 1010 OFFCURVE",
"950 999 CURVE",
"942 986 OFFCURVE",
"933 972 OFFCURVE",
"922 958 CURVE",
"905 938 LINE",
"900 933 OFFCURVE",
"892 927 OFFCURVE",
"881 922 CURVE",
"881 921 OFFCURVE",
"881 920 OFFCURVE",
"882 920 CURVE SMOOTH",
"883 920 OFFCURVE",
"883 919 OFFCURVE",
"883 918 CURVE",
"888 910 OFFCURVE",
"886 903 OFFCURVE",
"877 897 CURVE",
"866 892 OFFCURVE",
"854 889 OFFCURVE",
"840 889 CURVE",
"819 885 LINE",
"812 884 OFFCURVE",
"808 881 OFFCURVE",
"805 877 CURVE",
"805 876 OFFCURVE",
"803 874 OFFCURVE",
"799 872 CURVE",
"794 871 OFFCURVE",
"789 867 OFFCURVE",
"784 862 CURVE SMOOTH",
"776 854 OFFCURVE",
"770 839 OFFCURVE",
"766 817 CURVE SMOOTH",
"765 812 OFFCURVE",
"762 806 OFFCURVE",
"758 801 CURVE",
"761 778 OFFCURVE",
"762 756 OFFCURVE",
"762 736 CURVE SMOOTH",
"762 726 OFFCURVE",
"762 717 OFFCURVE",
"761 708 CURVE",
"759 681 OFFCURVE",
"750 666 OFFCURVE",
"735 662 CURVE SMOOTH",
"722 659 OFFCURVE",
"704 666 OFFCURVE",
"676 681 CURVE SMOOTH",
"662 688 OFFCURVE",
"646 700 OFFCURVE",
"627 715 CURVE",
"630 702 OFFCURVE",
"634 689 OFFCURVE",
"639 678 CURVE",
"642 673 OFFCURVE",
"644 666 OFFCURVE",
"645 659 CURVE",
"649 659 OFFCURVE",
"653 660 OFFCURVE",
"657 661 CURVE",
"660 662 OFFCURVE",
"663 662 OFFCURVE",
"666 662 CURVE SMOOTH",
"679 662 OFFCURVE",
"686 645 OFFCURVE",
"678 637 CURVE",
"673 627 LINE",
"672 626 OFFCURVE",
"672 624 OFFCURVE",
"672 623 CURVE",
"684 616 LINE SMOOTH",
"692 611 OFFCURVE",
"697 606 OFFCURVE",
"700 602 CURVE",
"703 602 OFFCURVE",
"705 602 OFFCURVE",
"707 601 CURVE",
"708 600 OFFCURVE",
"710 600 OFFCURVE",
"713 600 CURVE SMOOTH",
"728 600 OFFCURVE",
"746 601 OFFCURVE",
"766 603 CURVE SMOOTH",
"805 607 OFFCURVE",
"847 606 OFFCURVE",
"890 590 CURVE SMOOTH",
"911 582 OFFCURVE",
"931 567 OFFCURVE",
"950 545 CURVE",
"989 504 OFFCURVE",
"1032 478 OFFCURVE",
"1065 458 CURVE SMOOTH",
"1098 437 OFFCURVE",
"1120 419 OFFCURVE",
"1120 391 CURVE SMOOTH",
"1120 336 OFFCURVE",
"1112 275 OFFCURVE",
"1104 254 CURVE",
"1099 230 OFFCURVE",
"1052 181 OFFCURVE",
"997 145 CURVE SMOOTH",
"978 132 OFFCURVE",
"964 113 OFFCURVE",
"952 82 CURVE",
"945 67 OFFCURVE",
"942 50 OFFCURVE",
"942 31 CURVE",
"931 12 OFFCURVE",
"923 -5 OFFCURVE",
"916 -20 CURVE SMOOTH",
"909 -35 OFFCURVE",
"902 -48 OFFCURVE",
"897 -59 CURVE",
"892 -72 OFFCURVE",
"886 -84 OFFCURVE",
"881 -94 CURVE",
"930 -103 OFFCURVE",
"978 -108 OFFCURVE",
"1025 -108 CURVE SMOOTH",
"1184 -108 OFFCURVE",
"1397 -57 OFFCURVE",
"1573 135 CURVE SMOOTH",
"1704 274 OFFCURVE",
"1771 454 OFFCURVE",
"1776 639 CURVE",
"1702 594 LINE",
"1693 595 OFFCURVE",
"1684 596 OFFCURVE",
"1677 596 CURVE SMOOTH",
"1662 596 OFFCURVE",
"1654 591 OFFCURVE",
"1655 582 CURVE",
"1686 569 LINE",
"1691 566 OFFCURVE",
"1695 564 OFFCURVE",
"1696 561 CURVE SMOOTH",
"1700 549 OFFCURVE",
"1697 535 OFFCURVE",
"1688 518 CURVE",
"1671 494 LINE",
"1667 489 OFFCURVE",
"1663 484 OFFCURVE",
"1659 479 CURVE",
"1645 465 LINE",
"1630 451 LINE",
"1630 447 OFFCURVE",
"1630 443 OFFCURVE",
"1629 438 CURVE SMOOTH",
"1628 433 OFFCURVE",
"1628 427 OFFCURVE",
"1628 422 CURVE SMOOTH",
"1628 401 OFFCURVE",
"1617 374 OFFCURVE",
"1604 346 CURVE",
"1604 319 LINE",
"1601 310 OFFCURVE",
"1598 301 OFFCURVE",
"1595 294 CURVE",
"1591 287 OFFCURVE",
"1588 279 OFFCURVE",
"1585 270 CURVE",
"1582 263 OFFCURVE",
"1579 257 OFFCURVE",
"1576 250 CURVE SMOOTH",
"1573 243 OFFCURVE",
"1570 236 OFFCURVE",
"1569 227 CURVE SMOOTH",
"1565 192 OFFCURVE",
"1549 159 OFFCURVE",
"1522 129 CURVE",
"1489 96 OFFCURVE",
"1460 79 OFFCURVE",
"1437 79 CURVE SMOOTH",
"1434 79 OFFCURVE",
"1432 79 OFFCURVE",
"1430 80 CURVE",
"1406 85 OFFCURVE",
"1394 116 OFFCURVE",
"1389 137 CURVE",
"1388 138 OFFCURVE",
"1387 141 OFFCURVE",
"1386 145 CURVE",
"1378 162 LINE",
"1375 167 OFFCURVE",
"1373 173 OFFCURVE",
"1370 180 CURVE SMOOTH",
"1363 197 OFFCURVE",
"1357 214 OFFCURVE",
"1350 231 CURVE SMOOTH",
"1343 248 OFFCURVE",
"1340 266 OFFCURVE",
"1343 285 CURVE",
"1343 288 OFFCURVE",
"1344 291 OFFCURVE",
"1345 295 CURVE SMOOTH",
"1346 299 OFFCURVE",
"1346 303 OFFCURVE",
"1346 307 CURVE",
"1351 338 OFFCURVE",
"1356 366 OFFCURVE",
"1341 395 CURVE",
"1335 408 LINE",
"1324 429 OFFCURVE",
"1318 445 OFFCURVE",
"1331 477 CURVE",
"1331 478 OFFCURVE",
"1325 480 OFFCURVE",
"1314 483 CURVE SMOOTH",
"1302 486 OFFCURVE",
"1282 487 OFFCURVE",
"1253 487 CURVE SMOOTH",
"1237 487 LINE",
"1231 487 LINE SMOOTH",
"1172 487 OFFCURVE",
"1135 523 OFFCURVE",
"1120 594 CURVE SMOOTH",
"1118 605 OFFCURVE",
"1117 615 OFFCURVE",
"1117 626 CURVE SMOOTH",
"1117 659 OFFCURVE",
"1127 692 OFFCURVE",
"1147 723 CURVE",
"1148 726 OFFCURVE",
"1149 729 OFFCURVE",
"1149 733 CURVE SMOOTH",
"1149 742 OFFCURVE",
"1150 749 OFFCURVE",
"1151 754 CURVE",
"1164 757 OFFCURVE",
"1169 764 OFFCURVE",
"1176 772 CURVE",
"1184 788 LINE",
"1199 789 OFFCURVE",
"1217 792 OFFCURVE",
"1238 796 CURVE SMOOTH",
"1278 803 OFFCURVE",
"1324 807 OFFCURVE",
"1361 806 CURVE SMOOTH",
"1380 805 OFFCURVE",
"1394 802 OFFCURVE",
"1405 797 CURVE",
"1424 784 OFFCURVE",
"1456 762 OFFCURVE",
"1483 754 CURVE",
"1540 793 LINE",
"1516 837 OFFCURVE",
"1492 855 OFFCURVE",
"1479 866 CURVE",
"1471 871 OFFCURVE",
"1463 875 OFFCURVE",
"1456 877 CURVE",
"1448 876 OFFCURVE",
"1441 873 OFFCURVE",
"1434 870 CURVE",
"1421 866 OFFCURVE",
"1408 857 OFFCURVE",
"1395 842 CURVE",
"1260 854 LINE",
"1247 841 OFFCURVE",
"1225 839 OFFCURVE",
"1210 836 CURVE",
"1201 835 OFFCURVE",
"1192 834 OFFCURVE",
"1184 834 CURVE",
"1181 847 OFFCURVE",
"1178 859 OFFCURVE",
"1174 868 CURVE SMOOTH",
"1166 885 OFFCURVE",
"1162 898 OFFCURVE",
"1161 907 CURVE SMOOTH",
"1159 925 OFFCURVE",
"1168 934 OFFCURVE",
"1181 942 CURVE",
"1193 950 OFFCURVE",
"1202 969 OFFCURVE",
"1203 985 CURVE SMOOTH",
"1204 1001 OFFCURVE",
"1207 1026 OFFCURVE",
"1220 1060 CURVE SMOOTH",
"1232 1094 OFFCURVE",
"1255 1142 OFFCURVE",
"1296 1164 CURVE SMOOTH",
"1337 1186 OFFCURVE",
"1388 1198 OFFCURVE",
"1440 1205 CURVE SMOOTH",
"1466 1208 OFFCURVE",
"1490 1211 OFFCURVE",
"1513 1212 CURVE",
"1465 1253 OFFCURVE",
"1416 1287 OFFCURVE",
"1366 1315 CURVE",
"1345 1315 OFFCURVE",
"1324 1320 OFFCURVE",
"1305 1325 CURVE",
"1266 1333 OFFCURVE",
"1228 1340 OFFCURVE",
"1192 1327 CURVE SMOOTH",
"1179 1322 OFFCURVE",
"1166 1315 OFFCURVE",
"1153 1307 CURVE",
"1134 1294 OFFCURVE",
"1113 1283 OFFCURVE",
"1092 1280 CURVE",
"1079 1277 OFFCURVE",
"1066 1276 OFFCURVE",
"1053 1276 CURVE SMOOTH",
"957 1276 OFFCURVE",
"854 1317 OFFCURVE",
"782 1356 CURVE",
"700 1329 OFFCURVE",
"624 1287 OFFCURVE",
"555 1231 CURVE"
);
}
);
width = 2048;
}
);
unicode = 006C;
},
{
glyphname = m;
lastChange = "2012-07-03 13:53:28 +0000";
layers = (
{
layerId = "1730482B-7E8C-4DF6-A2D5-70B9989D176C";
name = Regular;
paths = (
{
closed = 1;
nodes = (
"154 913 LINE SMOOTH",
"154 934 OFFCURVE",
"162 950 OFFCURVE",
"178 963 CURVE SMOOTH",
"981 1606 LINE SMOOTH",
"992 1615 OFFCURVE",
"1005 1620 OFFCURVE",
"1020 1620 CURVE SMOOTH",
"1035 1620 OFFCURVE",
"1048 1615 OFFCURVE",
"1061 1606 CURVE",
"1890 963 LINE",
"1907 952 OFFCURVE",
"1915 936 OFFCURVE",
"1915 913 CURVE SMOOTH",
"1915 -250 LINE SMOOTH",
"1915 -286 OFFCURVE",
"1887 -313 OFFCURVE",
"1851 -313 CURVE SMOOTH",
"1374 -313 LINE SMOOTH",
"1338 -313 OFFCURVE",
"1311 -285 OFFCURVE",
"1311 -250 CURVE SMOOTH",
"1311 463 LINE",
"760 463 LINE",
"760 -250 LINE SMOOTH",
"760 -286 OFFCURVE",
"732 -313 OFFCURVE",
"696 -313 CURVE SMOOTH",
"217 -313 LINE SMOOTH",
"181 -313 OFFCURVE",
"154 -286 OFFCURVE",
"154 -250 CURVE SMOOTH"
);
}
);
width = 2048;
}
);
unicode = 006D;
},
{
glyphname = n;
lastChange = "2012-07-03 13:53:28 +0000";
layers = (
{
anchors = (
{
name = bottom;
position = "{1024, 0}";
},
{
name = top;
position = "{1024, 1447}";
}
);
layerId = "1730482B-7E8C-4DF6-A2D5-70B9989D176C";
name = Regular;
paths = (
{
closed = 1;
nodes = (
"66 492 LINE SMOOTH",
"66 1033 OFFCURVE",
"330 1316 OFFCURVE",
"862 1343 CURVE",
"864 1343 OFFCURVE",
"866 1343 OFFCURVE",
"868 1344 CURVE",
"891 1344 OFFCURVE",
"913 1328 OFFCURVE",
"920 1300 CURVE SMOOTH",
"975 1049 LINE",
"983 1018 OFFCURVE",
"959 984 OFFCURVE",
"928 981 CURVE",
"695 948 OFFCURVE",
"576 839 OFFCURVE",
"573 653 CURVE",
"784 653 LINE SMOOTH",
"815 653 OFFCURVE",
"840 629 OFFCURVE",
"840 598 CURVE SMOOTH",
"840 -193 LINE SMOOTH",
"840 -226 OFFCURVE",
"815 -250 OFFCURVE",
"784 -250 CURVE SMOOTH",
"123 -250 LINE SMOOTH",
"92 -250 OFFCURVE",
"66 -226 OFFCURVE",
"66 -193 CURVE SMOOTH"
);
},
{
closed = 1;
nodes = (
"1087 492 LINE SMOOTH",
"1087 1033 OFFCURVE",
"1352 1316 OFFCURVE",
"1884 1343 CURVE",
"1886 1343 OFFCURVE",
"1888 1343 OFFCURVE",
"1890 1344 CURVE",
"1913 1344 OFFCURVE",
"1935 1328 OFFCURVE",
"1942 1300 CURVE SMOOTH",
"1997 1049 LINE SMOOTH",
"1998 1044 OFFCURVE",
"1999 1040 OFFCURVE",
"1999 1035 CURVE SMOOTH",
"1999 1015 OFFCURVE",
"1981 984 OFFCURVE",
"1950 981 CURVE",
"1717 948 OFFCURVE",
"1598 839 OFFCURVE",
"1595 653 CURVE",
"1806 653 LINE SMOOTH",
"1837 653 OFFCURVE",
"1862 629 OFFCURVE",
"1862 598 CURVE SMOOTH",
"1862 -193 LINE SMOOTH",
"1862 -226 OFFCURVE",
"1837 -250 OFFCURVE",
"1806 -250 CURVE SMOOTH",
"1145 -250 LINE SMOOTH",
"1114 -250 OFFCURVE",
"1087 -226 OFFCURVE",
"1087 -193 CURVE SMOOTH"
);
}
);
width = 2048;
}
);
unicode = 006E;
},
{
glyphname = o;
lastChange = "2012-07-03 13:53:28 +0000";
layers = (
{
anchors = (
{
name = top;
position = "{1024, 1447}";
}
);
layerId = "1730482B-7E8C-4DF6-A2D5-70B9989D176C";
name = Regular;
paths = (
{
closed = 1;
nodes = (
"16 367 LINE SMOOTH",
"16 393 OFFCURVE",
"26 411 OFFCURVE",
"47 420 CURVE SMOOTH",
"350 561 LINE",
"279 605 OFFCURVE",
"229 689 OFFCURVE",
"229 793 CURVE SMOOTH",
"229 864 OFFCURVE",
"254 928 OFFCURVE",
"295 975 CURVE SMOOTH",
"336 1022 OFFCURVE",
"390 1051 OFFCURVE",
"453 1051 CURVE SMOOTH",
"516 1051 OFFCURVE",
"572 1022 OFFCURVE",
"612 975 CURVE SMOOTH",
"651 928 OFFCURVE",
"676 864 OFFCURVE",
"676 793 CURVE SMOOTH",
"676 712 OFFCURVE",
"645 639 OFFCURVE",
"596 592 CURVE",
"469 532 LINE",
"420 511 OFFCURVE",
"387 456 OFFCURVE",
"387 393 CURVE SMOOTH",
"387 156 LINE",
"66 156 LINE SMOOTH",
"39 156 OFFCURVE",
"16 182 OFFCURVE",
"16 213 CURVE SMOOTH"
);
},
{
closed = 1;
nodes = (
"453 393 LINE SMOOTH",
"453 426 OFFCURVE",
"467 449 OFFCURVE",
"494 463 CURVE",
"887 645 LINE",
"791 702 OFFCURVE",
"729 815 OFFCURVE",
"729 946 CURVE SMOOTH",
"729 1039 OFFCURVE",
"761 1124 OFFCURVE",
"814 1185 CURVE SMOOTH",
"867 1246 OFFCURVE",
"937 1284 OFFCURVE",
"1020 1284 CURVE SMOOTH",
"1099 1284 OFFCURVE",
"1173 1246 OFFCURVE",
"1225 1185 CURVE SMOOTH",
"1277 1124 OFFCURVE",
"1309 1039 OFFCURVE",
"1309 946 CURVE SMOOTH",
"1309 815 OFFCURVE",
"1248 706 OFFCURVE",
"1157 649 CURVE",
"1546 463 LINE SMOOTH",
"1573 450 OFFCURVE",
"1587 426 OFFCURVE",
"1587 393 CURVE SMOOTH",
"1587 82 LINE SMOOTH",
"1587 41 OFFCURVE",
"1559 6 OFFCURVE",
"1522 6 CURVE SMOOTH",
"516 6 LINE SMOOTH",
"480 6 OFFCURVE",
"453 41 OFFCURVE",
"453 82 CURVE SMOOTH"
);
},
{
closed = 1;
nodes = (
"1364 864 OFFCURVE",
"1389 928 OFFCURVE",
"1430 975 CURVE SMOOTH",
"1470 1022 OFFCURVE",
"1524 1051 OFFCURVE",
"1587 1051 CURVE SMOOTH",
"1647 1051 OFFCURVE",
"1704 1022 OFFCURVE",
"1745 975 CURVE SMOOTH",
"1786 928 OFFCURVE",
"1810 864 OFFCURVE",
"1810 793 CURVE SMOOTH",
"1810 692 OFFCURVE",
"1765 607 OFFCURVE",
"1694 563 CURVE",
"1993 420 LINE",
"2014 409 OFFCURVE",
"2024 392 OFFCURVE",
"2023 367 CURVE",
"2023 213 LINE SMOOTH",
"2023 182 OFFCURVE",
"2002 156 OFFCURVE",
"1974 156 CURVE SMOOTH",
"1651 156 LINE",
"1651 393 LINE SMOOTH",
"1651 456 OFFCURVE",
"1620 511 OFFCURVE",
"1571 532 CURVE",
"1444 594 LINE",
"1395 641 OFFCURVE",
"1364 714 OFFCURVE",
"1364 793 CURVE SMOOTH"
);
}
);
width = 2048;
}
);
unicode = 006F;
},
{
glyphname = p;
lastChange = "2012-07-03 13:53:28 +0000";
layers = (
{
layerId = "1730482B-7E8C-4DF6-A2D5-70B9989D176C";
name = Regular;
paths = (
{
closed = 1;
nodes = (
"121 1286 LINE SMOOTH",
"121 1349 OFFCURVE",
"168 1399 OFFCURVE",
"231 1399 CURVE SMOOTH",
"1833 1399 LINE SMOOTH",
"1896 1399 OFFCURVE",
"1944 1349 OFFCURVE",
"1944 1286 CURVE SMOOTH",
"1944 309 LINE SMOOTH",
"1944 246 OFFCURVE",
"1896 199 OFFCURVE",
"1833 199 CURVE SMOOTH",
"1270 199 LINE",
"1270 29 LINE",
"1401 29 LINE SMOOTH",
"1417 29 OFFCURVE",
"1432 15 OFFCURVE",
"1432 -4 CURVE SMOOTH",
"1432 -76 LINE SMOOTH",
"1432 -95 OFFCURVE",
"1417 -106 OFFCURVE",
"1401 -106 CURVE SMOOTH",
"647 -106 LINE SMOOTH",
"631 -106 OFFCURVE",
"616 -95 OFFCURVE",
"616 -76 CURVE SMOOTH",
"616 -4 LINE SMOOTH",
"616 15 OFFCURVE",
"631 29 OFFCURVE",
"647 29 CURVE SMOOTH",
"778 29 LINE",
"778 199 LINE",
"231 199 LINE SMOOTH",
"168 199 OFFCURVE",
"121 246 OFFCURVE",
"121 309 CURVE SMOOTH"
);
},
{
closed = 1;
nodes = (
"344 422 LINE",
"1720 422 LINE",
"1720 1174 LINE",
"344 1174 LINE"
);
}
);
width = 2048;
}
);
unicode = 0070;
},
{
glyphname = q;
lastChange = "2012-07-03 13:53:28 +0000";
layers = (
{
layerId = "1730482B-7E8C-4DF6-A2D5-70B9989D176C";
name = Regular;
paths = (
{
closed = 1;
nodes = (
"27 176 LINE SMOOTH",
"27 203 OFFCURVE",
"48 223 OFFCURVE",
"76 223 CURVE SMOOTH",
"1972 223 LINE SMOOTH",
"1999 223 OFFCURVE",
"2019 204 OFFCURVE",
"2019 176 CURVE SMOOTH",
"2019 59 LINE SMOOTH",
"2019 46 OFFCURVE",
"2015 35 OFFCURVE",
"2007 27 CURVE SMOOTH",
"1933 -47 LINE",
"1925 -56 OFFCURVE",
"1913 -61 OFFCURVE",
"1898 -61 CURVE SMOOTH",
"143 -61 LINE SMOOTH",
"128 -61 OFFCURVE",
"116 -56 OFFCURVE",
"109 -47 CURVE",
"39 27 LINE SMOOTH",
"31 36 OFFCURVE",
"27 47 OFFCURVE",
"27 59 CURVE SMOOTH"
);
},
{
closed = 1;
nodes = (
"233 1260 LINE SMOOTH",
"233 1315 OFFCURVE",
"275 1356 OFFCURVE",
"330 1356 CURVE SMOOTH",
"1718 1356 LINE SMOOTH",
"1773 1356 OFFCURVE",
"1815 1313 OFFCURVE",
"1815 1260 CURVE SMOOTH",
"1815 410 LINE SMOOTH",
"1815 355 OFFCURVE",
"1773 313 OFFCURVE",
"1718 313 CURVE SMOOTH",
"330 313 LINE SMOOTH",
"275 313 OFFCURVE",
"233 355 OFFCURVE",
"233 410 CURVE SMOOTH"
);
},
{
closed = 1;
nodes = (
"426 506 LINE",
"1622 506 LINE",
"1622 1163 LINE",
"426 1163 LINE"
);
},
{
closed = 1;
nodes = (
"842 25 LINE SMOOTH",
"842 18 OFFCURVE",
"843 13 OFFCURVE",
"844 8 CURVE SMOOTH",
"845 3 OFFCURVE",
"847 0 OFFCURVE",
"850 0 CURVE SMOOTH",
"1196 0 LINE SMOOTH",
"1199 0 OFFCURVE",
"1201 2 OFFCURVE",
"1202 7 CURVE SMOOTH",
"1203 12 OFFCURVE",
"1204 18 OFFCURVE",
"1204 25 CURVE SMOOTH",
"1204 137 LINE SMOOTH",
"1204 144 OFFCURVE",
"1203 150 OFFCURVE",
"1202 155 CURVE SMOOTH",
"1201 160 OFFCURVE",
"1199 162 OFFCURVE",
"1196 162 CURVE SMOOTH",
"850 162 LINE SMOOTH",
"847 162 OFFCURVE",
"845 160 OFFCURVE",
"844 155 CURVE SMOOTH",
"843 150 OFFCURVE",
"842 144 OFFCURVE",
"842 137 CURVE SMOOTH"
);
}
);
width = 2048;
}
);
unicode = 0071;
},
{
glyphname = r;
lastChange = "2012-07-03 13:53:28 +0000";
layers = (
{
anchors = (
{
name = bottom;
position = "{1024, 0}";
},
{
name = top;
position = "{1024, 1447}";
}
);
layerId = "1730482B-7E8C-4DF6-A2D5-70B9989D176C";
name = Regular;
paths = (
{
closed = 1;
nodes = (
"69 1247 OFFCURVE",
"67 1258 OFFCURVE",
"86 1298 CURVE SMOOTH",
"95 1317 OFFCURVE",
"107 1333 OFFCURVE",
"121 1346 CURVE",
"393 1618 LINE SMOOTH",
"412 1637 OFFCURVE",
"434 1647 OFFCURVE",
"459 1647 CURVE SMOOTH",
"495 1647 OFFCURVE",
"521 1624 OFFCURVE",
"541 1593 CURVE",
"760 1178 LINE",
"769 1163 OFFCURVE",
"773 1146 OFFCURVE",
"773 1129 CURVE SMOOTH",
"773 1122 OFFCURVE",
"772 1114 OFFCURVE",
"770 1106 CURVE",
"765 1080 OFFCURVE",
"753 1058 OFFCURVE",
"735 1040 CURVE SMOOTH",
"635 940 LINE SMOOTH",
"630 935 OFFCURVE",
"625 920 OFFCURVE",
"625 911 CURVE",
"636 854 OFFCURVE",
"670 788 OFFCURVE",
"738 694 CURVE SMOOTH",
"771 647 OFFCURVE",
"820 592 OFFCURVE",
"883 530 CURVE SMOOTH",
"1006 405 OFFCURVE",
"1102 340 OFFCURVE",
"1166 308 CURVE SMOOTH",
"1198 291 OFFCURVE",
"1223 281 OFFCURVE",
"1240 278 CURVE",
"1266 272 LINE",
"1271 272 OFFCURVE",
"1287 278 OFFCURVE",
"1292 283 CURVE SMOOTH",
"1409 401 LINE",
"1434 423 OFFCURVE",
"1462 434 OFFCURVE",
"1495 434 CURVE SMOOTH",
"1518 434 OFFCURVE",
"1537 430 OFFCURVE",
"1550 422 CURVE",
"1552 422 LINE",
"1948 188 LINE SMOOTH",
"1977 170 OFFCURVE",
"1994 148 OFFCURVE",
"1999 121 CURVE SMOOTH",
"2000 116 OFFCURVE",
"2000 112 OFFCURVE",
"2000 107 CURVE SMOOTH",
"2000 82 OFFCURVE",
"1990 59 OFFCURVE",
"1970 39 CURVE SMOOTH",
"1698 -231 LINE",
"1674 -258 OFFCURVE",
"1630 -280 OFFCURVE",
"1591 -285 CURVE",
"1590 -285 OFFCURVE",
"1586 -285 OFFCURVE",
"1579 -286 CURVE SMOOTH",
"1572 -287 OFFCURVE",
"1563 -287 OFFCURVE",
"1552 -287 CURVE SMOOTH",
"1526 -287 OFFCURVE",
"1484 -282 OFFCURVE",
"1426 -273 CURVE SMOOTH",
"1310 -255 OFFCURVE",
"1140 -191 OFFCURVE",
"928 -51 CURVE SMOOTH",
"821 18 OFFCURVE",
"708 114 OFFCURVE",
"588 236 CURVE SMOOTH",
"397 424 OFFCURVE",
"275 599 OFFCURVE",
"199 745 CURVE SMOOTH",
"122 891 OFFCURVE",
"87 1010 OFFCURVE",
"74 1097 CURVE SMOOTH",
"68 1133 OFFCURVE",
"65 1162 OFFCURVE",
"65 1185 CURVE",
"66 1190 OFFCURVE",
"66 1194 OFFCURVE",
"66 1198 CURVE"
);
}
);
width = 2048;
}
);
unicode = 0072;
},
{
glyphname = s;
lastChange = "2012-07-03 13:53:28 +0000";
layers = (
{
anchors = (
{
name = bottom;
position = "{1024, 0}";
},
{
name = top;
position = "{1024, 1447}";
}
);
layerId = "1730482B-7E8C-4DF6-A2D5-70B9989D176C";
name = Regular;
paths = (
{
closed = 1;
nodes = (
"37 645 OFFCURVE",
"88 773 OFFCURVE",
"173 863 CURVE SMOOTH",
"257 953 OFFCURVE",
"369 1010 OFFCURVE",
"498 1010 CURVE SMOOTH",
"531 1010 OFFCURVE",
"563 1006 OFFCURVE",
"594 997 CURVE",
"709 1161 OFFCURVE",
"885 1255 OFFCURVE",
"1073 1255 CURVE SMOOTH",
"1206 1255 OFFCURVE",
"1335 1207 OFFCURVE",
"1437 1124 CURVE SMOOTH",
"1539 1040 OFFCURVE",
"1614 922 OFFCURVE",
"1653 782 CURVE",
"1665 783 OFFCURVE",
"1677 784 OFFCURVE",
"1689 784 CURVE SMOOTH",
"1758 784 OFFCURVE",
"1840 759 OFFCURVE",
"1905 695 CURVE SMOOTH",
"1970 631 OFFCURVE",
"2011 538 OFFCURVE",
"2011 434 CURVE SMOOTH",
"2011 357 OFFCURVE",
"1990 288 OFFCURVE",
"1948 225 CURVE SMOOTH",
"1936 206 OFFCURVE",
"1919 196 OFFCURVE",
"1896 197 CURVE",
"168 197 LINE SMOOTH",
"143 197 OFFCURVE",
"126 207 OFFCURVE",
"115 227 CURVE",
"63 312 OFFCURVE",
"37 405 OFFCURVE",
"37 506 CURVE SMOOTH"
);
}
);
width = 2048;
}
);
unicode = 0073;
},
{
glyphname = t;
lastChange = "2012-07-03 13:53:28 +0000";
layers = (
{
anchors = (
{
name = bottom;
position = "{1024, 0}";
},
{
name = center;
position = "{1024, 724}";
}
);
layerId = "1730482B-7E8C-4DF6-A2D5-70B9989D176C";
name = Regular;
paths = (
{
closed = 1;
nodes = (
"66 910 OFFCURVE",
"173 1152 OFFCURVE",
"348 1328 CURVE SMOOTH",
"523 1504 OFFCURVE",
"764 1612 OFFCURVE",
"1032 1612 CURVE SMOOTH",
"1297 1612 OFFCURVE",
"1539 1504 OFFCURVE",
"1715 1328 CURVE SMOOTH",
"1891 1152 OFFCURVE",
"1999 910 OFFCURVE",
"1999 645 CURVE SMOOTH",
"1999 377 OFFCURVE",
"1891 138 OFFCURVE",
"1715 -38 CURVE SMOOTH",
"1539 -214 OFFCURVE",
"1297 -322 OFFCURVE",
"1032 -322 CURVE SMOOTH",
"764 -322 OFFCURVE",
"523 -214 OFFCURVE",
"348 -38 CURVE SMOOTH",
"173 138 OFFCURVE",
"66 377 OFFCURVE",
"66 645 CURVE SMOOTH"
);
},
{
closed = 1;
nodes = (
"322 449 OFFCURVE",
"402 272 OFFCURVE",
"531 144 CURVE SMOOTH",
"659 15 OFFCURVE",
"836 -66 OFFCURVE",
"1032 -66 CURVE SMOOTH",
"1228 -66 OFFCURVE",
"1406 15 OFFCURVE",
"1534 144 CURVE SMOOTH",
"1662 272 OFFCURVE",
"1743 449 OFFCURVE",
"1743 645 CURVE SMOOTH",
"1743 841 OFFCURVE",
"1662 1019 OFFCURVE",
"1534 1147 CURVE SMOOTH",
"1406 1275 OFFCURVE",
"1229 1356 OFFCURVE",
"1032 1356 CURVE SMOOTH",
"836 1356 OFFCURVE",
"659 1275 OFFCURVE",
"531 1147 CURVE SMOOTH",
"402 1019 OFFCURVE",
"322 841 OFFCURVE",
"322 645 CURVE SMOOTH"
);
},
{
closed = 1;
nodes = (
"526 502 LINE SMOOTH",
"526 475 OFFCURVE",
"548 453 OFFCURVE",
"575 453 CURVE SMOOTH",
"1489 453 LINE SMOOTH",
"1516 453 OFFCURVE",
"1536 474 OFFCURVE",
"1536 502 CURVE SMOOTH",
"1536 788 LINE SMOOTH",
"1536 815 OFFCURVE",
"1516 838 OFFCURVE",
"1489 838 CURVE SMOOTH",
"575 838 LINE SMOOTH",
"548 838 OFFCURVE",
"526 816 OFFCURVE",
"526 788 CURVE SMOOTH"
);
}
);
width = 2048;
}
);
unicode = 0074;
},
{
glyphname = u;
lastChange = "2012-07-03 13:53:28 +0000";
layers = (
{
anchors = (
{
name = ogonek;
position = "{1843, 10}";
},
{
name = top;
position = "{1024, 1447}";
}
);
layerId = "1730482B-7E8C-4DF6-A2D5-70B9989D176C";
name = Regular;
paths = (
{
closed = 1;
nodes = (
"49 946 LINE SMOOTH",
"49 985 OFFCURVE",
"76 1012 OFFCURVE",
"115 1012 CURVE SMOOTH",
"946 1012 LINE",
"946 1321 LINE SMOOTH",
"946 1347 OFFCURVE",
"958 1366 OFFCURVE",
"981 1378 CURVE SMOOTH",
"991 1383 OFFCURVE",
"1001 1386 OFFCURVE",
"1010 1386 CURVE SMOOTH",
"1023 1386 OFFCURVE",
"1035 1381 OFFCURVE",
"1047 1372 CURVE SMOOTH",
"1974 715 LINE SMOOTH",
"1992 702 OFFCURVE",
"2001 685 OFFCURVE",
"2001 664 CURVE SMOOTH",
"2001 662 LINE SMOOTH",
"2001 641 OFFCURVE",
"1992 624 OFFCURVE",
"1974 610 CURVE",
"1047 -53 LINE",
"1024 -68 OFFCURVE",
"1001 -68 OFFCURVE",
"981 -57 CURVE",
"958 -46 OFFCURVE",
"946 -27 OFFCURVE",
"946 0 CURVE SMOOTH",
"946 309 LINE",
"115 309 LINE SMOOTH",
"76 309 OFFCURVE",
"49 337 OFFCURVE",
"49 373 CURVE SMOOTH"
);
}
);
width = 2048;
}
);
unicode = 0075;
},
{
glyphname = v;
lastChange = "2012-07-03 13:53:28 +0000";
layers = (
{
layerId = "1730482B-7E8C-4DF6-A2D5-70B9989D176C";
name = Regular;
paths = (
{
closed = 1;
nodes = (
"49 679 OFFCURVE",
"58 697 OFFCURVE",
"76 711 CURVE",
"1001 1372 LINE SMOOTH",
"1014 1381 OFFCURVE",
"1027 1385 OFFCURVE",
"1040 1385 CURVE SMOOTH",
"1049 1385 OFFCURVE",
"1059 1383 OFFCURVE",
"1069 1378 CURVE",
"1092 1365 OFFCURVE",
"1104 1346 OFFCURVE",
"1104 1321 CURVE SMOOTH",
"1104 1012 LINE",
"1935 1012 LINE SMOOTH",
"1971 1012 OFFCURVE",
"1999 985 OFFCURVE",
"1999 946 CURVE SMOOTH",
"1999 373 LINE SMOOTH",
"1999 337 OFFCURVE",
"1971 309 OFFCURVE",
"1935 309 CURVE SMOOTH",
"1104 309 LINE",
"1104 0 LINE SMOOTH",
"1104 -27 OFFCURVE",
"1092 -46 OFFCURVE",
"1069 -57 CURVE SMOOTH",
"1049 -66 OFFCURVE",
"1026 -69 OFFCURVE",
"1001 -53 CURVE",
"76 606 LINE SMOOTH",
"58 619 OFFCURVE",
"49 636 OFFCURVE",
"49 657 CURVE SMOOTH"
);
}
);
width = 2048;
}
);
unicode = 0076;
},
{
glyphname = w;
lastChange = "2012-07-03 13:53:28 +0000";
layers = (
{
anchors = (
{
name = top;
position = "{1024, 1447}";
}
);
layerId = "1730482B-7E8C-4DF6-A2D5-70B9989D176C";
name = Regular;
paths = (
{
closed = 1;
nodes = (
"301 627 OFFCURVE",
"298 637 OFFCURVE",
"298 647 CURVE SMOOTH",
"298 659 OFFCURVE",
"302 671 OFFCURVE",
"311 682 CURVE",
"971 1608 LINE",
"992 1647 OFFCURVE",
"1052 1645 OFFCURVE",
"1073 1610 CURVE",
"1737 682 LINE",
"1746 671 OFFCURVE",
"1750 659 OFFCURVE",
"1750 647 CURVE SMOOTH",
"1750 637 OFFCURVE",
"1747 627 OFFCURVE",
"1741 616 CURVE",
"1730 593 OFFCURVE",
"1712 581 OFFCURVE",
"1686 582 CURVE",
"1374 582 LINE",
"1374 -252 LINE SMOOTH",
"1374 -288 OFFCURVE",
"1346 -315 OFFCURVE",
"1311 -315 CURVE SMOOTH",
"737 -315 LINE SMOOTH",
"701 -315 OFFCURVE",
"674 -288 OFFCURVE",
"674 -252 CURVE SMOOTH",
"674 582 LINE",
"362 582 LINE",
"336 581 OFFCURVE",
"318 593 OFFCURVE",
"307 616 CURVE"
);
}
);
width = 2048;
}
);
unicode = 0077;
},
{
glyphname = x;
lastChange = "2012-07-03 13:53:28 +0000";
layers = (
{
layerId = "1730482B-7E8C-4DF6-A2D5-70B9989D176C";
name = Regular;
paths = (
{
closed = 1;
nodes = (
"326 728 OFFCURVE",
"344 740 OFFCURVE",
"371 739 CURVE",
"682 739 LINE",
"682 1571 LINE SMOOTH",
"682 1610 OFFCURVE",
"710 1636 OFFCURVE",
"745 1636 CURVE SMOOTH",
"1319 1636 LINE SMOOTH",
"1355 1636 OFFCURVE",
"1382 1608 OFFCURVE",
"1382 1571 CURVE SMOOTH",
"1382 739 LINE",
"1694 739 LINE SMOOTH",
"1720 739 OFFCURVE",
"1738 728 OFFCURVE",
"1749 705 CURVE",
"1755 694 OFFCURVE",
"1758 684 OFFCURVE",
"1758 674 CURVE SMOOTH",
"1758 662 OFFCURVE",
"1754 650 OFFCURVE",
"1745 639 CURVE",
"1085 -289 LINE",
"1064 -325 OFFCURVE",
"1004 -324 OFFCURVE",
"983 -289 CURVE",
"319 639 LINE",
"310 650 OFFCURVE",
"306 662 OFFCURVE",
"306 674 CURVE SMOOTH",
"306 684 OFFCURVE",
"309 694 OFFCURVE",
"315 705 CURVE"
);
}
);
width = 2048;
}
);
unicode = 0078;
},
{
glyphname = y;
lastChange = "2012-07-03 13:53:28 +0000";
layers = (
{
anchors = (
{
name = top;
position = "{1024, 1447}";
}
);
layerId = "1730482B-7E8C-4DF6-A2D5-70B9989D176C";
name = Regular;
paths = (
{
closed = 1;
nodes = (
"242 1399 LINE SMOOTH",
"242 1432 OFFCURVE",
"268 1458 OFFCURVE",
"301 1458 CURVE SMOOTH",
"791 1458 LINE",
"791 1534 LINE SMOOTH",
"791 1567 OFFCURVE",
"817 1593 OFFCURVE",
"848 1593 CURVE SMOOTH",
"1200 1593 LINE SMOOTH",
"1231 1593 OFFCURVE",
"1257 1567 OFFCURVE",
"1257 1534 CURVE SMOOTH",
"1257 1458 LINE",
"1747 1458 LINE SMOOTH",
"1780 1458 OFFCURVE",
"1806 1431 OFFCURVE",
"1806 1399 CURVE SMOOTH",
"1806 1227 LINE SMOOTH",
"1806 1194 OFFCURVE",
"1780 1167 OFFCURVE",
"1747 1167 CURVE SMOOTH",
"301 1167 LINE SMOOTH",
"268 1167 OFFCURVE",
"242 1194 OFFCURVE",
"242 1227 CURVE SMOOTH"
);
},
{
closed = 1;
nodes = (
"322 999 LINE SMOOTH",
"322 1032 OFFCURVE",
"348 1059 OFFCURVE",
"381 1059 CURVE SMOOTH",
"1667 1059 LINE SMOOTH",
"1700 1059 OFFCURVE",
"1726 1032 OFFCURVE",
"1726 999 CURVE SMOOTH",
"1726 -244 LINE SMOOTH",
"1726 -277 OFFCURVE",
"1700 -303 OFFCURVE",
"1667 -303 CURVE SMOOTH",
"381 -303 LINE SMOOTH",
"348 -303 OFFCURVE",
"322 -277 OFFCURVE",
"322 -244 CURVE SMOOTH"
);
}
);
width = 2048;
}
);
unicode = 0079;
},
{
glyphname = z;
lastChange = "2012-07-03 13:53:28 +0000";
layers = (
{
anchors = (
{
name = top;
position = "{1024, 1447}";
}
);
layerId = "1730482B-7E8C-4DF6-A2D5-70B9989D176C";
name = Regular;
paths = (
{
closed = 1;
nodes = (
"215 1106 LINE",
"215 1206 LINE",
"215 1212 LINE",
"217 1212 LINE",
"217 1215 OFFCURVE",
"218 1218 OFFCURVE",
"221 1221 CURVE SMOOTH",
"606 1599 LINE",
"606 1606 LINE",
"618 1606 LINE",
"619 1607 OFFCURVE",
"621 1608 OFFCURVE",
"623 1608 CURVE SMOOTH",
"721 1608 LINE",
"725 1606 LINE",
"1479 1606 LINE SMOOTH",
"1510 1606 OFFCURVE",
"1530 1585 OFFCURVE",
"1530 1554 CURVE SMOOTH",
"1530 985 LINE",
"1364 985 LINE",
"1364 1440 LINE",
"739 1440 LINE",
"739 1106 LINE SMOOTH",
"739 1093 OFFCURVE",
"733 1086 OFFCURVE",
"721 1085 CURVE",
"381 1085 LINE",
"381 -88 LINE",
"1118 -88 LINE",
"1118 -256 LINE",
"266 -256 LINE SMOOTH",
"235 -256 OFFCURVE",
"215 -234 OFFCURVE",
"215 -203 CURVE SMOOTH"
);
},
{
closed = 1;
nodes = (
"924 399 LINE SMOOTH",
"924 417 OFFCURVE",
"933 426 OFFCURVE",
"950 426 CURVE SMOOTH",
"1305 426 LINE",
"1305 780 LINE SMOOTH",
"1305 798 OFFCURVE",
"1314 807 OFFCURVE",
"1331 807 CURVE SMOOTH",
"1579 807 LINE SMOOTH",
"1597 807 OFFCURVE",
"1606 798 OFFCURVE",
"1606 780 CURVE SMOOTH",
"1606 426 LINE",
"1958 426 LINE SMOOTH",
"1976 426 OFFCURVE",
"1985 417 OFFCURVE",
"1985 399 CURVE SMOOTH",
"1985 152 LINE SMOOTH",
"1985 134 OFFCURVE",
"1976 125 OFFCURVE",
"1958 125 CURVE SMOOTH",
"1606 125 LINE",
"1606 -229 LINE SMOOTH",
"1606 -247 OFFCURVE",
"1597 -256 OFFCURVE",
"1579 -256 CURVE SMOOTH",
"1331 -256 LINE SMOOTH",
"1313 -256 OFFCURVE",
"1304 -247 OFFCURVE",
"1305 -229 CURVE",
"1305 125 LINE",
"950 125 LINE SMOOTH",
"933 125 OFFCURVE",
"924 134 OFFCURVE",
"924 152 CURVE SMOOTH"
);
}
);
width = 2048;
}
);
unicode = 007A;
},
{
glyphname = braceleft;
lastChange = "2012-07-03 13:53:28 +0000";
layers = (
{
layerId = "1730482B-7E8C-4DF6-A2D5-70B9989D176C";
name = Regular;
paths = (
{
closed = 1;
nodes = (
"289 1106 LINE",
"289 1206 LINE",
"289 1212 LINE",
"291 1212 LINE",
"291 1215 OFFCURVE",
"292 1218 OFFCURVE",
"295 1221 CURVE SMOOTH",
"680 1599 LINE",
"680 1606 LINE",
"692 1606 LINE",
"693 1607 OFFCURVE",
"695 1608 OFFCURVE",
"696 1608 CURVE SMOOTH",
"795 1608 LINE",
"799 1606 LINE",
"1552 1606 LINE SMOOTH",
"1583 1606 OFFCURVE",
"1606 1585 OFFCURVE",
"1606 1554 CURVE SMOOTH",
"1606 1159 LINE",
"1630 1184 LINE SMOOTH",
"1637 1191 OFFCURVE",
"1645 1194 OFFCURVE",
"1655 1194 CURVE SMOOTH",
"1664 1194 OFFCURVE",
"1672 1191 OFFCURVE",
"1679 1184 CURVE SMOOTH",
"1933 928 LINE SMOOTH",
"1946 915 OFFCURVE",
"1948 892 OFFCURVE",
"1933 879 CURVE",
"1249 195 LINE SMOOTH",
"1248 194 OFFCURVE",
"1244 191 OFFCURVE",
"1237 186 CURVE",
"858 63 LINE",
"857 63 OFFCURVE",
"855 63 OFFCURVE",
"854 62 CURVE SMOOTH",
"853 61 OFFCURVE",
"851 61 OFFCURVE",
"848 61 CURVE SMOOTH",
"829 61 OFFCURVE",
"804 78 OFFCURVE",
"815 109 CURVE SMOOTH",
"936 483 LINE",
"937 488 OFFCURVE",
"941 495 OFFCURVE",
"948 502 CURVE SMOOTH",
"1438 991 LINE",
"1438 1440 LINE",
"813 1440 LINE",
"813 1106 LINE SMOOTH",
"813 1093 OFFCURVE",
"807 1086 OFFCURVE",
"795 1085 CURVE",
"457 1085 LINE",
"457 -88 LINE",
"702 -88 LINE",
"1192 -88 LINE",
"1438 -88 LINE",
"1438 174 LINE",
"1468 203 OFFCURVE",
"1492 226 OFFCURVE",
"1509 243 CURVE SMOOTH",
"1526 260 OFFCURVE",
"1539 273 OFFCURVE",
"1550 283 CURVE SMOOTH",
"1575 307 LINE SMOOTH",
"1596 328 OFFCURVE",
"1606 312 OFFCURVE",
"1606 293 CURVE SMOOTH",
"1606 -199 LINE SMOOTH",
"1606 -232 OFFCURVE",
"1583 -256 OFFCURVE",
"1552 -256 CURVE SMOOTH",
"1192 -256 LINE",
"702 -256 LINE",
"340 -256 LINE SMOOTH",
"309 -256 OFFCURVE",
"289 -234 OFFCURVE",
"289 -203 CURVE SMOOTH"
);
},
{
closed = 1;
nodes = (
"956 205 LINE",
"1165 274 LINE",
"1024 416 LINE"
);
}
);
width = 2048;
}
);
unicode = 007B;
},
{
glyphname = bar;
lastChange = "2012-07-03 13:53:28 +0000";
layers = (
{
layerId = "1730482B-7E8C-4DF6-A2D5-70B9989D176C";
name = Regular;
paths = (
{
closed = 1;
nodes = (
"176 731 LINE SMOOTH",
"176 767 OFFCURVE",
"204 795 OFFCURVE",
"240 795 CURVE SMOOTH",
"330 795 LINE",
"434 795 LINE",
"434 1004 LINE SMOOTH",
"434 1163 OFFCURVE",
"500 1309 OFFCURVE",
"604 1413 CURVE SMOOTH",
"708 1517 OFFCURVE",
"853 1583 OFFCURVE",
"1012 1583 CURVE SMOOTH",
"1171 1583 OFFCURVE",
"1317 1517 OFFCURVE",
"1421 1413 CURVE SMOOTH",
"1525 1309 OFFCURVE",
"1591 1161 OFFCURVE",
"1591 1004 CURVE SMOOTH",
"1591 1001 LINE",
"1591 795 LINE",
"1718 795 LINE",
"1808 795 LINE SMOOTH",
"1844 795 OFFCURVE",
"1872 767 OFFCURVE",
"1872 731 CURVE SMOOTH",
"1872 -211 LINE SMOOTH",
"1872 -247 OFFCURVE",
"1844 -274 OFFCURVE",
"1808 -274 CURVE SMOOTH",
"240 -274 LINE SMOOTH",
"204 -274 OFFCURVE",
"176 -247 OFFCURVE",
"176 -211 CURVE SMOOTH"
);
},
{
closed = 1;
nodes = (
"774 795 LINE",
"1251 795 LINE",
"1251 1004 LINE",
"1251 1006 LINE SMOOTH",
"1251 1071 OFFCURVE",
"1223 1131 OFFCURVE",
"1180 1173 CURVE SMOOTH",
"1136 1215 OFFCURVE",
"1077 1241 OFFCURVE",
"1012 1241 CURVE SMOOTH",
"947 1241 OFFCURVE",
"888 1215 OFFCURVE",
"844 1172 CURVE SMOOTH",
"800 1128 OFFCURVE",
"774 1069 OFFCURVE",
"774 1004 CURVE SMOOTH"
);
}
);
width = 2048;
}
);
unicode = 007C;
},
{
glyphname = braceright;
lastChange = "2012-07-03 13:53:28 +0000";
layers = (
{
layerId = "1730482B-7E8C-4DF6-A2D5-70B9989D176C";
name = Regular;
paths = (
{
closed = 1;
nodes = (
"176 696 LINE SMOOTH",
"176 732 OFFCURVE",
"204 760 OFFCURVE",
"240 760 CURVE SMOOTH",
"330 760 LINE",
"469 760 LINE",
"469 1028 LINE SMOOTH",
"469 1187 OFFCURVE",
"535 1334 OFFCURVE",
"639 1438 CURVE SMOOTH",
"743 1542 OFFCURVE",
"888 1608 OFFCURVE",
"1049 1608 CURVE SMOOTH",
"1208 1608 OFFCURVE",
"1348 1544 OFFCURVE",
"1453 1441 CURVE SMOOTH",
"1558 1338 OFFCURVE",
"1623 1197 OFFCURVE",
"1626 1038 CURVE",
"1627 1037 OFFCURVE",
"1628 1033 OFFCURVE",
"1628 1028 CURVE SMOOTH",
"1628 1001 OFFCURVE",
"1609 979 OFFCURVE",
"1581 979 CURVE SMOOTH",
"1579 979 LINE",
"1333 979 LINE SMOOTH",
"1306 979 OFFCURVE",
"1286 1001 OFFCURVE",
"1286 1028 CURVE SMOOTH",
"1286 1093 OFFCURVE",
"1260 1152 OFFCURVE",
"1217 1196 CURVE SMOOTH",
"1173 1240 OFFCURVE",
"1114 1266 OFFCURVE",
"1049 1266 CURVE SMOOTH",
"984 1266 OFFCURVE",
"924 1240 OFFCURVE",
"881 1196 CURVE SMOOTH",
"837 1152 OFFCURVE",
"811 1093 OFFCURVE",
"811 1028 CURVE SMOOTH",
"811 760 LINE",
"1397 760 LINE",
"1718 760 LINE",
"1808 760 LINE SMOOTH",
"1844 760 OFFCURVE",
"1872 732 OFFCURVE",
"1872 696 CURVE SMOOTH",
"1872 -246 LINE SMOOTH",
"1872 -285 OFFCURVE",
"1844 -309 OFFCURVE",
"1808 -309 CURVE SMOOTH",
"240 -309 LINE SMOOTH",
"204 -309 OFFCURVE",
"176 -285 OFFCURVE",
"176 -246 CURVE SMOOTH"
);
}
);
width = 2048;
}
);
unicode = 007D;
},
{
glyphname = asciitilde;
lastChange = "2012-07-03 13:53:28 +0000";
layers = (
{
layerId = "1730482B-7E8C-4DF6-A2D5-70B9989D176C";
name = Regular;
paths = (
{
closed = 1;
nodes = (
"163 435 OFFCURVE",
"193 472 OFFCURVE",
"233 477 CURVE SMOOTH",
"479 510 LINE SMOOTH",
"520 515 OFFCURVE",
"534 473 OFFCURVE",
"525 450 CURVE SMOOTH",
"520 438 OFFCURVE",
"513 430 OFFCURVE",
"502 426 CURVE",
"274 330 LINE",
"271 329 OFFCURVE",
"268 328 OFFCURVE",
"264 327 CURVE SMOOTH",
"260 326 OFFCURVE",
"257 325 OFFCURVE",
"254 324 CURVE",
"210 319 OFFCURVE",
"173 347 OFFCURVE",
"168 391 CURVE SMOOTH"
);
},
{
closed = 1;
nodes = (
"252 1178 LINE SMOOTH",
"221 1215 OFFCURVE",
"231 1272 OFFCURVE",
"268 1303 CURVE SMOOTH",
"307 1334 OFFCURVE",
"364 1325 OFFCURVE",
"393 1286 CURVE SMOOTH",
"565 1061 LINE SMOOTH",
"596 1020 OFFCURVE",
"560 982 OFFCURVE",
"533 978 CURVE SMOOTH",
"519 976 OFFCURVE",
"507 980 OFFCURVE",
"496 989 CURVE",
"268 1161 LINE",
"260 1169 LINE"
);
},
{
closed = 1;
nodes = (
"551 702 LINE SMOOTH",
"551 835 OFFCURVE",
"605 957 OFFCURVE",
"693 1045 CURVE SMOOTH",
"780 1132 OFFCURVE",
"899 1188 OFFCURVE",
"1032 1188 CURVE SMOOTH",
"1034 1188 LINE SMOOTH",
"1167 1188 OFFCURVE",
"1289 1132 OFFCURVE",
"1377 1045 CURVE SMOOTH",
"1464 957 OFFCURVE",
"1518 837 OFFCURVE",
"1518 702 CURVE",
"1516 702 LINE",
"1518 702 LINE",
"1517 699 OFFCURVE",
"1516 695 OFFCURVE",
"1516 690 CURVE SMOOTH",
"1516 684 LINE",
"1513 653 OFFCURVE",
"1510 628 OFFCURVE",
"1505 600 CURVE SMOOTH",
"1497 545 OFFCURVE",
"1472 493 OFFCURVE",
"1442 438 CURVE SMOOTH",
"1427 411 OFFCURVE",
"1411 383 OFFCURVE",
"1394 354 CURVE SMOOTH",
"1377 325 OFFCURVE",
"1360 295 OFFCURVE",
"1343 264 CURVE",
"1322 220 OFFCURVE",
"1305 182 OFFCURVE",
"1290 149 CURVE SMOOTH",
"1261 84 OFFCURVE",
"1235 38 OFFCURVE",
"1211 11 CURVE SMOOTH",
"1198 -3 OFFCURVE",
"1184 -11 OFFCURVE",
"1169 -14 CURVE",
"1166 -14 OFFCURVE",
"1159 -14 OFFCURVE",
"1146 -15 CURVE SMOOTH",
"1133 -16 OFFCURVE",
"1119 -16 OFFCURVE",
"1104 -16 CURVE SMOOTH",
"1061 -16 LINE",
"1034 -16 LINE",
"1008 -16 LINE",
"964 -16 LINE SMOOTH",
"948 -16 OFFCURVE",
"934 -16 OFFCURVE",
"921 -15 CURVE SMOOTH",
"908 -14 OFFCURVE",
"900 -14 OFFCURVE",
"899 -14 CURVE",
"866 -9 OFFCURVE",
"844 20 OFFCURVE",
"820 66 CURVE SMOOTH",
"807 89 OFFCURVE",
"794 117 OFFCURVE",
"779 150 CURVE SMOOTH",
"749 216 OFFCURVE",
"709 297 OFFCURVE",
"675 354 CURVE SMOOTH",
"641 411 OFFCURVE",
"610 466 OFFCURVE",
"587 519 CURVE SMOOTH",
"575 546 OFFCURVE",
"567 573 OFFCURVE",
"563 600 CURVE",
"558 626 OFFCURVE",
"554 654 OFFCURVE",
"551 684 CURVE"
);
},
{
closed = 1;
nodes = (
"834 -90 OFFCURVE",
"862 -63 OFFCURVE",
"901 -63 CURVE SMOOTH",
"1032 -63 LINE",
"1034 -63 LINE",
"1165 -63 LINE SMOOTH",
"1204 -63 OFFCURVE",
"1233 -90 OFFCURVE",
"1233 -123 CURVE SMOOTH",
"1233 -154 OFFCURVE",
"1204 -180 OFFCURVE",
"1165 -180 CURVE SMOOTH",
"1034 -180 LINE",
"1032 -180 LINE",
"901 -180 LINE SMOOTH",
"862 -180 OFFCURVE",
"834 -154 OFFCURVE",
"834 -123 CURVE SMOOTH"
);
},
{
closed = 1;
nodes = (
"834 -268 OFFCURVE",
"862 -242 OFFCURVE",
"901 -242 CURVE SMOOTH",
"1032 -242 LINE",
"1034 -242 LINE",
"1165 -242 LINE SMOOTH",
"1204 -242 OFFCURVE",
"1233 -268 OFFCURVE",
"1233 -301 CURVE SMOOTH",
"1233 -332 OFFCURVE",
"1204 -358 OFFCURVE",
"1165 -358 CURVE SMOOTH",
"1034 -358 LINE",
"1032 -358 LINE",
"901 -358 LINE SMOOTH",
"862 -358 OFFCURVE",
"834 -332 OFFCURVE",
"834 -301 CURVE SMOOTH"
);
},
{
closed = 1;
nodes = (
"946 1571 LINE",
"946 1593 LINE",
"951 1637 OFFCURVE",
"988 1666 OFFCURVE",
"1032 1669 CURVE",
"1034 1669 LINE",
"1078 1666 OFFCURVE",
"1115 1637 OFFCURVE",
"1120 1593 CURVE",
"1123 1585 OFFCURVE",
"1123 1578 OFFCURVE",
"1120 1571 CURVE",
"1083 1288 LINE",
"1078 1264 OFFCURVE",
"1059 1245 OFFCURVE",
"1034 1245 CURVE SMOOTH",
"1032 1245 LINE SMOOTH",
"1008 1245 OFFCURVE",
"988 1264 OFFCURVE",
"985 1288 CURVE SMOOTH"
);
},
{
closed = 1;
nodes = (
"1517 976 OFFCURVE",
"1550 970 OFFCURVE",
"1573 989 CURVE",
"1798 1161 LINE SMOOTH",
"1802 1164 OFFCURVE",
"1808 1169 OFFCURVE",
"1817 1178 CURVE",
"1848 1217 OFFCURVE",
"1839 1272 OFFCURVE",
"1798 1303 CURVE SMOOTH",
"1759 1334 OFFCURVE",
"1704 1325 OFFCURVE",
"1673 1286 CURVE SMOOTH",
"1501 1061 LINE SMOOTH",
"1486 1040 OFFCURVE",
"1486 1019 OFFCURVE",
"1501 997 CURVE"
);
},
{
closed = 1;
nodes = (
"1538 465 OFFCURVE",
"1548 441 OFFCURVE",
"1571 430 CURVE",
"1806 332 LINE",
"1811 328 OFFCURVE",
"1818 326 OFFCURVE",
"1827 326 CURVE",
"1871 321 OFFCURVE",
"1910 349 OFFCURVE",
"1915 393 CURVE SMOOTH",
"1920 440 OFFCURVE",
"1891 478 OFFCURVE",
"1847 483 CURVE SMOOTH",
"1595 516 LINE SMOOTH",
"1572 519 OFFCURVE",
"1555 510 OFFCURVE",
"1546 489 CURVE"
);
}
);
width = 2048;
}
);
unicode = 007E;
},
{
glyphname = ordfeminine;
lastChange = "2012-07-03 13:53:28 +0000";
layers = (
{
layerId = "1730482B-7E8C-4DF6-A2D5-70B9989D176C";
name = Regular;
paths = (
{
closed = 1;
nodes = (
"47 752 LINE SMOOTH",
"47 779 OFFCURVE",
"67 800 OFFCURVE",
"94 803 CURVE SMOOTH",
"342 827 LINE",
"359 886 OFFCURVE",
"383 942 OFFCURVE",
"414 997 CURVE",
"256 1190 LINE",
"237 1211 OFFCURVE",
"239 1240 OFFCURVE",
"258 1260 CURVE SMOOTH",
"410 1411 LINE SMOOTH",
"419 1420 OFFCURVE",
"431 1425 OFFCURVE",
"446 1425 CURVE SMOOTH",
"457 1425 OFFCURVE",
"468 1421 OFFCURVE",
"479 1413 CURVE",
"672 1255 LINE",
"727 1286 OFFCURVE",
"783 1310 OFFCURVE",
"842 1327 CURVE",
"866 1575 LINE SMOOTH",
"869 1602 OFFCURVE",
"890 1622 OFFCURVE",
"918 1622 CURVE SMOOTH",
"1130 1622 LINE SMOOTH",
"1157 1622 OFFCURVE",
"1179 1602 OFFCURVE",
"1182 1575 CURVE SMOOTH",
"1206 1327 LINE",
"1265 1310 OFFCURVE",
"1321 1286 OFFCURVE",
"1376 1255 CURVE",
"1569 1413 LINE",
"1578 1421 OFFCURVE",
"1589 1425 OFFCURVE",
"1602 1425 CURVE SMOOTH",
"1617 1425 OFFCURVE",
"1629 1420 OFFCURVE",
"1638 1411 CURVE SMOOTH",
"1790 1260 LINE SMOOTH",
"1809 1241 OFFCURVE",
"1811 1211 OFFCURVE",
"1792 1190 CURVE",
"1634 997 LINE",
"1665 942 OFFCURVE",
"1689 886 OFFCURVE",
"1706 827 CURVE",
"1954 803 LINE SMOOTH",
"1981 800 OFFCURVE",
"2001 779 OFFCURVE",
"2001 752 CURVE SMOOTH",
"2001 539 LINE SMOOTH",
"2001 512 OFFCURVE",
"1981 490 OFFCURVE",
"1954 487 CURVE SMOOTH",
"1706 463 LINE",
"1689 404 OFFCURVE",
"1665 348 OFFCURVE",
"1634 293 CURVE",
"1792 100 LINE",
"1811 79 OFFCURVE",
"1809 50 OFFCURVE",
"1790 31 CURVE SMOOTH",
"1638 -121 LINE SMOOTH",
"1629 -130 OFFCURVE",
"1617 -135 OFFCURVE",
"1602 -135 CURVE SMOOTH",
"1590 -135 OFFCURVE",
"1579 -131 OFFCURVE",
"1569 -123 CURVE SMOOTH",
"1376 35 LINE",
"1321 4 OFFCURVE",
"1265 -20 OFFCURVE",
"1206 -37 CURVE",
"1182 -285 LINE SMOOTH",
"1179 -312 OFFCURVE",
"1158 -332 OFFCURVE",
"1130 -332 CURVE SMOOTH",
"918 -332 LINE SMOOTH",
"891 -332 OFFCURVE",
"869 -312 OFFCURVE",
"866 -285 CURVE SMOOTH",
"842 -37 LINE",
"783 -20 OFFCURVE",
"727 4 OFFCURVE",
"672 35 CURVE",
"479 -123 LINE",
"468 -131 OFFCURVE",
"457 -135 OFFCURVE",
"446 -135 CURVE SMOOTH",
"431 -135 OFFCURVE",
"419 -130 OFFCURVE",
"410 -121 CURVE SMOOTH",
"258 31 LINE SMOOTH",
"239 50 OFFCURVE",
"237 79 OFFCURVE",
"256 100 CURVE",
"414 293 LINE",
"383 348 OFFCURVE",
"359 404 OFFCURVE",
"342 463 CURVE",
"94 487 LINE SMOOTH",
"67 490 OFFCURVE",
"47 512 OFFCURVE",
"47 539 CURVE SMOOTH"
);
},
{
closed = 1;
nodes = (
"735 566 OFFCURVE",
"767 492 OFFCURVE",
"819 440 CURVE SMOOTH",
"871 388 OFFCURVE",
"945 356 OFFCURVE",
"1024 356 CURVE SMOOTH",
"1103 356 OFFCURVE",
"1177 388 OFFCURVE",
"1229 440 CURVE SMOOTH",
"1281 492 OFFCURVE",
"1313 566 OFFCURVE",
"1313 645 CURVE SMOOTH",
"1313 724 OFFCURVE",
"1281 798 OFFCURVE",
"1229 850 CURVE SMOOTH",
"1177 902 OFFCURVE",
"1103 934 OFFCURVE",
"1024 934 CURVE SMOOTH",
"945 934 OFFCURVE",
"871 902 OFFCURVE",
"819 850 CURVE SMOOTH",
"767 798 OFFCURVE",
"735 724 OFFCURVE",
"735 645 CURVE SMOOTH"
);
}
);
width = 2048;
}
);
unicode = 00AA;
},
{
glyphname = uni00B2;
lastChange = "2012-07-03 13:53:28 +0000";
layers = (
{
layerId = "1730482B-7E8C-4DF6-A2D5-70B9989D176C";
name = Regular;
paths = (
{
closed = 1;
nodes = (
"12 1511 OFFCURVE",
"54 1552 OFFCURVE",
"109 1552 CURVE SMOOTH",
"391 1552 LINE",
"1479 1552 LINE",
"1927 1552 LINE SMOOTH",
"1987 1552 OFFCURVE",
"2032 1500 OFFCURVE",
"2023 1440 CURVE SMOOTH",
"1870 541 LINE SMOOTH",
"1862 494 OFFCURVE",
"1821 459 OFFCURVE",
"1776 459 CURVE SMOOTH",
"707 459 LINE SMOOTH",
"706 459 OFFCURVE",
"704 460 OFFCURVE",
"702 461 CURVE",
"530 248 LINE",
"1808 248 LINE SMOOTH",
"1863 248 OFFCURVE",
"1905 207 OFFCURVE",
"1905 152 CURVE SMOOTH",
"1905 100 OFFCURVE",
"1863 57 OFFCURVE",
"1808 57 CURVE SMOOTH",
"330 57 LINE SMOOTH",
"251 57 OFFCURVE",
"204 153 OFFCURVE",
"256 213 CURVE",
"582 618 LINE",
"322 1360 LINE",
"109 1360 LINE SMOOTH",
"54 1360 OFFCURVE",
"12 1401 OFFCURVE",
"12 1456 CURVE SMOOTH"
);
},
{
closed = 1;
nodes = (
"221 -52 OFFCURVE",
"287 14 OFFCURVE",
"367 14 CURVE SMOOTH",
"446 14 OFFCURVE",
"512 -52 OFFCURVE",
"512 -131 CURVE SMOOTH",
"512 -210 OFFCURVE",
"446 -276 OFFCURVE",
"367 -276 CURVE SMOOTH",
"288 -276 OFFCURVE",
"221 -210 OFFCURVE",
"221 -131 CURVE SMOOTH"
);
},
{
closed = 1;
nodes = (
"526 1360 LINE",
"582 1202 LINE",
"897 1202 LINE",
"879 1360 LINE"
);
},
{
closed = 1;
nodes = (
"627 1073 LINE",
"678 926 LINE",
"930 926 LINE",
"911 1073 LINE"
);
},
{
closed = 1;
nodes = (
"723 799 LINE",
"774 651 LINE",
"961 651 LINE",
"944 799 LINE"
);
},
{
closed = 1;
nodes = (
"1008 1360 LINE",
"1026 1202 LINE",
"1386 1202 LINE",
"1405 1360 LINE"
);
},
{
closed = 1;
nodes = (
"1040 1073 LINE",
"1059 926 LINE",
"1354 926 LINE",
"1372 1073 LINE"
);
},
{
closed = 1;
nodes = (
"1073 799 LINE",
"1090 651 LINE",
"1323 651 LINE",
"1339 799 LINE"
);
},
{
closed = 1;
nodes = (
"1452 651 LINE",
"1694 651 LINE",
"1718 799 LINE",
"1468 799 LINE"
);
},
{
closed = 1;
nodes = (
"1483 926 LINE",
"1741 926 LINE",
"1765 1073 LINE",
"1499 1073 LINE"
);
},
{
closed = 1;
nodes = (
"1516 1202 LINE",
"1788 1202 LINE",
"1815 1360 LINE",
"1534 1360 LINE"
);
},
{
closed = 1;
nodes = (
"1552 -52 OFFCURVE",
"1615 14 OFFCURVE",
"1698 14 CURVE SMOOTH",
"1777 14 OFFCURVE",
"1843 -52 OFFCURVE",
"1843 -131 CURVE SMOOTH",
"1843 -210 OFFCURVE",
"1777 -276 OFFCURVE",
"1698 -276 CURVE SMOOTH",
"1617 -276 OFFCURVE",
"1552 -210 OFFCURVE",
"1552 -131 CURVE SMOOTH"
);
}
);
width = 2048;
}
);
unicode = 00B2;
},
{
glyphname = uni00B3;
lastChange = "2012-07-03 13:53:28 +0000";
layers = (
{
layerId = "1730482B-7E8C-4DF6-A2D5-70B9989D176C";
name = Regular;
paths = (
{
closed = 1;
nodes = (
"31 1542 LINE SMOOTH",
"31 1597 OFFCURVE",
"72 1638 OFFCURVE",
"127 1638 CURVE SMOOTH",
"1726 1638 LINE SMOOTH",
"1781 1638 OFFCURVE",
"1823 1597 OFFCURVE",
"1823 1542 CURVE SMOOTH",
"1823 1495 LINE",
"1960 1495 LINE SMOOTH",
"1993 1495 OFFCURVE",
"2019 1468 OFFCURVE",
"2019 1436 CURVE SMOOTH",
"2019 1257 LINE SMOOTH",
"2019 1224 OFFCURVE",
"1993 1198 OFFCURVE",
"1960 1198 CURVE SMOOTH",
"1823 1198 LINE",
"1823 1028 LINE",
"1960 1028 LINE SMOOTH",
"1993 1028 OFFCURVE",
"2019 1001 OFFCURVE",
"2019 969 CURVE SMOOTH",
"2019 791 LINE SMOOTH",
"2019 758 OFFCURVE",
"1993 731 OFFCURVE",
"1960 731 CURVE SMOOTH",
"1823 731 LINE",
"1823 561 LINE",
"1960 561 LINE SMOOTH",
"1993 561 OFFCURVE",
"2019 534 OFFCURVE",
"2019 502 CURVE SMOOTH",
"2019 324 LINE SMOOTH",
"2019 291 OFFCURVE",
"1993 264 OFFCURVE",
"1960 264 CURVE SMOOTH",
"1823 264 LINE",
"1823 94 LINE",
"1960 94 LINE SMOOTH",
"1993 94 OFFCURVE",
"2019 68 OFFCURVE",
"2019 33 CURVE SMOOTH",
"2019 -143 LINE SMOOTH",
"2019 -176 OFFCURVE",
"1993 -203 OFFCURVE",
"1960 -203 CURVE SMOOTH",
"1823 -203 LINE",
"1823 -254 LINE SMOOTH",
"1823 -306 OFFCURVE",
"1781 -348 OFFCURVE",
"1726 -348 CURVE SMOOTH",
"127 -348 LINE SMOOTH",
"72 -348 OFFCURVE",
"31 -306 OFFCURVE",
"31 -254 CURVE SMOOTH"
);
},
{
closed = 1;
nodes = (
"455 236 LINE SMOOTH",
"455 200 OFFCURVE",
"477 172 OFFCURVE",
"508 172 CURVE SMOOTH",
"1341 172 LINE SMOOTH",
"1372 172 OFFCURVE",
"1397 200 OFFCURVE",
"1397 236 CURVE SMOOTH",
"1397 494 LINE SMOOTH",
"1397 520 OFFCURVE",
"1385 539 OFFCURVE",
"1362 551 CURVE SMOOTH",
"1040 705 LINE",
"1113 752 OFFCURVE",
"1165 845 OFFCURVE",
"1165 952 CURVE SMOOTH",
"1165 1028 OFFCURVE",
"1139 1099 OFFCURVE",
"1096 1150 CURVE SMOOTH",
"1052 1201 OFFCURVE",
"991 1233 OFFCURVE",
"926 1233 CURVE SMOOTH",
"861 1233 OFFCURVE",
"799 1201 OFFCURVE",
"756 1150 CURVE SMOOTH",
"712 1099 OFFCURVE",
"684 1029 OFFCURVE",
"684 952 CURVE SMOOTH",
"684 843 OFFCURVE",
"736 749 OFFCURVE",
"815 702 CURVE",
"489 551 LINE",
"468 543 OFFCURVE",
"455 518 OFFCURVE",
"455 494 CURVE SMOOTH"
);
}
);
width = 2048;
}
);
unicode = 00B3;
},
{
glyphname = uni00B9;
lastChange = "2012-07-03 13:53:28 +0000";
layers = (
{
layerId = "1730482B-7E8C-4DF6-A2D5-70B9989D176C";
name = Regular;
paths = (
{
closed = 1;
nodes = (
"114 -284 OFFCURVE",
"120 -263 OFFCURVE",
"139 -252 CURVE",
"140 -251 OFFCURVE",
"154 -243 OFFCURVE",
"180 -230 CURVE SMOOTH",
"232 -204 OFFCURVE",
"345 -169 OFFCURVE",
"530 -139 CURVE SMOOTH",
"622 -124 OFFCURVE",
"736 -114 OFFCURVE",
"872 -109 CURVE",
"872 -2 LINE",
"395 -2 LINE SMOOTH",
"348 -2 OFFCURVE",
"313 33 OFFCURVE",
"313 80 CURVE SMOOTH",
"313 846 LINE SMOOTH",
"313 890 OFFCURVE",
"348 926 OFFCURVE",
"395 926 CURVE SMOOTH",
"475 926 LINE",
"475 829 LINE",
"580 829 LINE",
"580 1475 LINE SMOOTH",
"580 1483 OFFCURVE",
"588 1495 OFFCURVE",
"604 1511 CURVE SMOOTH",
"619 1526 OFFCURVE",
"644 1541 OFFCURVE",
"678 1556 CURVE",
"678 1253 LINE SMOOTH",
"678 1245 OFFCURVE",
"690 1208 OFFCURVE",
"723 1208 CURVE SMOOTH",
"756 1208 OFFCURVE",
"768 1245 OFFCURVE",
"768 1253 CURVE SMOOTH",
"768 1589 LINE",
"801 1597 OFFCURVE",
"837 1607 OFFCURVE",
"881 1612 CURVE",
"881 1253 LINE SMOOTH",
"881 1245 OFFCURVE",
"891 1208 OFFCURVE",
"924 1208 CURVE SMOOTH",
"957 1208 OFFCURVE",
"969 1245 OFFCURVE",
"969 1253 CURVE SMOOTH",
"969 1620 LINE",
"978 1620 OFFCURVE",
"988 1620 OFFCURVE",
"999 1621 CURVE SMOOTH",
"1009 1622 OFFCURVE",
"1019 1622 OFFCURVE",
"1030 1622 CURVE SMOOTH",
"1038 1622 OFFCURVE",
"1047 1622 OFFCURVE",
"1056 1621 CURVE SMOOTH",
"1065 1620 OFFCURVE",
"1073 1620 OFFCURVE",
"1081 1620 CURVE",
"1081 1253 LINE SMOOTH",
"1081 1245 OFFCURVE",
"1092 1208 OFFCURVE",
"1124 1208 CURVE SMOOTH",
"1157 1208 OFFCURVE",
"1169 1245 OFFCURVE",
"1169 1253 CURVE SMOOTH",
"1169 1612 LINE",
"1213 1607 OFFCURVE",
"1249 1599 OFFCURVE",
"1282 1591 CURVE",
"1282 1253 LINE SMOOTH",
"1282 1245 OFFCURVE",
"1292 1208 OFFCURVE",
"1325 1208 CURVE SMOOTH",
"1358 1208 OFFCURVE",
"1370 1245 OFFCURVE",
"1370 1253 CURVE SMOOTH",
"1370 1559 LINE",
"1404 1542 OFFCURVE",
"1428 1526 OFFCURVE",
"1443 1511 CURVE",
"1457 1495 OFFCURVE",
"1464 1483 OFFCURVE",
"1464 1475 CURVE SMOOTH",
"1464 829 LINE",
"1571 829 LINE",
"1571 926 LINE",
"1651 926 LINE SMOOTH",
"1698 926 OFFCURVE",
"1731 890 OFFCURVE",
"1731 846 CURVE SMOOTH",
"1731 80 LINE SMOOTH",
"1731 33 OFFCURVE",
"1698 -2 OFFCURVE",
"1651 -2 CURVE SMOOTH",
"1174 -2 LINE",
"1174 -109 LINE",
"1453 -117 OFFCURVE",
"1636 -152 OFFCURVE",
"1752 -184 CURVE SMOOTH",
"1810 -201 OFFCURVE",
"1852 -216 OFFCURVE",
"1878 -229 CURVE SMOOTH",
"1930 -257 OFFCURVE",
"1954 -258 OFFCURVE",
"1939 -305 CURVE SMOOTH",
"1932 -328 OFFCURVE",
"1917 -340 OFFCURVE",
"1894 -340 CURVE SMOOTH",
"166 -340 LINE SMOOTH",
"141 -340 OFFCURVE",
"126 -328 OFFCURVE",
"119 -305 CURVE"
);
},
{
closed = 1;
nodes = (
"475 160 LINE",
"1571 160 LINE",
"1571 680 LINE",
"1464 680 LINE",
"1464 375 LINE SMOOTH",
"1464 367 OFFCURVE",
"1457 356 OFFCURVE",
"1442 341 CURVE SMOOTH",
"1412 312 OFFCURVE",
"1347 279 OFFCURVE",
"1236 258 CURVE SMOOTH",
"1181 247 OFFCURVE",
"1113 242 OFFCURVE",
"1032 242 CURVE SMOOTH",
"871 242 OFFCURVE",
"757 267 OFFCURVE",
"685 297 CURVE SMOOTH",
"649 312 OFFCURVE",
"623 326 OFFCURVE",
"606 341 CURVE SMOOTH",
"589 355 OFFCURVE",
"580 366 OFFCURVE",
"580 375 CURVE SMOOTH",
"580 680 LINE",
"475 680 LINE"
);
}
);
width = 2048;
}
);
unicode = 00B9;
},
{
glyphname = ordmasculine;
lastChange = "2012-07-03 13:53:28 +0000";
layers = (
{
layerId = "1730482B-7E8C-4DF6-A2D5-70B9989D176C";
name = Regular;
paths = (
{
closed = 1;
nodes = (
"16 367 LINE SMOOTH",
"16 393 OFFCURVE",
"26 411 OFFCURVE",
"47 420 CURVE SMOOTH",
"350 561 LINE",
"279 605 OFFCURVE",
"229 689 OFFCURVE",
"229 793 CURVE SMOOTH",
"229 864 OFFCURVE",
"254 928 OFFCURVE",
"295 975 CURVE SMOOTH",
"336 1022 OFFCURVE",
"390 1051 OFFCURVE",
"453 1051 CURVE SMOOTH",
"516 1051 OFFCURVE",
"572 1022 OFFCURVE",
"612 975 CURVE SMOOTH",
"651 928 OFFCURVE",
"676 864 OFFCURVE",
"676 793 CURVE SMOOTH",
"676 712 OFFCURVE",
"645 639 OFFCURVE",
"596 592 CURVE",
"469 532 LINE",
"420 511 OFFCURVE",
"387 456 OFFCURVE",
"387 393 CURVE SMOOTH",
"387 156 LINE",
"66 156 LINE SMOOTH",
"39 156 OFFCURVE",
"16 182 OFFCURVE",
"16 213 CURVE SMOOTH"
);
},
{
closed = 1;
nodes = (
"453 393 LINE SMOOTH",
"453 426 OFFCURVE",
"467 449 OFFCURVE",
"494 463 CURVE",
"887 645 LINE",
"791 702 OFFCURVE",
"729 815 OFFCURVE",
"729 946 CURVE SMOOTH",
"729 1039 OFFCURVE",
"761 1124 OFFCURVE",
"814 1185 CURVE SMOOTH",
"867 1246 OFFCURVE",
"937 1284 OFFCURVE",
"1020 1284 CURVE SMOOTH",
"1099 1284 OFFCURVE",
"1173 1246 OFFCURVE",
"1225 1185 CURVE SMOOTH",
"1277 1124 OFFCURVE",
"1309 1039 OFFCURVE",
"1309 946 CURVE SMOOTH",
"1309 815 OFFCURVE",
"1248 706 OFFCURVE",
"1157 649 CURVE",
"1546 463 LINE SMOOTH",
"1573 450 OFFCURVE",
"1587 426 OFFCURVE",
"1587 393 CURVE SMOOTH",
"1587 82 LINE SMOOTH",
"1587 41 OFFCURVE",
"1559 6 OFFCURVE",
"1522 6 CURVE SMOOTH",
"516 6 LINE SMOOTH",
"480 6 OFFCURVE",
"453 41 OFFCURVE",
"453 82 CURVE SMOOTH"
);
},
{
closed = 1;
nodes = (
"1364 864 OFFCURVE",
"1389 928 OFFCURVE",
"1430 975 CURVE SMOOTH",
"1470 1022 OFFCURVE",
"1524 1051 OFFCURVE",
"1587 1051 CURVE SMOOTH",
"1647 1051 OFFCURVE",
"1704 1022 OFFCURVE",
"1745 975 CURVE SMOOTH",
"1786 928 OFFCURVE",
"1810 864 OFFCURVE",
"1810 793 CURVE SMOOTH",
"1810 692 OFFCURVE",
"1765 607 OFFCURVE",
"1694 563 CURVE",
"1993 420 LINE",
"2014 409 OFFCURVE",
"2024 392 OFFCURVE",
"2023 367 CURVE",
"2023 213 LINE SMOOTH",
"2023 182 OFFCURVE",
"2002 156 OFFCURVE",
"1974 156 CURVE SMOOTH",
"1651 156 LINE",
"1651 393 LINE SMOOTH",
"1651 456 OFFCURVE",
"1620 511 OFFCURVE",
"1571 532 CURVE",
"1444 594 LINE",
"1395 641 OFFCURVE",
"1364 714 OFFCURVE",
"1364 793 CURVE SMOOTH"
);
}
);
width = 2048;
}
);
unicode = 00BA;
},
